<svg xmlns="http://www.w3.org/2000/svg" viewBox="0 0 118.59 68.09"><path fill="#009877" d="M118.59 18.33V0h-13.21l-2.77 51.36 15.98-33.03z"/><path fill="#00c4b3" d="M118.59 45.05V18.33l-15.97 33.04 15.97-6.32z"/><path fill="none" d="M102.62 51.37l15.97-33.04v-.01"/><path fill="#006580" d="M105.38 0H86.03l16.58 51.36L105.38 0z"/><path fill="none" d="M0 0l102.61 51.36v.01h.01"/><path fill="#622650" d="M102.61 51.37v-.01L86.03 0H0l102.61 51.37z"/><path fill="#ffa400" d="M114.5 68.09l-11.89-16.71v-.01h.01l15.97-6.32v23.04h-4.09z"/><path fill="#ff5b35" d="M114.5 68.09l-11.89-16.71-1.39 16.71h13.28z"/><path fill="none" d="M102.62 51.37l11.9 16.72"/><path fill="#b52372" d="M102.61 51.38v-.01L85.08 68.09h16.14l1.39-16.71z"/></svg>