<?xml version="1.0" encoding="UTF-8" standalone="no"?>
<!DOCTYPE svg  PUBLIC '-//W3C//DTD SVG 1.1//EN'  'http://www.w3.org/Graphics/SVG/1.1/DTD/svg11.dtd'>
<svg xmlns="http://www.w3.org/2000/svg" version="1.1">
<defs>
<font id="HelveticaNeueLTArabic-Roman" horiz-adv-x="556">
<font-face font-weight="400" bbox="-192 -459 1354 1389" ascent="800" units-per-em="1000" unicode-range="U+000D-FEFC" cap-height="714" descent="-200" underline-position="-150" panose-1="2 11 6 4 2 2 2 2 2 4" underline-thickness="50" font-family="HelveticaNeueLT Arabic 55 Roman" x-height="517"/>
<missing-glyph horiz-adv-x="278"/>
<glyph glyph-name="uniFEF5" unicode="ﻟﺂ" arabic-form="isolated" d="M607 714v-714h-568v83h225v381h82v-381h179v631h82zM126 614q23 23 43.5 30t40.5 7q19 0 45.5 -9t49.5 -20q24 -11 46 -18.5t39 -7.5q26 0 39 14t18 29l32 -14q-14 -39 -33 -59t-56 -20q-27 0 -51.5 8.5t-47.5 19.5t-46 19t-43 8q-17 0 -28.5 -4t-26.5 -15z" horiz-adv-x="677"/>
<glyph glyph-name="uniFEF6" unicode="ﻠﺂ" arabic-form="final" d="M427 83q18 0 32 2t23.5 9.5t15 22t5.5 39.5v558h82v-521q0 -51 20.5 -80.5t65.5 -29.5q40 0 40 -40q0 -25 -9.5 -34t-30.5 -9q-39 0 -62.5 18.5t-31.5 46.5q-18 -41 -57.5 -53t-101.5 -12h-379v83h226v381h82v-381h80zM126 614q23 23 43.5 30t40.5 7q19 0 45.5 -9 t49.5 -20q24 -11 46 -18.5t39 -7.5q26 0 39 14t18 29l32 -14q-14 -39 -33 -59t-56 -20q-27 0 -51.5 8.5t-47.5 19.5t-46 19t-43 8q-17 0 -28.5 -4t-26.5 -15z" horiz-adv-x="671"/>
<glyph glyph-name="uniFEF7" unicode="ﻟﺄ" arabic-form="isolated" d="M607 714v-714h-568v83h225v381h82v-381h179v631h82zM381 553h-183v45h45q-14 23 -14 51q0 22 7 38.5t19 27.5t27.5 17t31.5 6q17 0 29.5 -2t18.5 -7v-46q-20 9 -43 9q-24 0 -35 -14t-11 -31q0 -20 13 -34.5t39 -14.5h56v-45z" horiz-adv-x="677"/>
<glyph glyph-name="uniFEF8" unicode="ﻠﺄ" arabic-form="final" d="M427 83q18 0 32 2t23.5 9.5t15 22t5.5 39.5v558h82v-521q0 -51 20.5 -80.5t65.5 -29.5q40 0 40 -40q0 -25 -9.5 -34t-30.5 -9q-39 0 -62.5 18.5t-31.5 46.5q-18 -41 -57.5 -53t-101.5 -12h-379v83h226v381h82v-381h80zM381 553h-183v45h45q-14 23 -14 51q0 22 7 38.5 t19 27.5t27.5 17t31.5 6q17 0 29.5 -2t18.5 -7v-46q-20 9 -43 9q-24 0 -35 -14t-11 -31q0 -20 13 -34.5t39 -14.5h56v-45z" horiz-adv-x="671"/>
<glyph glyph-name="uniFEF9" unicode="ﻟﺈ" arabic-form="isolated" d="M607 714v-714h-568v83h225v381h82v-381h179v631h82zM397 -249h-183v46h45q-14 23 -14 50q0 22 7 39t19 28t27.5 17t31.5 6q17 0 29.5 -2t18.5 -7v-47q-20 9 -43 9q-24 0 -35 -14t-11 -31q0 -20 13 -34t39 -14h56v-46z" horiz-adv-x="677"/>
<glyph glyph-name="uniFEFA" unicode="ﻠﺈ" arabic-form="final" d="M427 83q18 0 32 2t23.5 9.5t15 22t5.5 39.5v558h82v-521q0 -51 20.5 -80.5t65.5 -29.5q40 0 40 -40q0 -25 -9.5 -34t-30.5 -9q-39 0 -62.5 18.5t-31.5 46.5q-18 -41 -57.5 -53t-101.5 -12h-379v83h226v381h82v-381h80zM397 -249h-183v46h45q-14 23 -14 50q0 22 7 39 t19 28t27.5 17t31.5 6q17 0 29.5 -2t18.5 -7v-47q-20 9 -43 9q-24 0 -35 -14t-11 -31q0 -20 13 -34t39 -14h56v-46z" horiz-adv-x="671"/>
<glyph glyph-name="uniFEFB" unicode="ﻟﺎ" arabic-form="isolated" d="M607 714v-714h-568v83h225v381h82v-381h179v631h82z" horiz-adv-x="677"/>
<glyph glyph-name="uniFEFC" unicode="ﻠﺎ" arabic-form="final" d="M427 83q18 0 32 2t23.5 9.5t15 22t5.5 39.5v558h82v-521q0 -51 20.5 -80.5t65.5 -29.5q40 0 40 -40q0 -25 -9.5 -34t-30.5 -9q-39 0 -62.5 18.5t-31.5 46.5q-18 -41 -57.5 -53t-101.5 -12h-379v83h226v381h82v-381h80z" horiz-adv-x="671"/>
<glyph glyph-name="uni06440671" unicode="ﻟﭑ" d="M607 714v-714h-568v83h225v381h82v-381h179v631h82zM272 652q30 42 73 42q29 0 45.5 -18.5t16.5 -51.5v-53h-203v33h36v80h32v-32zM377 604v14q0 17 -7.5 29.5t-29.5 12.5q-21 0 -40 -16.5t-27 -39.5h104z" horiz-adv-x="677"/>
<glyph glyph-name="uni06440671.fina" unicode="ﻠﭑ" d="M427 83q18 0 32 2t23.5 9.5t15 22t5.5 39.5v558h82v-521q0 -51 20.5 -80.5t65.5 -29.5q40 0 40 -40q0 -25 -9.5 -34t-30.5 -9q-39 0 -62.5 18.5t-31.5 46.5q-18 -41 -57.5 -53t-101.5 -12h-379v83h226v381h82v-381h80zM272 652q30 42 73 42q29 0 45.5 -18.5t16.5 -51.5 v-53h-203v33h36v80h32v-32zM377 604v14q0 17 -7.5 29.5t-29.5 12.5q-21 0 -40 -16.5t-27 -39.5h104z" horiz-adv-x="671"/>
<glyph glyph-name="uni0621" unicode="ء" arabic-form="isolated" d="M327 0h-301v72h73q-33 39 -33 94q0 38 12.5 66.5t33 47t47 28t54.5 9.5q29 0 50 -2.5t29 -5.5v-78q-30 13 -71 13q-23 0 -38.5 -7t-26 -18.5t-15 -26t-4.5 -29.5q0 -38 23 -64.5t73 -26.5h94v-72z" horiz-adv-x="358"/>
<glyph glyph-name="uni0622" unicode="آ" arabic-form="isolated" d="M-61 850q23 23 43.5 30t40.5 7q19 0 45.5 -9t49.5 -20q24 -11 46 -18.5t39 -7.5q26 0 39 14t18 29l32 -14q-14 -39 -33 -59t-56 -20q-27 0 -51.5 8.5t-47.5 19.5t-46 19t-43 8q-17 0 -28.5 -4t-26.5 -15zM156 714v-714h-82v714h82z" horiz-adv-x="222"/>
<glyph glyph-name="uni0623" unicode="أ" arabic-form="isolated" d="M203 789h-183v45h45q-14 23 -14 51q0 22 7 38.5t19 27.5t27.5 17t31.5 6q17 0 29.5 -2t18.5 -7v-46q-20 9 -43 9q-24 0 -35 -14t-11 -31q0 -20 13 -34.5t39 -14.5h56v-45zM152 714v-714h-82v714h82z" horiz-adv-x="222"/>
<glyph glyph-name="uni0624" unicode="ؤ" arabic-form="isolated" d="M118 186q0 -57 31 -81.5t81 -24.5q38 0 67 10t44 22v37q0 34 -5.5 64t-18.5 51.5t-34 34t-51 12.5q-31 0 -52.5 -12t-35 -30t-20 -40t-6.5 -43zM222 0q-39 0 -72.5 9t-58 29.5t-39 54.5t-14.5 84q0 40 13 78.5t38 68.5t62 48t85 18q53 0 89.5 -19.5t58.5 -54t31.5 -82 t9.5 -104.5v-94q0 -75 -20 -122.5t-57 -75t-91 -37.5t-121 -10h-42v83h31q48 0 87.5 4t68 18t44.5 41t16 73v19q-18 -11 -47 -20t-72 -9zM330 501h-218v53h51q-23 28 -23 68q0 28 9 48.5t24 34t34 20.5t40 7t36.5 -3t21.5 -5v-54q-23 9 -52 9q-32 0 -46.5 -18.5t-14.5 -40.5 q0 -28 17 -47t52 -19h69v-53z" horiz-adv-x="485"/>
<glyph glyph-name="uni0625" unicode="إ" arabic-form="isolated" d="M193 -249h-183v46h45q-14 23 -14 50q0 22 7 39t19 28t27.5 17t31.5 6q17 0 29.5 -2t18.5 -7v-47q-20 9 -43 9q-24 0 -35 -14t-11 -31q0 -20 13 -34t39 -14h56v-46zM152 714v-714h-82v714h82z" horiz-adv-x="222"/>
<glyph glyph-name="uni0626" unicode="ئ" arabic-form="isolated" d="M81 27q0 -39 12.5 -71.5t42 -56t78 -36.5t120.5 -13q52 0 99.5 7.5t84 21.5t58 34.5t21.5 46.5q0 23 -15 38.5t-57 36.5q-30 15 -55.5 30.5t-44 35.5t-29.5 44.5t-11 57.5q0 38 13.5 77t41 70.5t69 51t96.5 19.5q33 0 58.5 -7.5t29.5 -9.5v-84q-20 6 -43.5 10t-46.5 4 q-33 0 -58.5 -10.5t-42 -27.5t-25 -38t-8.5 -42q0 -20 7.5 -34.5t20.5 -26.5t30 -22t37 -21q34 -19 57 -35t36.5 -31t19.5 -30.5t6 -33.5q0 -42 -19 -81t-61 -69t-108.5 -48.5t-160.5 -18.5t-158 18.5t-103 51t-56 77t-17 97.5v149h81v-131zM236 302h-218v53h51 q-23 28 -23 68q0 28 9 48.5t24 34t34 20.5t40 7t36.5 -3t21.5 -5v-54q-23 9 -52 9q-32 0 -46.5 -18.5t-14.5 -40.5q0 -28 17 -47t52 -19h69v-53z" horiz-adv-x="735"/>
<glyph glyph-name="uni0627" unicode="ا" arabic-form="isolated" d="M152 714v-714h-82v714h82z" horiz-adv-x="222"/>
<glyph glyph-name="uni0628" unicode="ب" arabic-form="isolated" d="M808 0h-606q-58 0 -96.5 8t-62 25.5t-33.5 45t-10 67.5v155h82v-125q0 -31 7.5 -49.5t25.5 -28t49 -12.5t79 -3h483v302h82v-385zM363 -152q0 22 15.5 37.5t37.5 15.5t37.5 -15.5t15.5 -37.5t-15.5 -37.5t-37.5 -15.5t-37.5 15.5t-15.5 37.5z" horiz-adv-x="878"/>
<glyph glyph-name="uni0629" unicode="ة" arabic-form="isolated" d="M0 171q0 40 13 80.5t38 73.5t60.5 53.5t80.5 20.5q39 0 72.5 -15.5t59 -45t40 -71.5t14.5 -96q0 -33 -10.5 -64.5t-34 -56t-60 -40t-87.5 -15.5q-42 0 -76 10.5t-58.5 32.5t-38 55t-13.5 78zM189 318q-25 0 -46 -11.5t-36 -30.5t-23.5 -44t-8.5 -53q0 -27 9 -46.5 t24.5 -32t36 -18t43.5 -5.5q21 0 41.5 4.5t36.5 16t26 30t10 47.5q0 33 -9.5 59t-25 45t-36 29t-42.5 10zM194 553q0 22 15.5 37.5t37.5 15.5t37.5 -15.5t15.5 -37.5t-15.5 -37.5t-37.5 -15.5t-37.5 15.5t-15.5 37.5zM64 553q0 22 15.5 37.5t37.5 15.5t37.5 -15.5 t15.5 -37.5t-15.5 -37.5t-37.5 -15.5t-37.5 15.5t-15.5 37.5z" horiz-adv-x="428"/>
<glyph glyph-name="uni062A" unicode="ت" arabic-form="isolated" d="M808 0h-606q-58 0 -96.5 8t-62 25.5t-33.5 45t-10 67.5v155h82v-125q0 -31 7.5 -49.5t25.5 -28t49 -12.5t79 -3h483v302h82v-385zM422 494q0 22 15.5 37.5t37.5 15.5t37.5 -15.5t15.5 -37.5t-15.5 -37.5t-37.5 -15.5t-37.5 15.5t-15.5 37.5zM292 494q0 22 15.5 37.5 t37.5 15.5t37.5 -15.5t15.5 -37.5t-15.5 -37.5t-37.5 -15.5t-37.5 15.5t-15.5 37.5z" horiz-adv-x="878"/>
<glyph glyph-name="uni062B" unicode="ث" arabic-form="isolated" d="M808 0h-606q-58 0 -96.5 8t-62 25.5t-33.5 45t-10 67.5v155h82v-125q0 -31 7.5 -49.5t25.5 -28t49 -12.5t79 -3h483v302h82v-385zM356 614q0 22 15.5 37.5t37.5 15.5t37.5 -15.5t15.5 -37.5t-15.5 -37.5t-37.5 -15.5t-37.5 15.5t-15.5 37.5zM419 494q0 22 15.5 37.5 t37.5 15.5t37.5 -15.5t15.5 -37.5t-15.5 -37.5t-37.5 -15.5t-37.5 15.5t-15.5 37.5zM289 494q0 22 15.5 37.5t37.5 15.5t37.5 -15.5t15.5 -37.5t-15.5 -37.5t-37.5 -15.5t-37.5 15.5t-15.5 37.5z" horiz-adv-x="878"/>
<glyph glyph-name="uni062C" unicode="ج" arabic-form="isolated" d="M488 83q0 64 -17 108t-46 71.5t-67.5 40t-82.5 12.5q-29 0 -61.5 -5.5t-53.5 -11.5v80q20 6 53 13.5t72 7.5q76 0 131 -26t90 -70.5t51.5 -104t16.5 -125.5v-73h-300q-32 0 -65 -6.5t-60.5 -23t-45 -46t-17.5 -75.5q0 -43 15.5 -74t42.5 -51t63 -29.5t76 -9.5 q41 0 84 6.5t101 33.5l33 -63q-28 -20 -59.5 -32t-60.5 -18.5t-54 -9t-41 -2.5q-64 0 -116.5 15t-90 45t-58.5 75t-21 105q0 72 25 119t64.5 74.5t88.5 38.5t97 11h213zM263 -152q0 22 15.5 37.5t37.5 15.5t37.5 -15.5t15.5 -37.5t-15.5 -37.5t-37.5 -15.5t-37.5 15.5 t-15.5 37.5z" horiz-adv-x="624"/>
<glyph glyph-name="uni062D" unicode="ح" arabic-form="isolated" d="M488 83q0 64 -17 108t-46 71.5t-67.5 40t-82.5 12.5q-29 0 -61.5 -5.5t-53.5 -11.5v80q20 6 53 13.5t72 7.5q76 0 131 -26t90 -70.5t51.5 -104t16.5 -125.5v-73h-300q-32 0 -65 -6.5t-60.5 -23t-45 -46t-17.5 -75.5q0 -43 15.5 -74t42.5 -51t63 -29.5t76 -9.5 q41 0 84 6.5t101 33.5l33 -63q-28 -20 -59.5 -32t-60.5 -18.5t-54 -9t-41 -2.5q-64 0 -116.5 15t-90 45t-58.5 75t-21 105q0 72 25 119t64.5 74.5t88.5 38.5t97 11h213z" horiz-adv-x="624"/>
<glyph glyph-name="uni062E" unicode="خ" arabic-form="isolated" d="M488 83q0 64 -17 108t-46 71.5t-67.5 40t-82.5 12.5q-29 0 -61.5 -5.5t-53.5 -11.5v80q20 6 53 13.5t72 7.5q76 0 131 -26t90 -70.5t51.5 -104t16.5 -125.5v-73h-300q-32 0 -65 -6.5t-60.5 -23t-45 -46t-17.5 -75.5q0 -43 15.5 -74t42.5 -51t63 -29.5t76 -9.5 q41 0 84 6.5t101 33.5l33 -63q-28 -20 -59.5 -32t-60.5 -18.5t-54 -9t-41 -2.5q-64 0 -116.5 15t-90 45t-58.5 75t-21 105q0 72 25 119t64.5 74.5t88.5 38.5t97 11h213zM240 553q0 22 15.5 37.5t37.5 15.5t37.5 -15.5t15.5 -37.5t-15.5 -37.5t-37.5 -15.5t-37.5 15.5 t-15.5 37.5z" horiz-adv-x="624"/>
<glyph glyph-name="uni062F" unicode="د" arabic-form="isolated" d="M398 110q0 -48 -33 -79t-96 -31h-239v83h232q34 0 43 10.5t9 23.5q0 10 -4 21t-19.5 35t-45 68t-80.5 119l77 48q40 -69 69.5 -116t48.5 -80t28.5 -56.5t9.5 -45.5z" horiz-adv-x="447"/>
<glyph glyph-name="uni0630" unicode="ذ" arabic-form="isolated" d="M398 110q0 -48 -33 -79t-96 -31h-239v83h232q34 0 43 10.5t9 23.5q0 10 -4 21t-19.5 35t-45 68t-80.5 119l77 48q40 -69 69.5 -116t48.5 -80t28.5 -56.5t9.5 -45.5zM144 553q0 22 15.5 37.5t37.5 15.5t37.5 -15.5t15.5 -37.5t-15.5 -37.5t-37.5 -15.5t-37.5 15.5 t-15.5 37.5z" horiz-adv-x="447"/>
<glyph glyph-name="uni0631" unicode="ر" arabic-form="isolated" d="M142 335h81v-279q0 -74 -8.5 -124.5t-32.5 -81.5t-66.5 -45t-109.5 -14v83q49 0 76.5 10.5t41 34t16 60t2.5 88.5v268z" horiz-adv-x="293"/>
<glyph glyph-name="uni0632" unicode="ز" arabic-form="isolated" d="M142 335h81v-279q0 -74 -8.5 -124.5t-32.5 -81.5t-66.5 -45t-109.5 -14v83q49 0 76.5 10.5t41 34t16 60t2.5 88.5v268zM130 553q0 22 15.5 37.5t37.5 15.5t37.5 -15.5t15.5 -37.5t-15.5 -37.5t-37.5 -15.5t-37.5 15.5t-15.5 37.5z" horiz-adv-x="293"/>
<glyph glyph-name="uni0633" unicode="س" arabic-form="isolated" d="M549 12q0 -66 -18.5 -112.5t-53.5 -76.5t-86 -44t-116 -14q-137 0 -206 61.5t-69 177.5v154h81v-137q0 -48 12.5 -81.5t37 -54t61.5 -29.5t85 -9q50 0 86 7t59.5 26t34.5 51t11 82v322h81v-142q0 -25 3 -45.5t13.5 -34.5t29.5 -22t52 -8q24 0 41.5 2t29 9.5t17 22 t5.5 39.5v179h82v-142q0 -25 3.5 -45.5t13 -34.5t26.5 -22t43 -8h84v302h82v-385h-166q-39 0 -62.5 18.5t-31.5 46.5q-18 -41 -57 -53t-99 -12q-47 0 -72.5 14.5t-36.5 34.5v-37z" horiz-adv-x="1145"/>
<glyph glyph-name="uni0634" unicode="ش" arabic-form="isolated" d="M549 12q0 -66 -18.5 -112.5t-53.5 -76.5t-86 -44t-116 -14q-137 0 -206 61.5t-69 177.5v154h81v-137q0 -48 12.5 -81.5t37 -54t61.5 -29.5t85 -9q50 0 86 7t59.5 26t34.5 51t11 82v322h81v-142q0 -25 3 -45.5t13.5 -34.5t29.5 -22t52 -8q24 0 41.5 2t29 9.5t17 22 t5.5 39.5v179h82v-142q0 -25 3.5 -45.5t13 -34.5t26.5 -22t43 -8h84v302h82v-385h-166q-39 0 -62.5 18.5t-31.5 46.5q-18 -41 -57 -53t-99 -12q-47 0 -72.5 14.5t-36.5 34.5v-37zM730 673q0 22 15.5 37.5t37.5 15.5t37.5 -15.5t15.5 -37.5t-15.5 -37.5t-37.5 -15.5 t-37.5 15.5t-15.5 37.5zM793 553q0 22 15.5 37.5t37.5 15.5t37.5 -15.5t15.5 -37.5t-15.5 -37.5t-37.5 -15.5t-37.5 15.5t-15.5 37.5zM663 553q0 22 15.5 37.5t37.5 15.5t37.5 -15.5t15.5 -37.5t-15.5 -37.5t-37.5 -15.5t-37.5 15.5t-15.5 37.5z" horiz-adv-x="1145"/>
<glyph glyph-name="uni0635" unicode="ص" arabic-form="isolated" d="M1156 83v67q0 36 -7.5 66.5t-24.5 52.5t-44.5 34t-66.5 12q-48 0 -89.5 -21t-76 -54t-59.5 -74.5t-40 -82.5h408zM660 83q19 55 52.5 111.5t80 102t105.5 74t128 28.5q101 0 156.5 -60t55.5 -170v-169h-559q-62 0 -90.5 14.5t-39.5 34.5v-37q0 -66 -18.5 -112.5 t-53.5 -76.5t-86 -44t-116 -14q-137 0 -206 61.5t-69 177.5v154h81v-137q0 -48 12.5 -81.5t37 -54t61.5 -29.5t85 -9q50 0 86 7t59.5 26t34.5 51t11 82v322h81v-142q0 -25 3.5 -45.5t14.5 -34.5t33 -22t60 -8z" horiz-adv-x="1298"/>
<glyph glyph-name="uni0636" unicode="ض" arabic-form="isolated" d="M1156 83v67q0 36 -7.5 66.5t-24.5 52.5t-44.5 34t-66.5 12q-48 0 -89.5 -21t-76 -54t-59.5 -74.5t-40 -82.5h408zM660 83q19 55 52.5 111.5t80 102t105.5 74t128 28.5q101 0 156.5 -60t55.5 -170v-169h-559q-62 0 -90.5 14.5t-39.5 34.5v-37q0 -66 -18.5 -112.5 t-53.5 -76.5t-86 -44t-116 -14q-137 0 -206 61.5t-69 177.5v154h81v-137q0 -48 12.5 -81.5t37 -54t61.5 -29.5t85 -9q50 0 86 7t59.5 26t34.5 51t11 82v322h81v-142q0 -25 3.5 -45.5t14.5 -34.5t33 -22t60 -8zM962 553q0 22 15.5 37.5t37.5 15.5t37.5 -15.5t15.5 -37.5 t-15.5 -37.5t-37.5 -15.5t-37.5 15.5t-15.5 37.5z" horiz-adv-x="1298"/>
<glyph glyph-name="uni0637" unicode="ط" arabic-form="isolated" d="M226 225q51 83 119.5 128.5t159.5 45.5q97 0 151.5 -61t54.5 -169v-169h-694v83h127v631h82v-489zM629 83v67q0 34 -7 64.5t-24 52.5t-44.5 35t-67.5 13q-48 0 -89 -22t-74 -55.5t-57.5 -74.5t-39.5 -80h403z" horiz-adv-x="771"/>
<glyph glyph-name="uni0638" unicode="ظ" arabic-form="isolated" d="M226 225q51 83 119.5 128.5t159.5 45.5q97 0 151.5 -61t54.5 -169v-169h-694v83h127v631h82v-489zM629 83v67q0 34 -7 64.5t-24 52.5t-44.5 35t-67.5 13q-48 0 -89 -22t-74 -55.5t-57.5 -74.5t-39.5 -80h403zM458 553q0 22 15.5 37.5t37.5 15.5t37.5 -15.5t15.5 -37.5 t-15.5 -37.5t-37.5 -15.5t-37.5 15.5t-15.5 37.5z" horiz-adv-x="771"/>
<glyph glyph-name="uni0639" unicode="ع" arabic-form="isolated" d="M181 73q-23 17 -38 50.5t-15 76.5q0 52 19.5 90t51 63t70 37t77.5 12q35 0 61 -4t37 -9v-89q-19 6 -41 10.5t-54 4.5q-63 0 -100 -31t-37 -85q0 -51 32 -83.5t97 -32.5h158v-83h-225q-32 0 -65 -6.5t-60.5 -23.5t-45 -46.5t-17.5 -74.5q0 -41 15.5 -72t42.5 -51.5 t63 -30.5t76 -10q41 0 84 6.5t101 33.5l33 -63q-28 -20 -59.5 -32t-60.5 -18.5t-54 -9t-41 -2.5q-64 0 -116.5 15.5t-90 45.5t-58.5 75t-21 104q0 49 13.5 88t37.5 68.5t57 48.5t73 28z" horiz-adv-x="511"/>
<glyph glyph-name="uni063A" unicode="غ" arabic-form="isolated" d="M181 73q-23 17 -38 50.5t-15 76.5q0 52 19.5 90t51 63t70 37t77.5 12q35 0 61 -4t37 -9v-89q-19 6 -41 10.5t-54 4.5q-63 0 -100 -31t-37 -85q0 -51 32 -83.5t97 -32.5h158v-83h-225q-32 0 -65 -6.5t-60.5 -23.5t-45 -46.5t-17.5 -74.5q0 -41 15.5 -72t42.5 -51.5 t63 -30.5t76 -10q41 0 84 6.5t101 33.5l33 -63q-28 -20 -59.5 -32t-60.5 -18.5t-54 -9t-41 -2.5q-64 0 -116.5 15.5t-90 45.5t-58.5 75t-21 104q0 49 13.5 88t37.5 68.5t57 48.5t73 28zM271 552q0 22 15.5 37.5t37.5 15.5t37.5 -15.5t15.5 -37.5t-15.5 -37.5t-37.5 -15.5 t-37.5 15.5t-15.5 37.5z" horiz-adv-x="511"/>
<glyph glyph-name="uni0641" unicode="ف" arabic-form="isolated" d="M590 83q-11 21 -19 46.5t-8 58.5q0 39 13 77t38 67.5t61.5 48t84.5 18.5q55 0 90 -20t55.5 -51t28.5 -68.5t8 -73.5v-186h-740q-58 0 -96.5 8t-62 25.5t-33.5 45t-10 67.5v155h82v-125q0 -31 7.5 -49.5t25.5 -28t49 -12.5t79 -3h347zM641 201q0 -61 36 -89.5t88 -28.5h96 v100q0 24 -4.5 48.5t-16.5 44t-33 32t-53 12.5q-53 0 -83 -35t-30 -84zM713 553q0 22 15.5 37.5t37.5 15.5t37.5 -15.5t15.5 -37.5t-15.5 -37.5t-37.5 -15.5t-37.5 15.5t-15.5 37.5z" horiz-adv-x="1002"/>
<glyph glyph-name="uni0642" unicode="ق" arabic-form="isolated" d="M359 235q0 -57 31 -81.5t81 -24.5q38 0 67 10t44 22v37q0 34 -5.5 64t-18.5 51.5t-34 34t-51 12.5q-31 0 -52.5 -12t-35 -30t-20 -40t-6.5 -43zM0 207h81v-131q0 -89 62.5 -134.5t190.5 -45.5q48 0 93 7t79.5 26t55 51t20.5 82v16q-18 -11 -47 -20t-72 -9q-39 0 -72.5 9 t-58 29.5t-39 54.5t-14.5 84q0 40 13 78.5t38 68.5t62 48t85 18q53 0 89.5 -19.5t58.5 -54t31.5 -82t9.5 -104.5v-84q0 -73 -23 -126t-66 -87.5t-104.5 -51t-138.5 -16.5q-93 0 -157 18.5t-103 51t-56.5 77t-17.5 97.5v149zM481 603q0 22 15.5 37.5t37.5 15.5t37.5 -15.5 t15.5 -37.5t-15.5 -37.5t-37.5 -15.5t-37.5 15.5t-15.5 37.5zM351 603q0 22 15.5 37.5t37.5 15.5t37.5 -15.5t15.5 -37.5t-15.5 -37.5t-37.5 -15.5t-37.5 15.5t-15.5 37.5z" horiz-adv-x="727"/>
<glyph glyph-name="uni0643" unicode="ك" arabic-form="isolated" d="M515 295h-183v46h45q-14 23 -14 50q0 22 7 39t19 28t27.5 17t31.5 6q17 0 29.5 -2t18.5 -7v-47q-20 9 -43 9q-24 0 -35 -14t-11 -31q0 -20 13 -34t39 -14h56v-46zM820 0h-618q-58 0 -96.5 8t-62 25.5t-33.5 45t-10 67.5v155h82v-125q0 -31 7.5 -49.5t25.5 -28t49 -12.5 t79 -3h495v631h82v-714z" horiz-adv-x="890"/>
<glyph glyph-name="uni0644" unicode="ل" arabic-form="isolated" d="M549 714v-702q0 -132 -71.5 -200t-202.5 -68q-68 0 -119.5 19t-86 53.5t-52 82t-17.5 105.5v154h81v-137q0 -195 196 -195q101 0 146 43.5t45 143.5v701h81z" horiz-adv-x="620"/>
<glyph glyph-name="uni0645" unicode="م" arabic-form="isolated" d="M443 177q0 22 -6.5 43t-19 37t-30.5 25.5t-42 9.5q-42 0 -81 -39t-62 -128q37 -24 73.5 -38.5t74.5 -14.5q42 0 67.5 24t25.5 81zM141 141q12 67 36.5 112t53.5 72t60.5 38t58.5 11q38 0 70 -14.5t55.5 -41t37 -63t13.5 -81.5q0 -86 -41.5 -136.5t-127.5 -50.5 q-47 0 -95 16t-99 54q-27 -6 -43 -16.5t-24 -28t-10 -44t-2 -64.5v-304h-84v306q0 51 5.5 88t21 64.5t43 47.5t71.5 35z" horiz-adv-x="576"/>
<glyph glyph-name="uni0646" unicode="ن" arabic-form="isolated" d="M0 273h81v-137q0 -97 49.5 -136t146.5 -39q50 0 86 7.5t59.5 26t34.5 51t11 82.5v257h81v-258q0 -66 -18.5 -113t-53.5 -77t-86 -44t-116 -14q-137 0 -206 62t-69 178v154zM225 422q0 22 15.5 37.5t37.5 15.5t37.5 -15.5t15.5 -37.5t-15.5 -37.5t-37.5 -15.5t-37.5 15.5 t-15.5 37.5z" horiz-adv-x="619"/>
<glyph glyph-name="uni0648" unicode="و" arabic-form="isolated" d="M118 186q0 -57 31 -81.5t81 -24.5q38 0 67 10t44 22v37q0 34 -5.5 64t-18.5 51.5t-34 34t-51 12.5q-31 0 -52.5 -12t-35 -30t-20 -40t-6.5 -43zM222 0q-39 0 -72.5 9t-58 29.5t-39 54.5t-14.5 84q0 40 13 78.5t38 68.5t62 48t85 18q53 0 89.5 -19.5t58.5 -54t31.5 -82 t9.5 -104.5v-94q0 -75 -20 -122.5t-57 -75t-91 -37.5t-121 -10h-42v83h31q48 0 87.5 4t68 18t44.5 41t16 73v19q-18 -11 -47 -20t-72 -9z" horiz-adv-x="485"/>
<glyph glyph-name="uni0649" unicode="ى" arabic-form="isolated" d="M81 27q0 -39 12.5 -71.5t42 -56t78 -36.5t120.5 -13q52 0 99.5 7.5t84 21.5t58 34.5t21.5 46.5q0 23 -15 38.5t-57 36.5q-30 15 -55.5 30.5t-44 35.5t-29.5 44.5t-11 57.5q0 38 13.5 77t41 70.5t69 51t96.5 19.5q33 0 58.5 -7.5t29.5 -9.5v-84q-20 6 -43.5 10t-46.5 4 q-33 0 -58.5 -10.5t-42 -27.5t-25 -38t-8.5 -42q0 -20 7.5 -34.5t20.5 -26.5t30 -22t37 -21q34 -19 57 -35t36.5 -31t19.5 -30.5t6 -33.5q0 -42 -19 -81t-61 -69t-108.5 -48.5t-160.5 -18.5t-158 18.5t-103 51t-56 77t-17 97.5v149h81v-131z" horiz-adv-x="735"/>
<glyph glyph-name="uni064A" unicode="ي" arabic-form="isolated" d="M81 102q0 -39 12.5 -71.5t42 -56t78 -36.5t120.5 -13q52 0 99.5 7.5t84 21.5t58 34.5t21.5 46.5q0 23 -15 38.5t-57 36.5q-30 15 -55.5 30.5t-44 35.5t-29.5 44.5t-11 57.5q0 38 13.5 77t41 70.5t69 51t96.5 19.5q33 0 58.5 -7.5t29.5 -9.5v-84q-20 6 -43.5 10t-46.5 4 q-33 0 -58.5 -10.5t-42 -27.5t-25 -38t-8.5 -42q0 -20 7.5 -34.5t20.5 -26.5t30 -22t37 -21q34 -19 57 -35t36.5 -31t19.5 -30.5t6 -33.5q0 -42 -19 -81t-61 -69t-108.5 -48.5t-160.5 -18.5t-158 18.5t-103 51t-56 77t-17 97.5v149h81v-131zM342 -314q0 22 15.5 37.5 t37.5 15.5t37.5 -15.5t15.5 -37.5t-15.5 -37.5t-37.5 -15.5t-37.5 15.5t-15.5 37.5zM212 -314q0 22 15.5 37.5t37.5 15.5t37.5 -15.5t15.5 -37.5t-15.5 -37.5t-37.5 -15.5t-37.5 15.5t-15.5 37.5z" horiz-adv-x="735"/>
<glyph glyph-name="uni0671" unicode="ٱ" arabic-form="isolated" d="M152 714v-714h-82v714h82zM73 863q30 42 73 42q29 0 45.5 -18.5t16.5 -51.5v-53h-203v33h36v80h32v-32zM178 815v14q0 17 -7.5 29.5t-29.5 12.5q-21 0 -40 -16.5t-27 -39.5h104z" horiz-adv-x="222"/>
<glyph glyph-name="uni0679" unicode="ٹ" arabic-form="isolated" d="M808 0h-606q-58 0 -96.5 8t-62 25.5t-33.5 45t-10 67.5v155h82v-125q0 -31 7.5 -49.5t25.5 -28t49 -12.5t79 -3h483v302h82v-385zM369 509q39 53 94 53q37 0 58 -23.5t21 -65.5v-68h-260v42h47v207h40v-145zM503 447v19q0 21 -9.5 37t-36.5 16q-28 0 -51.5 -21.5 t-34.5 -50.5h132z" horiz-adv-x="878"/>
<glyph glyph-name="uni067E" unicode="پ" arabic-form="isolated" d="M808 0h-606q-58 0 -96.5 8t-62 25.5t-33.5 45t-10 67.5v155h82v-125q0 -31 7.5 -49.5t25.5 -28t49 -12.5t79 -3h483v302h82v-385zM460 -271q0 -22 -15.5 -37.5t-37.5 -15.5t-37.5 15.5t-15.5 37.5t15.5 37.5t37.5 15.5t37.5 -15.5t15.5 -37.5zM397 -151 q0 -22 -15.5 -37.5t-37.5 -15.5t-37.5 15.5t-15.5 37.5t15.5 37.5t37.5 15.5t37.5 -15.5t15.5 -37.5zM527 -151q0 -22 -15.5 -37.5t-37.5 -15.5t-37.5 15.5t-15.5 37.5t15.5 37.5t37.5 15.5t37.5 -15.5t15.5 -37.5z" horiz-adv-x="878"/>
<glyph glyph-name="uni0686" unicode="چ" arabic-form="isolated" d="M361 -225q0 -22 -15.5 -37.5t-37.5 -15.5t-37.5 15.5t-15.5 37.5t15.5 37.5t37.5 15.5t37.5 -15.5t15.5 -37.5zM298 -105q0 -22 -15.5 -37.5t-37.5 -15.5t-37.5 15.5t-15.5 37.5t15.5 37.5t37.5 15.5t37.5 -15.5t15.5 -37.5zM428 -105q0 -22 -15.5 -37.5t-37.5 -15.5 t-37.5 15.5t-15.5 37.5t15.5 37.5t37.5 15.5t37.5 -15.5t15.5 -37.5zM482 83q0 64 -17 108t-46 71.5t-67.5 40t-82.5 12.5q-29 0 -61.5 -5.5t-53.5 -11.5v80q20 6 53 13.5t72 7.5q76 0 131 -26t90 -70.5t51.5 -104t16.5 -125.5v-73h-300q-32 0 -65 -6.5t-60.5 -23t-45 -46 t-17.5 -75.5q0 -43 15.5 -74t42.5 -51t63 -29.5t76 -9.5q41 0 84 6.5t101 33.5l33 -63q-28 -20 -59.5 -32t-60.5 -18.5t-54 -9t-41 -2.5q-64 0 -116.5 15t-90 45t-58.5 75t-21 105q0 72 25 119t64.5 74.5t88.5 38.5t97 11h213z" horiz-adv-x="600"/>
<glyph glyph-name="uni0688" unicode="ڈ" arabic-form="isolated" d="M398 110q0 -48 -33 -79t-96 -31h-239v83h232q34 0 43 10.5t9 23.5q0 10 -4 21t-19.5 35t-45 68t-80.5 119l77 48q40 -69 69.5 -116t48.5 -80t28.5 -56.5t9.5 -45.5zM193 602q39 53 94 53q37 0 58 -23.5t21 -65.5v-68h-260v42h47v207h40v-145zM327 540v19q0 21 -9.5 37 t-36.5 16q-28 0 -51.5 -21.5t-34.5 -50.5h132z" horiz-adv-x="447"/>
<glyph glyph-name="uni0691" unicode="ڑ" arabic-form="isolated" d="M142 335h81v-279q0 -74 -8.5 -124.5t-32.5 -81.5t-66.5 -45t-109.5 -14v83q49 0 76.5 10.5t41 34t16 60t2.5 88.5v268zM110 569q39 53 94 53q37 0 58 -23.5t21 -65.5v-68h-260v42h47v207h40v-145zM244 507v19q0 21 -9.5 37t-36.5 16q-28 0 -51.5 -21.5t-34.5 -50.5h132z " horiz-adv-x="293"/>
<glyph glyph-name="uni0698" unicode="ژ" arabic-form="isolated" d="M142 335h81v-279q0 -74 -8.5 -124.5t-32.5 -81.5t-66.5 -45t-109.5 -14v83q49 0 76.5 10.5t41 34t16 60t2.5 88.5v268zM131 614q0 22 15.5 37.5t37.5 15.5t37.5 -15.5t15.5 -37.5t-15.5 -37.5t-37.5 -15.5t-37.5 15.5t-15.5 37.5zM194 494q0 22 15.5 37.5t37.5 15.5 t37.5 -15.5t15.5 -37.5t-15.5 -37.5t-37.5 -15.5t-37.5 15.5t-15.5 37.5zM64 494q0 22 15.5 37.5t37.5 15.5t37.5 -15.5t15.5 -37.5t-15.5 -37.5t-37.5 -15.5t-37.5 15.5t-15.5 37.5z" horiz-adv-x="293"/>
<glyph glyph-name="uni06A4" unicode="ڤ" arabic-form="isolated" d="M590 83q-11 21 -19 46.5t-8 58.5q0 39 13 77t38 67.5t61.5 48t84.5 18.5q55 0 90 -20t55.5 -51t28.5 -68.5t8 -73.5v-186h-740q-58 0 -96.5 8t-62 25.5t-33.5 45t-10 67.5v155h82v-125q0 -31 7.5 -49.5t25.5 -28t49 -12.5t79 -3h347zM641 201q0 -61 36 -89.5t88 -28.5h96 v100q0 24 -4.5 48.5t-16.5 44t-33 32t-53 12.5q-53 0 -83 -35t-30 -84zM693 673q0 22 15.5 37.5t37.5 15.5t37.5 -15.5t15.5 -37.5t-15.5 -37.5t-37.5 -15.5t-37.5 15.5t-15.5 37.5zM756 553q0 22 15.5 37.5t37.5 15.5t37.5 -15.5t15.5 -37.5t-15.5 -37.5t-37.5 -15.5 t-37.5 15.5t-15.5 37.5zM626 553q0 22 15.5 37.5t37.5 15.5t37.5 -15.5t15.5 -37.5t-15.5 -37.5t-37.5 -15.5t-37.5 15.5t-15.5 37.5z" horiz-adv-x="1002"/>
<glyph glyph-name="uni06A9" unicode="ک" arabic-form="isolated" d="M202 0q-58 0 -96.5 8t-62 25.5t-33.5 45t-10 67.5v155h82v-125q0 -31 7.5 -49.5t25.5 -28t49 -12.5t79 -3h399q37 0 61.5 13t24.5 50q0 26 -24.5 59.5t-65 68t-92.5 68t-108 60.5q1 12 6 24.5t11 23t12.5 18.5t10.5 11l366 161v-81l-294 -130q70 -41 119 -80t80 -75 t44.5 -69.5t13.5 -63.5q0 -21 -6.5 -46t-24.5 -46t-51 -35t-85 -14h-438z" horiz-adv-x="884"/>
<glyph glyph-name="uni06AF" unicode="گ" arabic-form="isolated" d="M202 0q-58 0 -96.5 8t-62 25.5t-33.5 45t-10 67.5v155h82v-125q0 -31 7.5 -49.5t25.5 -28t49 -12.5t79 -3h399q37 0 61.5 13t24.5 50q0 26 -24.5 59.5t-65 68t-92.5 68t-108 60.5q1 12 6 24.5t11 23t12.5 18.5t10.5 11l366 161v-81l-294 -130q70 -41 119 -80t80 -75 t44.5 -69.5t13.5 -63.5q0 -21 -6.5 -46t-24.5 -46t-51 -35t-85 -14h-438zM455 524q0 14 5.5 29t13 27.5t16 22t14.5 12.5l340 155v-75z" horiz-adv-x="884"/>
<glyph glyph-name="uni06BA" unicode="ں" arabic-form="isolated" d="M0 273h81v-137q0 -97 49.5 -136t146.5 -39q50 0 86 7.5t59.5 26t34.5 51t11 82.5v257h81v-258q0 -66 -18.5 -113t-53.5 -77t-86 -44t-116 -14q-137 0 -206 62t-69 178v154z" horiz-adv-x="619"/>
<glyph glyph-name="uni06C0" unicode="ۀ" arabic-form="isolated" d="M0 171q0 40 13 80.5t38 73.5t60.5 53.5t80.5 20.5q39 0 72.5 -15.5t59 -45t40 -71.5t14.5 -96q0 -33 -10.5 -64.5t-34 -56t-60 -40t-87.5 -15.5q-42 0 -76 10.5t-58.5 32.5t-38 55t-13.5 78zM189 318q-25 0 -46 -11.5t-36 -30.5t-23.5 -44t-8.5 -53q0 -27 9 -46.5 t24.5 -32t36 -18t43.5 -5.5q21 0 41.5 4.5t36.5 16t26 30t10 47.5q0 33 -9.5 59t-25 45t-36 29t-42.5 10zM275 501h-183v45h45q-14 23 -14 51q0 22 7 38.5t19 27.5t27.5 17t31.5 6q17 0 29.5 -2t18.5 -7v-46q-20 9 -43 9q-24 0 -35 -14t-11 -31q0 -20 13 -34.5t39 -14.5h56 v-45z" horiz-adv-x="428"/>
<glyph glyph-name="uni06C1" unicode="ہ" arabic-form="isolated" d="M0 171q0 40 13 80.5t38 73.5t60.5 53.5t80.5 20.5q39 0 72.5 -15.5t59 -45t40 -71.5t14.5 -96q0 -33 -10.5 -64.5t-34 -56t-60 -40t-87.5 -15.5q-42 0 -76 10.5t-58.5 32.5t-38 55t-13.5 78zM189 318q-25 0 -46 -11.5t-36 -30.5t-23.5 -44t-8.5 -53q0 -27 9 -46.5 t24.5 -32t36 -18t43.5 -5.5q21 0 41.5 4.5t36.5 16t26 30t10 47.5q0 33 -9.5 59t-25 45t-36 29t-42.5 10z" horiz-adv-x="428"/>
<glyph glyph-name="uni06C2.fina" unicode="ۂ" d="M270 0q-38 0 -58 17t-33 38t-26 38t-38 17q-23 0 -37 -24t-14 -68q0 -20 3 -42h-64q-3 22 -3 45q0 36 8.5 68t24.5 55.5t38 37t48 13.5q32 0 48.5 -17.5t29.5 -38.5t29 -38.5t49 -17.5h12q40 0 40 -40q0 -25 -9.5 -34t-30.5 -9h-17zM176 294h-183v45h45q-14 23 -14 51 q0 22 7 38.5t19 27.5t27.5 17t31.5 6q17 0 29.5 -2t18.5 -7v-46q-20 9 -43 9q-24 0 -35 -14t-11 -31q0 -20 13 -34.5t39 -14.5h56v-45z" horiz-adv-x="287"/>
<glyph glyph-name="uni06C3.fina" unicode="ۃ" d="M187 82q-24 0 -55.5 7t-60 25.5t-48.5 52t-20 87.5t19 90.5t49 59.5t66.5 33t72.5 10h159v-287q0 -42 13 -59.5t58 -17.5h24q40 0 40 -40q0 -25 -9.5 -34t-30.5 -9h-34q-26 0 -49.5 4.5t-42 16t-31.5 30.5t-17 49q-22 -8 -49.5 -13t-53.5 -5zM83 261q0 -42 26.5 -68 t84.5 -26q22 0 47.5 5t45.5 13v178h-88q-48 0 -82 -24.5t-34 -77.5zM235 629q0 22 15.5 37.5t37.5 15.5t37.5 -15.5t15.5 -37.5t-15.5 -37.5t-37.5 -15.5t-37.5 15.5t-15.5 37.5zM105 629q0 22 15.5 37.5t37.5 15.5t37.5 -15.5t15.5 -37.5t-15.5 -37.5t-37.5 -15.5 t-37.5 15.5t-15.5 37.5z" horiz-adv-x="464"/>
<glyph glyph-name="uni06CC" unicode="ی" arabic-form="isolated" d="M81 27q0 -39 12.5 -71.5t42 -56t78 -36.5t120.5 -13q52 0 99.5 7.5t84 21.5t58 34.5t21.5 46.5q0 23 -15 38.5t-57 36.5q-30 15 -55.5 30.5t-44 35.5t-29.5 44.5t-11 57.5q0 38 13.5 77t41 70.5t69 51t96.5 19.5q33 0 58.5 -7.5t29.5 -9.5v-84q-20 6 -43.5 10t-46.5 4 q-33 0 -58.5 -10.5t-42 -27.5t-25 -38t-8.5 -42q0 -20 7.5 -34.5t20.5 -26.5t30 -22t37 -21q34 -19 57 -35t36.5 -31t19.5 -30.5t6 -33.5q0 -42 -19 -81t-61 -69t-108.5 -48.5t-160.5 -18.5t-158 18.5t-103 51t-56 77t-17 97.5v149h81v-131z" horiz-adv-x="735"/>
<glyph glyph-name="uni06D2" unicode="ے" arabic-form="isolated" d="M353 380q-7 -54 -16.5 -85t-27 -48t-44.5 -25t-69 -18q-68 -16 -94.5 -35t-26.5 -43q0 -39 73.5 -52t205.5 -13q56 0 118 3.5t120 9.5t107.5 13t80.5 14v-84q-49 -11 -106.5 -18t-115.5 -12t-113 -7t-98 -2q-87 0 -152 6t-108.5 21t-65 42t-21.5 69q0 64 48.5 100.5 t128.5 56.5q30 7 48.5 13.5t29 17t15.5 28.5t9 48h74z" horiz-adv-x="805"/>
<glyph glyph-name="uni06D3" unicode="ۓ" arabic-form="isolated" d="M353 380q-7 -54 -16.5 -85t-27 -48t-44.5 -25t-69 -18q-68 -16 -94.5 -35t-26.5 -43q0 -39 73.5 -52t205.5 -13q56 0 118 3.5t120 9.5t107.5 13t80.5 14v-84q-49 -11 -106.5 -18t-115.5 -12t-113 -7t-98 -2q-87 0 -152 6t-108.5 21t-65 42t-21.5 69q0 64 48.5 100.5 t128.5 56.5q30 7 48.5 13.5t29 17t15.5 28.5t9 48h74zM224 407h-183v45h45q-14 23 -14 51q0 22 7 38.5t19 27.5t27.5 17t31.5 6q17 0 29.5 -2t18.5 -7v-46q-20 9 -43 9q-24 0 -35 -14t-11 -31q0 -20 13 -34.5t39 -14.5h56v-45z" horiz-adv-x="805"/>
<glyph glyph-name="uni06D5.fina" unicode="ە" d="M187 82q-24 0 -55.5 7t-60 25.5t-48.5 52t-20 87.5t19 90.5t49 59.5t66.5 33t72.5 10h159v-287q0 -42 13 -59.5t58 -17.5h24q40 0 40 -40q0 -25 -9.5 -34t-30.5 -9h-34q-26 0 -49.5 4.5t-42 16t-31.5 30.5t-17 49q-22 -8 -49.5 -13t-53.5 -5zM83 261q0 -42 26.5 -68 t84.5 -26q22 0 47.5 5t45.5 13v178h-88q-48 0 -82 -24.5t-34 -77.5z" horiz-adv-x="464"/>
<glyph glyph-name="uniFB51" unicode="ٱ" arabic-form="final" d="M279 43q0 -25 -9.5 -34t-30.5 -9h-26q-32 0 -58.5 6.5t-45 22.5t-29 42.5t-10.5 66.5v576h82v-554q0 -42 13 -59.5t58 -17.5h16q40 0 40 -40zM85 863q30 42 73 42q29 0 45.5 -18.5t16.5 -51.5v-53h-203v33h36v80h32v-32zM190 815v14q0 17 -7.5 29.5t-29.5 12.5 q-21 0 -40 -16.5t-27 -39.5h104z" horiz-adv-x="239"/>
<glyph glyph-name="uniFB57" unicode="پ" arabic-form="final" d="M895 0q-39 0 -63 18.5t-32 46.5q-9 -21 -24 -33.5t-37.5 -19.5t-54.5 -9.5t-75 -2.5h-407q-58 0 -96.5 8t-62 25.5t-33.5 45t-10 67.5v155h82v-125q0 -31 7.5 -49.5t25.5 -28t49 -12.5t79 -3h365q33 0 56 2t36.5 9.5t19.5 22t6 39.5v229h82v-192q0 -25 3.5 -45.5 t13.5 -34.5t27 -22t43 -8q40 0 40 -40q0 -25 -9.5 -34t-30.5 -9zM459 -271q0 -22 -15.5 -37.5t-37.5 -15.5t-37.5 15.5t-15.5 37.5t15.5 37.5t37.5 15.5t37.5 -15.5t15.5 -37.5zM396 -151q0 -22 -15.5 -37.5t-37.5 -15.5t-37.5 15.5t-15.5 37.5t15.5 37.5t37.5 15.5 t37.5 -15.5t15.5 -37.5zM526 -151q0 -22 -15.5 -37.5t-37.5 -15.5t-37.5 15.5t-15.5 37.5t15.5 37.5t37.5 15.5t37.5 -15.5t15.5 -37.5z" horiz-adv-x="895"/>
<glyph glyph-name="uniFB58" unicode="پ" arabic-form="initial" d="M0 0q-40 0 -40 40q0 25 9.5 34t30.5 9h156v302h82v-385h-238zM189 -271q0 -22 -15.5 -37.5t-37.5 -15.5t-37.5 15.5t-15.5 37.5t15.5 37.5t37.5 15.5t37.5 -15.5t15.5 -37.5zM126 -151q0 -22 -15.5 -37.5t-37.5 -15.5t-37.5 15.5t-15.5 37.5t15.5 37.5t37.5 15.5 t37.5 -15.5t15.5 -37.5zM256 -151q0 -22 -15.5 -37.5t-37.5 -15.5t-37.5 15.5t-15.5 37.5t15.5 37.5t37.5 15.5t37.5 -15.5t15.5 -37.5z" horiz-adv-x="308"/>
<glyph glyph-name="uniFB59" unicode="پ" arabic-form="medial" d="M0 0q-40 0 -40 40q0 25 9.5 34t30.5 9h67q24 0 41 2t28.5 9.5t17 22t5.5 39.5v229h82v-192q0 -25 3.5 -45.5t13.5 -34.5t27 -22t43 -8q40 0 40 -40q0 -25 -9.5 -34t-30.5 -9q-39 0 -63 18.5t-32 46.5q-18 -41 -56.5 -53t-94.5 -12h-82zM218 -271q0 -22 -15.5 -37.5 t-37.5 -15.5t-37.5 15.5t-15.5 37.5t15.5 37.5t37.5 15.5t37.5 -15.5t15.5 -37.5zM155 -151q0 -22 -15.5 -37.5t-37.5 -15.5t-37.5 15.5t-15.5 37.5t15.5 37.5t37.5 15.5t37.5 -15.5t15.5 -37.5zM285 -151q0 -22 -15.5 -37.5t-37.5 -15.5t-37.5 15.5t-15.5 37.5t15.5 37.5 t37.5 15.5t37.5 -15.5t15.5 -37.5z" horiz-adv-x="328"/>
<glyph glyph-name="uniFB67" unicode="ٹ" arabic-form="final" d="M895 0q-39 0 -63 18.5t-32 46.5q-9 -21 -24 -33.5t-37.5 -19.5t-54.5 -9.5t-75 -2.5h-407q-58 0 -96.5 8t-62 25.5t-33.5 45t-10 67.5v155h82v-125q0 -31 7.5 -49.5t25.5 -28t49 -12.5t79 -3h365q33 0 56 2t36.5 9.5t19.5 22t6 39.5v229h82v-192q0 -25 3.5 -45.5 t13.5 -34.5t27 -22t43 -8q40 0 40 -40q0 -25 -9.5 -34t-30.5 -9zM370 509q39 53 94 53q37 0 58 -23.5t21 -65.5v-68h-260v42h47v207h40v-145zM504 447v19q0 21 -9.5 37t-36.5 16q-28 0 -51.5 -21.5t-34.5 -50.5h132z" horiz-adv-x="895"/>
<glyph glyph-name="uniFB68" unicode="ٹ" arabic-form="initial" d="M0 0q-40 0 -40 40q0 25 9.5 34t30.5 9h156v302h82v-385h-238zM120 569q39 53 94 53q37 0 58 -23.5t21 -65.5v-68h-260v42h47v207h40v-145zM254 507v19q0 21 -9.5 37t-36.5 16q-28 0 -51.5 -21.5t-34.5 -50.5h132z" horiz-adv-x="308"/>
<glyph glyph-name="uniFB69" unicode="ٹ" arabic-form="medial" d="M0 0q-40 0 -40 40q0 25 9.5 34t30.5 9h67q24 0 41 2t28.5 9.5t17 22t5.5 39.5v229h82v-192q0 -25 3.5 -45.5t13.5 -34.5t27 -22t43 -8q40 0 40 -40q0 -25 -9.5 -34t-30.5 -9q-39 0 -63 18.5t-32 46.5q-18 -41 -56.5 -53t-94.5 -12h-82zM126 569q39 53 94 53 q37 0 58 -23.5t21 -65.5v-68h-260v42h47v207h40v-145zM260 507v19q0 21 -9.5 37t-36.5 16q-28 0 -51.5 -21.5t-34.5 -50.5h132z" horiz-adv-x="328"/>
<glyph glyph-name="uniFB6B" unicode="ڤ" arabic-form="final" d="M641 201q0 -61 36 -89.5t88 -28.5h96v100q0 24 -4.5 48.5t-16.5 44t-33 32t-53 12.5q-53 0 -83 -35t-30 -84zM202 0q-58 0 -96.5 8t-62 25.5t-33.5 45t-10 67.5v155h82v-125q0 -31 7.5 -49.5t25.5 -28t49 -12.5t79 -3h347q-11 21 -19 46.5t-8 58.5q0 39 13 77t38 67.5 t61.5 48t84.5 18.5q55 0 90 -20t55.5 -51t28.5 -68.5t8 -73.5v-103h76q40 0 40 -40q0 -25 -9.5 -34t-30.5 -9h-816zM694 673q0 22 15.5 37.5t37.5 15.5t37.5 -15.5t15.5 -37.5t-15.5 -37.5t-37.5 -15.5t-37.5 15.5t-15.5 37.5zM757 553q0 22 15.5 37.5t37.5 15.5t37.5 -15.5 t15.5 -37.5t-15.5 -37.5t-37.5 -15.5t-37.5 15.5t-15.5 37.5zM627 553q0 22 15.5 37.5t37.5 15.5t37.5 -15.5t15.5 -37.5t-15.5 -37.5t-37.5 -15.5t-37.5 15.5t-15.5 37.5z" horiz-adv-x="1018"/>
<glyph glyph-name="uniFB6C" unicode="ڤ" arabic-form="initial" d="M241 673q0 22 15.5 37.5t37.5 15.5t37.5 -15.5t15.5 -37.5t-15.5 -37.5t-37.5 -15.5t-37.5 15.5t-15.5 37.5zM304 553q0 22 15.5 37.5t37.5 15.5t37.5 -15.5t15.5 -37.5t-15.5 -37.5t-37.5 -15.5t-37.5 15.5t-15.5 37.5zM174 553q0 22 15.5 37.5t37.5 15.5t37.5 -15.5 t15.5 -37.5t-15.5 -37.5t-37.5 -15.5t-37.5 15.5t-15.5 37.5zM11 0q-40 0 -40 40q0 25 9.5 34t30.5 9h114q-11 21 -19 46.5t-8 58.5q0 39 13 77t38 67.5t61.5 48t84.5 18.5q55 0 90 -20t55.5 -51t28.5 -68.5t8 -73.5v-186h-466zM176 201q0 -61 36 -89.5t88 -28.5h96v100 q0 24 -4.5 48.5t-16.5 44t-33 32t-53 12.5q-53 0 -83 -35t-30 -84z" horiz-adv-x="515"/>
<glyph glyph-name="uniFB6D" unicode="ڤ" arabic-form="medial" d="M223 673q0 22 15.5 37.5t37.5 15.5t37.5 -15.5t15.5 -37.5t-15.5 -37.5t-37.5 -15.5t-37.5 15.5t-15.5 37.5zM286 553q0 22 15.5 37.5t37.5 15.5t37.5 -15.5t15.5 -37.5t-15.5 -37.5t-37.5 -15.5t-37.5 15.5t-15.5 37.5zM156 553q0 22 15.5 37.5t37.5 15.5t37.5 -15.5 t15.5 -37.5t-15.5 -37.5t-37.5 -15.5t-37.5 15.5t-15.5 37.5zM163 201q0 -61 36 -89.5t88 -28.5h96v100q0 24 -4.5 48.5t-16.5 44t-33 32t-53 12.5q-53 0 -83 -35t-30 -84zM-2 0q-40 0 -40 40q0 25 9.5 34t30.5 9h114q-11 21 -19 46.5t-8 58.5q0 39 13 77t38 67.5t61.5 48 t84.5 18.5q55 0 90 -20t55.5 -51t28.5 -68.5t8 -73.5v-103h76q40 0 40 -40q0 -25 -9.5 -34t-30.5 -9h-542z" horiz-adv-x="494"/>
<glyph glyph-name="uniFB7B" unicode="چ" arabic-form="final" d="M274 0q-32 0 -65 -6.5t-60.5 -23t-45 -46t-17.5 -75.5q0 -43 15.5 -74t42.5 -51t63 -29.5t76 -9.5q41 0 84 6.5t101 33.5l33 -63q-28 -20 -59.5 -32t-60.5 -18.5t-54 -9t-41 -2.5q-64 0 -116.5 15t-90 45t-58.5 75t-21 105q0 72 25 119t64.5 74.5t88.5 38.5t97 11h213 q0 64 -17 108t-46 71.5t-67.5 40t-82.5 12.5q-29 0 -61.5 -5.5t-53.5 -11.5v80q20 6 53 13.5t72 7.5q75 0 129 -25t89.5 -68.5t52.5 -101t18 -121.5h63q40 0 40 -40q0 -25 -9.5 -34t-30.5 -9h-363zM361 -225q0 -22 -15.5 -37.5t-37.5 -15.5t-37.5 15.5t-15.5 37.5t15.5 37.5 t37.5 15.5t37.5 -15.5t15.5 -37.5zM298 -105q0 -22 -15.5 -37.5t-37.5 -15.5t-37.5 15.5t-15.5 37.5t15.5 37.5t37.5 15.5t37.5 -15.5t15.5 -37.5zM428 -105q0 -22 -15.5 -37.5t-37.5 -15.5t-37.5 15.5t-15.5 37.5t15.5 37.5t37.5 15.5t37.5 -15.5t15.5 -37.5z" horiz-adv-x="637"/>
<glyph glyph-name="uniFB7C" unicode="چ" arabic-form="initial" d="M401 83q0 64 -17 108t-46 71.5t-67.5 40t-82.5 12.5q-29 0 -61.5 -5.5t-53.5 -11.5v80q20 6 53 13.5t72 7.5q76 0 131 -26t90 -70.5t51.5 -104t16.5 -125.5v-73h-487q-40 0 -40 40q0 25 9.5 34t30.5 9h401zM268 -271q0 -22 -15.5 -37.5t-37.5 -15.5t-37.5 15.5 t-15.5 37.5t15.5 37.5t37.5 15.5t37.5 -15.5t15.5 -37.5zM205 -151q0 -22 -15.5 -37.5t-37.5 -15.5t-37.5 15.5t-15.5 37.5t15.5 37.5t37.5 15.5t37.5 -15.5t15.5 -37.5zM335 -151q0 -22 -15.5 -37.5t-37.5 -15.5t-37.5 15.5t-15.5 37.5t15.5 37.5t37.5 15.5t37.5 -15.5 t15.5 -37.5z" horiz-adv-x="537"/>
<glyph glyph-name="uniFB7D" unicode="چ" arabic-form="medial" d="M0 0q-40 0 -40 40q0 25 9.5 34t30.5 9h401q0 64 -17 108t-46 71.5t-67.5 40t-82.5 12.5q-29 0 -61.5 -5.5t-53.5 -11.5v80q20 6 53 13.5t72 7.5q75 0 129 -25t89.5 -68.5t52.5 -101t18 -121.5h62q40 0 40 -40q0 -25 -9.5 -34t-30.5 -9h-549zM268 -271q0 -22 -15.5 -37.5 t-37.5 -15.5t-37.5 15.5t-15.5 37.5t15.5 37.5t37.5 15.5t37.5 -15.5t15.5 -37.5zM205 -151q0 -22 -15.5 -37.5t-37.5 -15.5t-37.5 15.5t-15.5 37.5t15.5 37.5t37.5 15.5t37.5 -15.5t15.5 -37.5zM335 -151q0 -22 -15.5 -37.5t-37.5 -15.5t-37.5 15.5t-15.5 37.5t15.5 37.5 t37.5 15.5t37.5 -15.5t15.5 -37.5z" horiz-adv-x="550"/>
<glyph glyph-name="uniFB89" unicode="ڈ" arabic-form="final" d="M468 0q-41 0 -69 17t-56 61q-11 -27 -28.5 -43t-39 -23.5t-45.5 -9.5t-48 -2h-152v83h179q42 0 64.5 10.5t22.5 30.5q0 19 -10 38t-25 41l-106 157l77 48l120 -199q20 -33 35 -57t28.5 -39t26 -22.5t26.5 -7.5q40 0 40 -40q0 -25 -9.5 -34t-30.5 -9zM193 602q39 53 94 53 q37 0 58 -23.5t21 -65.5v-68h-260v42h47v207h40v-145zM327 540v19q0 21 -9.5 37t-36.5 16q-28 0 -51.5 -21.5t-34.5 -50.5h132z" horiz-adv-x="468"/>
<glyph glyph-name="uniFB8B" unicode="ژ" arabic-form="final" d="M311 0q-33 0 -55 15t-33 35q0 -72 -9 -121.5t-32.5 -80t-65.5 -44t-109 -13.5v83q49 0 76.5 10.5t41 34t16 60t2.5 88.5v268h81v-142q0 -51 18.5 -80.5t68.5 -29.5q40 0 40 -40q0 -25 -9.5 -34t-30.5 -9zM131 614q0 22 15.5 37.5t37.5 15.5t37.5 -15.5t15.5 -37.5 t-15.5 -37.5t-37.5 -15.5t-37.5 15.5t-15.5 37.5zM194 494q0 22 15.5 37.5t37.5 15.5t37.5 -15.5t15.5 -37.5t-15.5 -37.5t-37.5 -15.5t-37.5 15.5t-15.5 37.5zM64 494q0 22 15.5 37.5t37.5 15.5t37.5 -15.5t15.5 -37.5t-15.5 -37.5t-37.5 -15.5t-37.5 15.5t-15.5 37.5z" horiz-adv-x="311"/>
<glyph glyph-name="uniFB8D" unicode="ڑ" arabic-form="final" d="M311 0q-33 0 -55 15t-33 35q0 -72 -9 -121.5t-32.5 -80t-65.5 -44t-109 -13.5v83q49 0 76.5 10.5t41 34t16 60t2.5 88.5v268h81v-142q0 -51 18.5 -80.5t68.5 -29.5q40 0 40 -40q0 -25 -9.5 -34t-30.5 -9zM110 569q39 53 94 53q37 0 58 -23.5t21 -65.5v-68h-260v42h47v207 h40v-145zM244 507v19q0 21 -9.5 37t-36.5 16q-28 0 -51.5 -21.5t-34.5 -50.5h132z" horiz-adv-x="333"/>
<glyph glyph-name="uniFB8F" unicode="ک" arabic-form="final" d="M909 0q-20 0 -38 2.5t-33.5 10.5t-28.5 23.5t-25 41.5h-4q-19 -47 -64 -62.5t-110 -15.5h-404q-58 0 -96.5 8t-62 25.5t-33.5 45t-10 67.5v155h82v-125q0 -31 7.5 -49.5t25.5 -28t49 -12.5t79 -3h381q55 0 79 17.5t24 46.5q0 27 -22 60.5t-61 68.5t-91.5 68t-113.5 60 q1 12 4.5 25t8 24t9 18.5t9.5 9.5l374 161v-83l-294 -130q106 -53 168.5 -114.5t83.5 -122.5q12 -35 23 -56t23 -33t27 -16t34 -4q40 0 40 -40q0 -25 -9.5 -34t-30.5 -9z" horiz-adv-x="909"/>
<glyph glyph-name="uniFB90" unicode="ک" arabic-form="initial" d="M0 0q-40 0 -40 40q0 25 9.5 34t30.5 9h239q37 0 61.5 13t24.5 50q0 26 -24.5 59.5t-65 68t-92.5 68t-108 60.5q1 12 6 24.5t11 23t12.5 18.5t10.5 11l366 161v-81l-294 -130q70 -41 119 -80t80 -75t44.5 -69.5t13.5 -63.5q0 -21 -6.5 -46t-24.5 -46t-51 -35t-85 -14h-237 z" horiz-adv-x="481"/>
<glyph glyph-name="uniFB91" unicode="ک" arabic-form="medial" d="M0 0q-40 0 -40 40q0 25 9.5 34t30.5 9h224q55 0 79 17.5t24 46.5q0 27 -22 60.5t-61 68.5t-91.5 68t-113.5 60q1 12 4.5 25t8 24t9 18.5t9.5 9.5l374 161v-83l-294 -130q106 -53 168.5 -114.5t83.5 -122.5q12 -35 23 -56t23 -33t27 -16t34 -4q40 0 40 -40q0 -25 -9.5 -34 t-30.5 -9q-20 0 -38 2.5t-33.5 10.5t-28.5 23.5t-25 41.5h-4q-19 -47 -64 -62.5t-110 -15.5h-206z" horiz-adv-x="509"/>
<glyph glyph-name="uniFB93" unicode="گ" arabic-form="final" d="M909 0q-20 0 -38 2.5t-33.5 10.5t-28.5 23.5t-25 41.5h-4q-19 -47 -64 -62.5t-110 -15.5h-404q-58 0 -96.5 8t-62 25.5t-33.5 45t-10 67.5v155h82v-125q0 -31 7.5 -49.5t25.5 -28t49 -12.5t79 -3h381q55 0 79 17.5t24 46.5q0 27 -22 60.5t-61 68.5t-91.5 68t-113.5 60 q1 12 4.5 25t8 24t9 18.5t9.5 9.5l374 161v-83l-294 -130q106 -53 168.5 -114.5t83.5 -122.5q12 -35 23 -56t23 -33t27 -16t34 -4q40 0 40 -40q0 -25 -9.5 -34t-30.5 -9zM456 524q0 14 5.5 29t13 27.5t16 22t14.5 12.5l340 155v-75z" horiz-adv-x="909"/>
<glyph glyph-name="uniFB94" unicode="گ" arabic-form="initial" d="M0 0q-40 0 -40 40q0 25 9.5 34t30.5 9h239q37 0 61.5 13t24.5 50q0 26 -24.5 59.5t-65 68t-92.5 68t-108 60.5q1 12 6 24.5t11 23t12.5 18.5t10.5 11l366 161v-81l-294 -130q70 -41 119 -80t80 -75t44.5 -69.5t13.5 -63.5q0 -21 -6.5 -46t-24.5 -46t-51 -35t-85 -14h-237 zM53 524q0 14 5.5 29t13 27.5t16 22t14.5 12.5l340 155v-75z" horiz-adv-x="481"/>
<glyph glyph-name="uniFB95" unicode="گ" arabic-form="medial" d="M0 0q-40 0 -40 40q0 25 9.5 34t30.5 9h224q55 0 79 17.5t24 46.5q0 27 -22 60.5t-61 68.5t-91.5 68t-113.5 60q1 12 4.5 25t8 24t9 18.5t9.5 9.5l374 161v-83l-294 -130q106 -53 168.5 -114.5t83.5 -122.5q12 -35 23 -56t23 -33t27 -16t34 -4q40 0 40 -40q0 -25 -9.5 -34 t-30.5 -9q-20 0 -38 2.5t-33.5 10.5t-28.5 23.5t-25 41.5h-4q-19 -47 -64 -62.5t-110 -15.5h-206zM55 524q0 14 5.5 29t13 27.5t16 22t14.5 12.5l340 155v-75z" horiz-adv-x="509"/>
<glyph glyph-name="uniFB9F" unicode="ں" arabic-form="final" d="M636 0q-35 0 -55.5 14.5t-31.5 34.5v-37q0 -66 -18.5 -113t-53.5 -77t-86 -44t-116 -14q-137 0 -206 62t-69 178v154h81v-137q0 -97 49.5 -136t146.5 -39q50 0 86 7.5t59.5 26t34.5 51t11 82.5v257h81v-77q0 -25 3 -45.5t12.5 -34.5t26.5 -22t45 -8q40 0 40 -40 q0 -25 -9.5 -34t-30.5 -9z" horiz-adv-x="636"/>
<glyph glyph-name="uniFBA7" unicode="ہ" arabic-form="final" d="M270 0q-38 0 -58 17t-33 38t-26 38t-38 17q-23 0 -37 -24t-14 -68q0 -20 3 -42h-64q-3 22 -3 45q0 36 8.5 68t24.5 55.5t38 37t48 13.5q32 0 48.5 -17.5t29.5 -38.5t29 -38.5t49 -17.5h12q40 0 40 -40q0 -25 -9.5 -34t-30.5 -9h-17z" horiz-adv-x="287"/>
<glyph glyph-name="uniFBA8" unicode="ہ" arabic-form="initial" d="M182 0q-18 -26 -26.5 -46t-8.5 -40q0 -17 8 -28t25 -11q6 0 13 1.5t16 3.5q-5 -35 -24 -50t-40 -15q-37 0 -54 22.5t-17 54.5q0 26 10.5 55t29.5 53h-114q-40 0 -40 40q0 25 9.5 34t30.5 9h156v302h82v-385h-56z" horiz-adv-x="308"/>
<glyph glyph-name="uniFBA9" unicode="ہ" arabic-form="medial" d="M0 0q-40 0 -40 40q0 25 9.5 34t30.5 9h214q-13 -41 -27 -84.5t-14 -75.5q0 -11 2 -24t7.5 -25t15.5 -23t27 -18q32 125 81 187.5t125 62.5h30q40 0 40 -40q0 -25 -9.5 -34t-30.5 -9h-33q-35 0 -58.5 -21.5t-41.5 -60t-31.5 -90.5t-28.5 -112q-83 31 -128 73t-45 111 q0 11 2.5 36t17.5 60v4h-115z" horiz-adv-x="461"/>
<glyph glyph-name="uniFBAB" unicode="ھ" arabic-form="final" d="M221 0v-19q0 -32 3.5 -59t14.5 -47t30.5 -31.5t51.5 -11.5q42 0 62.5 21t20.5 58q0 9 -3 24.5t-14.5 29.5t-33 24.5t-58.5 10.5h-74zM221 83h45q38 0 64.5 14.5t42.5 36t23 46t7 44.5q0 48 -24 70.5t-56 22.5q-49 0 -75.5 -43.5t-26.5 -124.5v-66zM441 0v-4 q25 -24 31.5 -50t6.5 -45q0 -29 -10 -56t-29.5 -47t-49 -32t-68.5 -12q-52 0 -87 16.5t-56.5 47t-30.5 74t-9 97.5v11h-32q-20 0 -30.5 -4.5t-15.5 -12.5t-6 -19.5t-1 -25.5h-39q-8 20 -11.5 40t-3.5 33q0 23 8 37.5t20.5 22t27.5 10t29 2.5h54v58q0 123 49 190t136 67 q44 0 74 -16t48.5 -40t26.5 -52t8 -52q0 -55 -21.5 -91.5t-49.5 -59.5v-4h145q40 0 40 -40q0 -25 -9.5 -34t-30.5 -9h-114z" horiz-adv-x="554"/>
<glyph glyph-name="uniFBAC" unicode="ھ" arabic-form="initial" d="M528 83q0 107 -43.5 165t-118.5 81q17 -13 28 -30.5t18 -36t9.5 -37t2.5 -34.5q0 -38 -7 -64.5t-16 -43.5h127zM281 83q21 0 35 10.5t22 26t11 34t3 34.5q0 22 -4 42.5t-13 36.5t-23 25t-34 9q-35 0 -54.5 -32t-19.5 -83q0 -18 3.5 -36t12 -32.5t22 -24t34.5 -10.5h5z M0 0q-40 0 -40 40q0 25 9.5 34t30.5 9h159q-10 14 -19 40t-9 64q0 25 6 50.5t18 47t30.5 38t43.5 25.5q-20 0 -40 -0.5t-41 -1.5v75q30 2 58 2q76 0 138 -12q86 -16 145.5 -57.5t91 -111t31.5 -169.5v-73h-612z" horiz-adv-x="662"/>
<glyph glyph-name="uniFBAD" unicode="ھ" arabic-form="medial" d="M189 0v-19q0 -32 3.5 -59t14.5 -47t30.5 -31.5t51.5 -11.5q42 0 62.5 21t20.5 58q0 9 -3 24.5t-14.5 29.5t-33 24.5t-58.5 10.5h-74zM189 83h45q38 0 64.5 14.5t42.5 36t23 46t7 44.5q0 48 -24 70.5t-56 22.5q-49 0 -75.5 -43.5t-26.5 -124.5v-66zM409 0v-4 q25 -24 31.5 -50t6.5 -45q0 -29 -10 -56t-29.5 -47t-49 -32t-68.5 -12q-52 0 -87 16.5t-56.5 47t-30.5 74t-9 97.5v11h-107q-40 0 -40 40q0 25 9.5 34t30.5 9h107v58q0 123 49 190t136 67q44 0 74 -16t48.5 -40t26.5 -52t8 -52q0 -55 -21.5 -91.5t-49.5 -59.5v-4h145 q40 0 40 -40q0 -25 -9.5 -34t-30.5 -9h-114z" horiz-adv-x="522"/>
<glyph glyph-name="uniFBAF" unicode="ے" arabic-form="final" d="M239 0q-87 0 -126 -19t-39 -47q0 -19 13.5 -33t44 -23t80.5 -13t123 -4q60 0 133.5 8t158.5 20v-79q-83 -13 -157.5 -21.5t-150.5 -8.5q-107 0 -170.5 11.5t-96.5 31.5t-42.5 47t-9.5 59q0 67 62.5 110.5t187.5 43.5h200q40 0 40 -40q0 -25 -9.5 -34t-30.5 -9h-211z" horiz-adv-x="450"/>
<glyph glyph-name="uniFBB1" unicode="ۓ" arabic-form="final" d="M239 0q-87 0 -126 -19t-39 -47q0 -19 13.5 -33t44 -23t80.5 -13t123 -4q60 0 133.5 8t158.5 20v-79q-83 -13 -157.5 -21.5t-150.5 -8.5q-107 0 -170.5 11.5t-96.5 31.5t-42.5 47t-9.5 59q0 67 62.5 110.5t187.5 43.5h200q40 0 40 -40q0 -25 -9.5 -34t-30.5 -9h-211z M216 177h-183v45h45q-14 23 -14 51q0 22 7 38.5t19 27.5t27.5 17t31.5 6q17 0 29.5 -2t18.5 -7v-46q-20 9 -43 9q-24 0 -35 -14t-11 -31q0 -20 13 -34.5t39 -14.5h56v-45z" horiz-adv-x="450"/>
<glyph glyph-name="uniFBE8" unicode="ى" arabic-form="initial" d="M0 0q-40 0 -40 40q0 25 9.5 34t30.5 9h156v302h82v-385h-238z" horiz-adv-x="308"/>
<glyph glyph-name="uniFBE9" unicode="ى" arabic-form="medial" d="M0 0q-40 0 -40 40q0 25 9.5 34t30.5 9h67q24 0 41 2t28.5 9.5t17 22t5.5 39.5v229h82v-192q0 -25 3.5 -45.5t13.5 -34.5t27 -22t43 -8q40 0 40 -40q0 -25 -9.5 -34t-30.5 -9q-39 0 -63 18.5t-32 46.5q-18 -41 -56.5 -53t-94.5 -12h-82z" horiz-adv-x="328"/>
<glyph glyph-name="uniFBFD" unicode="ی" arabic-form="final" d="M641 0q11 -12 19 -33.5t8 -41.5q0 -30 -17.5 -59t-56.5 -51.5t-101.5 -36t-153.5 -13.5q-101 0 -166.5 18.5t-104 50.5t-53.5 75.5t-15 94.5v154h81v-139q0 -89 61 -130.5t199 -41.5q51 0 97 5.5t80.5 16t54.5 26.5t20 37q0 23 -23.5 41t-58 31.5t-73.5 24.5t-69 20v81 q127 -47 241 -47h101q40 0 40 -40q0 -25 -9.5 -34t-30.5 -9h-70z" horiz-adv-x="710"/>
<glyph glyph-name="uniFBFE" unicode="ی" arabic-form="initial" d="M0 0q-40 0 -40 40q0 25 9.5 34t30.5 9h156v302h82v-385h-238zM170 -151q0 22 15.5 37.5t37.5 15.5t37.5 -15.5t15.5 -37.5t-15.5 -37.5t-37.5 -15.5t-37.5 15.5t-15.5 37.5zM40 -151q0 22 15.5 37.5t37.5 15.5t37.5 -15.5t15.5 -37.5t-15.5 -37.5t-37.5 -15.5t-37.5 15.5 t-15.5 37.5z" horiz-adv-x="308"/>
<glyph glyph-name="uniFBFF" unicode="ی" arabic-form="medial" d="M0 0q-40 0 -40 40q0 25 9.5 34t30.5 9h67q24 0 41 2t28.5 9.5t17 22t5.5 39.5v229h82v-192q0 -25 3.5 -45.5t13.5 -34.5t27 -22t43 -8q40 0 40 -40q0 -25 -9.5 -34t-30.5 -9q-39 0 -63 18.5t-32 46.5q-18 -41 -56.5 -53t-94.5 -12h-82zM209 -151q0 22 15.5 37.5 t37.5 15.5t37.5 -15.5t15.5 -37.5t-15.5 -37.5t-37.5 -15.5t-37.5 15.5t-15.5 37.5zM79 -151q0 22 15.5 37.5t37.5 15.5t37.5 -15.5t15.5 -37.5t-15.5 -37.5t-37.5 -15.5t-37.5 15.5t-15.5 37.5z" horiz-adv-x="328"/>
<glyph glyph-name="uniFDF2" unicode="ﷲ" arabic-form="isolated" d="M1258 714v-714h-82v714h82zM82 233q0 -17 7 -31.5t23 -25.5t42 -17t64 -6q10 0 31 1.5t37 4.5v196q-46 -2 -83.5 -10.5t-64.5 -24t-41.5 -37.5t-14.5 -50zM429 0q-51 0 -87 17.5t-50 65.5q-22 -3 -48 -4.5t-43 -1.5q-92 0 -146.5 40t-54.5 108q0 51 24.5 89t64.5 63.5 t91.5 38.5t105.5 13v58h82v-327q0 -42 13 -59.5t58 -17.5h97q18 0 32 2t23.5 9.5t15 22t5.5 39.5v558h82v-521q0 -50 19.5 -80t61.5 -30h162v631h82v-714h-244q-37 0 -59 19t-30 46q-18 -41 -57.5 -53t-101.5 -12h-98z" horiz-adv-x="1328"/>
<glyph glyph-name="uniFDFA" unicode="ﷺ" arabic-form="isolated" d="M979 10q-6 32 -26 32q-15 0 -20 -25q4 -18 31 -18q13 0 15 11zM214 -38q-4 20 -24 34q-18 14 -34 14q-14 0 -14 -12q0 -13 26 -27q24 -15 39 -15q8 0 7 6zM189 487q-20 -9 -41 -17q-33 -15 -34 -24q-1 -11 25 -11q28 0 51 13zM324 665q0 -32 -21 -32q-13 0 -21 8 q-18 -15 -30 -15q-21 0 -21 27q0 20 3 27l6 6v-7q0 -30 17 -30q11 0 19 16l-2 23l9 14l4 -30q2 -16 15 -16t11 15l-3 22l7 10q7 -19 7 -38zM169 263q-88 -35 -88 -52q0 -10 31 -10q33 0 59 24zM815 705l-6 -22l-195 -96l4 25zM632 -121q0 -23 -2 -30q-6 -13 -25 -13 q-9 0 -14 4q-15 -16 -30 -16q-8 0 -16.5 8.5t-12.5 8.5q-8 0 -37 -17.5t-70 -17.5q-44 0 -44 8q0 7 32 7q35 0 46 2q14 3 35 16q30 19 40 19q8 0 19 -8t13 -8q15 0 18 17q2 13 11 13q4 0 4 -6q0 -4 -1 -9q2 -4 11 -6q12 0 12 12q0 16 11 16zM989 420q0 7 -17.5 16t-26.5 9 q-21 0 -60 -24q-31 -19 -47 -34q6 -1 20 -1q41 0 82 8q49 10 49 26zM602 37l-26 -31l-48 35l-28 -36l-50 36l29 35l47 -35l27 33zM476 447q-3 -66 -13 -73l-25 242l22 57zM970 639q-35 -12 -116 -51q-96 -47 -96 -61q0 -12 26 -25l-9 -24q-33 11 -33 40q0 30 26 44 q127 73 211 102zM1008 2q0 -49 -39 -108q-42 -64 -89 -64q-22 0 -59 16t-37 23q0 4 5 4q4 0 27 -7.5t35 -7.5h2q67 0 138 106l-7 22q-18 -26 -37 -26q-14 0 -25 13.5t-11 30.5q0 22 16 52t27 30q13 0 32 -24q22 -27 22 -60zM1017 437q0 -14 -15.5 -38.5t-31.5 -31.5 q-46 -21 -116 -21q-23 0 -48 2q-24 -47 -38 -47q-4 0 -4 6q0 15 22 47q-42 16 -48 26q-39 -26 -50 -26q7 -140 25 -176t84 -40l2 2q-21 16 -21 43q0 34 32 76q24 32 61 32q29 0 53 -17q24 -16 24 -31q-25 9 -52 9q-36 0 -65 -14q-26 -14 -26 -27q0 -14 25 -39t44 -29 q18 2 68 18t67 25l-17 -37q-101 -53 -191 -53q-96 0 -119 73q-30 -65 -57 -65q-26 0 -67 44q-64 -56 -197 -56q-40 0 -70 5q4 -33 9 -52q9 -36 23 -50q44 -44 176 -44q114 0 165 32q15 37 28 37q4 0 4 -8q0 -14 -12 -44q6 -13 27 -13q26 0 49 12q21 66 33 66q4 0 4 -11 q0 -18 -10 -43q31 -13 44 -13q8 0 8 4q0 6 -8 38l17 36q12 -36 12 -52q0 -67 -44 -67q-23 0 -48 19q-15 -26 -59 -26q-48 0 -48 26q-19 -14 -64 -24q-51 -11 -121 -11q-97 0 -143 28q-58 35 -60 126l-22 -32q-17 -25 -26 -26q12 -21 12 -41q0 -25 -16 -42q-8 -8 -21 -8 q-20 0 -61 23q-13 -31 -42 -47q-7 -4 -23.5 -4.5t-21.5 -2.5l-11 -4q-6 0 -6 5t24 15q30 12 39 19l34 26q-10 18 -10 40q0 21 18 41.5t34 20.5q3 0 6 -2q18 -10 29 -10q18 0 36 23l23 42q-38 12 -55 27q-30 27 -39 85h-2q-29 -50 -79 -50q-20 0 -39 8q-16 7 -16 12 q0 25 43 58q41 31 85 44l-2 17l20 33q8 -108 21.5 -140.5t55.5 -45.5l-13 132l19 43l17 -180q53 -6 95 -6q104 0 177 40q13 38 19 38q4 0 4 -9t-4 -25q36 -35 59 -35q26 0 42 43l-13 161h-5q-69 0 -83 74h-2q-8 -30 -14 -42q-11 -25 -27 -30l2 -2q7 1 14 1q56 0 56 -40 q0 -29 -25 -46q-85 -59 -160 -59q-46 0 -74 23.5t-28 65.5q0 31 16 67q-28 8 -38 43h-2q-15 -51 -55 -51q-47 0 -47 71v6l-27 -24q-8 -7 -39 -7q-49 0 -49 18q0 10 13.5 31.5t24.5 26.5l76 37v10l17 36l4 -120q2 -42 32 -42q15 0 29.5 10.5t16.5 22.5l-16 114l18 39l28 -161 q9 -21 33 -21q23 0 23 13q0 20 -16 74q-10 32 -20 65l13 33q40 -126 40 -157q0 -20 -10 -44q-11 -28 -25 -28q-5 0 -9 3q-7 -21 -7 -39q0 -75 91 -75q71 0 142 48q2 2 2 3q0 6 -38 12q-57 9 -61 10q-4 3 -4 8q0 11 17 32q60 25 64 53q1 5 1 14q0 97 -20 231l17 56 q24 -212 38 -256q18 -57 72 -66l-5 96l21 45l8 -140q29 10 60 36q25 -18 30 -21q19 -12 39 -15q21 23 65 55q51 38 70 38q18 0 41 -14q26 -15 26 -33z" horiz-adv-x="1057"/>
<glyph glyph-name="uniFE82" unicode="آ" arabic-form="final" d="M279 43q0 -25 -9.5 -34t-30.5 -9h-26q-32 0 -58.5 6.5t-45 22.5t-29 42.5t-10.5 66.5v576h82v-554q0 -42 13 -59.5t58 -17.5h16q40 0 40 -40zM-64 849q23 23 43.5 30t40.5 7q19 0 45.5 -9t49.5 -20q24 -11 46 -18.5t39 -7.5q26 0 39 14t18 29l32 -14q-14 -39 -33 -59 t-56 -20q-27 0 -51.5 8.5t-47.5 19.5t-46 19t-43 8q-17 0 -28.5 -4t-26.5 -15z" horiz-adv-x="239"/>
<glyph glyph-name="uniFE84" unicode="أ" arabic-form="final" d="M279 43q0 -25 -9.5 -34t-30.5 -9h-26q-32 0 -58.5 6.5t-45 22.5t-29 42.5t-10.5 66.5v576h82v-554q0 -42 13 -59.5t58 -17.5h16q40 0 40 -40zM201 789h-183v45h45q-14 23 -14 51q0 22 7 38.5t19 27.5t27.5 17t31.5 6q17 0 29.5 -2t18.5 -7v-46q-20 9 -43 9q-24 0 -35 -14 t-11 -31q0 -20 13 -34.5t39 -14.5h56v-45z" horiz-adv-x="239"/>
<glyph glyph-name="uniFE86" unicode="ؤ" arabic-form="final" d="M118 182q0 -51 29.5 -75t86.5 -24h107v66q0 74 -25 118t-86 44q-29 0 -50 -11.5t-34.5 -30t-20.5 -41.5t-7 -46zM423 0q-4 -61 -25.5 -101t-58.5 -64t-88.5 -34t-114.5 -10h-42v83h31q47 0 86 4.5t67.5 18t45 38.5t17.5 65h-113q-41 0 -75.5 9t-60 29.5t-40 53.5 t-14.5 82q0 41 13.5 80t39 69t62 48.5t83.5 18.5q52 0 88 -18.5t58.5 -52.5t32.5 -82t10 -107v-47h70q40 0 40 -40q0 -25 -9.5 -34t-30.5 -9h-72zM340 501h-218v53h51q-23 28 -23 68q0 28 9 48.5t24 34t34 20.5t40 7t36.5 -3t21.5 -5v-54q-23 9 -52 9q-32 0 -46.5 -18.5 t-14.5 -40.5q0 -28 17 -47t52 -19h69v-53z" horiz-adv-x="495"/>
<glyph glyph-name="uniFE88" unicode="إ" arabic-form="final" d="M279 43q0 -25 -9.5 -34t-30.5 -9h-26q-32 0 -58.5 6.5t-45 22.5t-29 42.5t-10.5 66.5v576h82v-554q0 -42 13 -59.5t58 -17.5h16q40 0 40 -40zM201 -249h-183v46h45q-14 23 -14 50q0 22 7 39t19 28t27.5 17t31.5 6q17 0 29.5 -2t18.5 -7v-47q-20 9 -43 9q-24 0 -35 -14 t-11 -31q0 -20 13 -34t39 -14h56v-46z" horiz-adv-x="239"/>
<glyph glyph-name="uniFE8A" unicode="ئ" arabic-form="final" d="M641 0q11 -12 19 -33.5t8 -41.5q0 -30 -17.5 -59t-56.5 -51.5t-101.5 -36t-153.5 -13.5q-101 0 -166.5 18.5t-104 50.5t-53.5 75.5t-15 94.5v154h81v-139q0 -89 61 -130.5t199 -41.5q51 0 97 5.5t80.5 16t54.5 26.5t20 37q0 23 -23.5 41t-58 31.5t-73.5 24.5t-69 20v81 q127 -47 241 -47h101q40 0 40 -40q0 -25 -9.5 -34t-30.5 -9h-70zM244 270h-218v53h51q-23 28 -23 68q0 28 9 48.5t24 34t34 20.5t40 7t36.5 -3t21.5 -5v-54q-23 9 -52 9q-32 0 -46.5 -18.5t-14.5 -40.5q0 -28 17 -47t52 -19h69v-53z" horiz-adv-x="710"/>
<glyph glyph-name="uniFE8B" unicode="ئ" arabic-form="initial" d="M0 0q-40 0 -40 40q0 25 9.5 34t30.5 9h156v302h82v-385h-238zM290 501h-218v53h51q-23 28 -23 68q0 28 9 48.5t24 34t34 20.5t40 7t36.5 -3t21.5 -5v-54q-23 9 -52 9q-32 0 -46.5 -18.5t-14.5 -40.5q0 -28 17 -47t52 -19h69v-53z" horiz-adv-x="308"/>
<glyph glyph-name="uniFE8C" unicode="ئ" arabic-form="medial" d="M0 0q-40 0 -40 40q0 25 9.5 34t30.5 9h67q24 0 41 2t28.5 9.5t17 22t5.5 39.5v229h82v-192q0 -25 3.5 -45.5t13.5 -34.5t27 -22t43 -8q40 0 40 -40q0 -25 -9.5 -34t-30.5 -9q-39 0 -63 18.5t-32 46.5q-18 -41 -56.5 -53t-94.5 -12h-82zM306 501h-218v53h51q-23 28 -23 68 q0 28 9 48.5t24 34t34 20.5t40 7t36.5 -3t21.5 -5v-54q-23 9 -52 9q-32 0 -46.5 -18.5t-14.5 -40.5q0 -28 17 -47t52 -19h69v-53z" horiz-adv-x="328"/>
<glyph glyph-name="uniFE8E" unicode="ا" arabic-form="final" d="M279 43q0 -25 -9.5 -34t-30.5 -9h-26q-32 0 -58.5 6.5t-45 22.5t-29 42.5t-10.5 66.5v576h82v-554q0 -42 13 -59.5t58 -17.5h16q40 0 40 -40z" horiz-adv-x="239"/>
<glyph glyph-name="uniFE90" unicode="ب" arabic-form="final" d="M895 0q-39 0 -63 18.5t-32 46.5q-9 -21 -24 -33.5t-37.5 -19.5t-54.5 -9.5t-75 -2.5h-407q-58 0 -96.5 8t-62 25.5t-33.5 45t-10 67.5v155h82v-125q0 -31 7.5 -49.5t25.5 -28t49 -12.5t79 -3h365q33 0 56 2t36.5 9.5t19.5 22t6 39.5v229h82v-192q0 -25 3.5 -45.5 t13.5 -34.5t27 -22t43 -8q40 0 40 -40q0 -25 -9.5 -34t-30.5 -9zM356 -152q0 22 15.5 37.5t37.5 15.5t37.5 -15.5t15.5 -37.5t-15.5 -37.5t-37.5 -15.5t-37.5 15.5t-15.5 37.5z" horiz-adv-x="895"/>
<glyph glyph-name="uniFE91" unicode="ب" arabic-form="initial" d="M0 0q-40 0 -40 40q0 25 9.5 34t30.5 9h156v302h82v-385h-238zM127 -149q0 22 15.5 37.5t37.5 15.5t37.5 -15.5t15.5 -37.5t-15.5 -37.5t-37.5 -15.5t-37.5 15.5t-15.5 37.5z" horiz-adv-x="308"/>
<glyph glyph-name="uniFE92" unicode="ب" arabic-form="medial" d="M0 0q-40 0 -40 40q0 25 9.5 34t30.5 9h67q24 0 41 2t28.5 9.5t17 22t5.5 39.5v229h82v-192q0 -25 3.5 -45.5t13.5 -34.5t27 -22t43 -8q40 0 40 -40q0 -25 -9.5 -34t-30.5 -9q-39 0 -63 18.5t-32 46.5q-18 -41 -56.5 -53t-94.5 -12h-82zM129 -149q0 22 15.5 37.5 t37.5 15.5t37.5 -15.5t15.5 -37.5t-15.5 -37.5t-37.5 -15.5t-37.5 15.5t-15.5 37.5z" horiz-adv-x="328"/>
<glyph glyph-name="uniFE94" unicode="ة" arabic-form="final" d="M187 82q-24 0 -55.5 7t-60 25.5t-48.5 52t-20 87.5t19 90.5t49 59.5t66.5 33t72.5 10h159v-287q0 -42 13 -59.5t58 -17.5h24q40 0 40 -40q0 -25 -9.5 -34t-30.5 -9h-34q-26 0 -49.5 4.5t-42 16t-31.5 30.5t-17 49q-22 -8 -49.5 -13t-53.5 -5zM83 261q0 -42 26.5 -68 t84.5 -26q22 0 47.5 5t45.5 13v178h-88q-48 0 -82 -24.5t-34 -77.5zM235 629q0 22 15.5 37.5t37.5 15.5t37.5 -15.5t15.5 -37.5t-15.5 -37.5t-37.5 -15.5t-37.5 15.5t-15.5 37.5zM105 629q0 22 15.5 37.5t37.5 15.5t37.5 -15.5t15.5 -37.5t-15.5 -37.5t-37.5 -15.5 t-37.5 15.5t-15.5 37.5z" horiz-adv-x="464"/>
<glyph glyph-name="uniFE96" unicode="ت" arabic-form="final" d="M895 0q-39 0 -63 18.5t-32 46.5q-9 -21 -24 -33.5t-37.5 -19.5t-54.5 -9.5t-75 -2.5h-407q-58 0 -96.5 8t-62 25.5t-33.5 45t-10 67.5v155h82v-125q0 -31 7.5 -49.5t25.5 -28t49 -12.5t79 -3h365q33 0 56 2t36.5 9.5t19.5 22t6 39.5v229h82v-192q0 -25 3.5 -45.5 t13.5 -34.5t27 -22t43 -8q40 0 40 -40q0 -25 -9.5 -34t-30.5 -9zM419 494q0 22 15.5 37.5t37.5 15.5t37.5 -15.5t15.5 -37.5t-15.5 -37.5t-37.5 -15.5t-37.5 15.5t-15.5 37.5zM289 494q0 22 15.5 37.5t37.5 15.5t37.5 -15.5t15.5 -37.5t-15.5 -37.5t-37.5 -15.5t-37.5 15.5 t-15.5 37.5z" horiz-adv-x="895"/>
<glyph glyph-name="uniFE97" unicode="ت" arabic-form="initial" d="M0 0q-40 0 -40 40q0 25 9.5 34t30.5 9h156v302h82v-385h-238zM197 553q0 22 15.5 37.5t37.5 15.5t37.5 -15.5t15.5 -37.5t-15.5 -37.5t-37.5 -15.5t-37.5 15.5t-15.5 37.5zM67 553q0 22 15.5 37.5t37.5 15.5t37.5 -15.5t15.5 -37.5t-15.5 -37.5t-37.5 -15.5t-37.5 15.5 t-15.5 37.5z" horiz-adv-x="308"/>
<glyph glyph-name="uniFE98" unicode="ت" arabic-form="medial" d="M0 0q-40 0 -40 40q0 25 9.5 34t30.5 9h67q24 0 41 2t28.5 9.5t17 22t5.5 39.5v229h82v-192q0 -25 3.5 -45.5t13.5 -34.5t27 -22t43 -8q40 0 40 -40q0 -25 -9.5 -34t-30.5 -9q-39 0 -63 18.5t-32 46.5q-18 -41 -56.5 -53t-94.5 -12h-82zM209 553q0 22 15.5 37.5t37.5 15.5 t37.5 -15.5t15.5 -37.5t-15.5 -37.5t-37.5 -15.5t-37.5 15.5t-15.5 37.5zM79 553q0 22 15.5 37.5t37.5 15.5t37.5 -15.5t15.5 -37.5t-15.5 -37.5t-37.5 -15.5t-37.5 15.5t-15.5 37.5z" horiz-adv-x="328"/>
<glyph glyph-name="uniFE9A" unicode="ث" arabic-form="final" d="M895 0q-39 0 -63 18.5t-32 46.5q-9 -21 -24 -33.5t-37.5 -19.5t-54.5 -9.5t-75 -2.5h-407q-58 0 -96.5 8t-62 25.5t-33.5 45t-10 67.5v155h82v-125q0 -31 7.5 -49.5t25.5 -28t49 -12.5t79 -3h365q33 0 56 2t36.5 9.5t19.5 22t6 39.5v229h82v-192q0 -25 3.5 -45.5 t13.5 -34.5t27 -22t43 -8q40 0 40 -40q0 -25 -9.5 -34t-30.5 -9zM357 614q0 22 15.5 37.5t37.5 15.5t37.5 -15.5t15.5 -37.5t-15.5 -37.5t-37.5 -15.5t-37.5 15.5t-15.5 37.5zM420 494q0 22 15.5 37.5t37.5 15.5t37.5 -15.5t15.5 -37.5t-15.5 -37.5t-37.5 -15.5t-37.5 15.5 t-15.5 37.5zM290 494q0 22 15.5 37.5t37.5 15.5t37.5 -15.5t15.5 -37.5t-15.5 -37.5t-37.5 -15.5t-37.5 15.5t-15.5 37.5z" horiz-adv-x="895"/>
<glyph glyph-name="uniFE9B" unicode="ث" arabic-form="initial" d="M0 0q-40 0 -40 40q0 25 9.5 34t30.5 9h156v302h82v-385h-238zM135 673q0 22 15.5 37.5t37.5 15.5t37.5 -15.5t15.5 -37.5t-15.5 -37.5t-37.5 -15.5t-37.5 15.5t-15.5 37.5zM198 553q0 22 15.5 37.5t37.5 15.5t37.5 -15.5t15.5 -37.5t-15.5 -37.5t-37.5 -15.5t-37.5 15.5 t-15.5 37.5zM68 553q0 22 15.5 37.5t37.5 15.5t37.5 -15.5t15.5 -37.5t-15.5 -37.5t-37.5 -15.5t-37.5 15.5t-15.5 37.5z" horiz-adv-x="308"/>
<glyph glyph-name="uniFE9C" unicode="ث" arabic-form="medial" d="M0 0q-40 0 -40 40q0 25 9.5 34t30.5 9h67q24 0 41 2t28.5 9.5t17 22t5.5 39.5v229h82v-192q0 -25 3.5 -45.5t13.5 -34.5t27 -22t43 -8q40 0 40 -40q0 -25 -9.5 -34t-30.5 -9q-39 0 -63 18.5t-32 46.5q-18 -41 -56.5 -53t-94.5 -12h-82zM148 673q0 22 15.5 37.5t37.5 15.5 t37.5 -15.5t15.5 -37.5t-15.5 -37.5t-37.5 -15.5t-37.5 15.5t-15.5 37.5zM211 553q0 22 15.5 37.5t37.5 15.5t37.5 -15.5t15.5 -37.5t-15.5 -37.5t-37.5 -15.5t-37.5 15.5t-15.5 37.5zM81 553q0 22 15.5 37.5t37.5 15.5t37.5 -15.5t15.5 -37.5t-15.5 -37.5t-37.5 -15.5 t-37.5 15.5t-15.5 37.5z" horiz-adv-x="328"/>
<glyph glyph-name="uniFE9E" unicode="ج" arabic-form="final" d="M274 0q-32 0 -65 -6.5t-60.5 -23t-45 -46t-17.5 -75.5q0 -43 15.5 -74t42.5 -51t63 -29.5t76 -9.5q41 0 84 6.5t101 33.5l33 -63q-28 -20 -59.5 -32t-60.5 -18.5t-54 -9t-41 -2.5q-64 0 -116.5 15t-90 45t-58.5 75t-21 105q0 72 25 119t64.5 74.5t88.5 38.5t97 11h213 q0 64 -17 108t-46 71.5t-67.5 40t-82.5 12.5q-29 0 -61.5 -5.5t-53.5 -11.5v80q20 6 53 13.5t72 7.5q75 0 129 -25t89.5 -68.5t52.5 -101t18 -121.5h63q40 0 40 -40q0 -25 -9.5 -34t-30.5 -9h-363zM257 -152q0 22 15.5 37.5t37.5 15.5t37.5 -15.5t15.5 -37.5t-15.5 -37.5 t-37.5 -15.5t-37.5 15.5t-15.5 37.5z" horiz-adv-x="637"/>
<glyph glyph-name="uniFE9F" unicode="ج" arabic-form="initial" d="M401 83q0 64 -17 108t-46 71.5t-67.5 40t-82.5 12.5q-29 0 -61.5 -5.5t-53.5 -11.5v80q20 6 53 13.5t72 7.5q76 0 131 -26t90 -70.5t51.5 -104t16.5 -125.5v-73h-487q-40 0 -40 40q0 25 9.5 34t30.5 9h401zM209 -150q0 22 15.5 37.5t37.5 15.5t37.5 -15.5t15.5 -37.5 t-15.5 -37.5t-37.5 -15.5t-37.5 15.5t-15.5 37.5z" horiz-adv-x="537"/>
<glyph glyph-name="uniFEA0" unicode="ج" arabic-form="medial" d="M0 0q-40 0 -40 40q0 25 9.5 34t30.5 9h401q0 64 -17 108t-46 71.5t-67.5 40t-82.5 12.5q-29 0 -61.5 -5.5t-53.5 -11.5v80q20 6 53 13.5t72 7.5q75 0 129 -25t89.5 -68.5t52.5 -101t18 -121.5h62q40 0 40 -40q0 -25 -9.5 -34t-30.5 -9h-549zM209 -150q0 22 15.5 37.5 t37.5 15.5t37.5 -15.5t15.5 -37.5t-15.5 -37.5t-37.5 -15.5t-37.5 15.5t-15.5 37.5z" horiz-adv-x="550"/>
<glyph glyph-name="uniFEA2" unicode="ح" arabic-form="final" d="M274 0q-32 0 -65 -6.5t-60.5 -23t-45 -46t-17.5 -75.5q0 -43 15.5 -74t42.5 -51t63 -29.5t76 -9.5q41 0 84 6.5t101 33.5l33 -63q-28 -20 -59.5 -32t-60.5 -18.5t-54 -9t-41 -2.5q-64 0 -116.5 15t-90 45t-58.5 75t-21 105q0 72 25 119t64.5 74.5t88.5 38.5t97 11h213 q0 64 -17 108t-46 71.5t-67.5 40t-82.5 12.5q-29 0 -61.5 -5.5t-53.5 -11.5v80q20 6 53 13.5t72 7.5q75 0 129 -25t89.5 -68.5t52.5 -101t18 -121.5h63q40 0 40 -40q0 -25 -9.5 -34t-30.5 -9h-363z" horiz-adv-x="637"/>
<glyph glyph-name="uniFEA3" unicode="ح" arabic-form="initial" d="M401 83q0 64 -17 108t-46 71.5t-67.5 40t-82.5 12.5q-29 0 -61.5 -5.5t-53.5 -11.5v80q20 6 53 13.5t72 7.5q76 0 131 -26t90 -70.5t51.5 -104t16.5 -125.5v-73h-487q-40 0 -40 40q0 25 9.5 34t30.5 9h401z" horiz-adv-x="537"/>
<glyph glyph-name="uniFEA4" unicode="ح" arabic-form="medial" d="M0 0q-40 0 -40 40q0 25 9.5 34t30.5 9h401q0 64 -17 108t-46 71.5t-67.5 40t-82.5 12.5q-29 0 -61.5 -5.5t-53.5 -11.5v80q20 6 53 13.5t72 7.5q75 0 129 -25t89.5 -68.5t52.5 -101t18 -121.5h62q40 0 40 -40q0 -25 -9.5 -34t-30.5 -9h-549z" horiz-adv-x="550"/>
<glyph glyph-name="uniFEA6" unicode="خ" arabic-form="final" d="M274 0q-32 0 -65 -6.5t-60.5 -23t-45 -46t-17.5 -75.5q0 -43 15.5 -74t42.5 -51t63 -29.5t76 -9.5q41 0 84 6.5t101 33.5l33 -63q-28 -20 -59.5 -32t-60.5 -18.5t-54 -9t-41 -2.5q-64 0 -116.5 15t-90 45t-58.5 75t-21 105q0 72 25 119t64.5 74.5t88.5 38.5t97 11h213 q0 64 -17 108t-46 71.5t-67.5 40t-82.5 12.5q-29 0 -61.5 -5.5t-53.5 -11.5v80q20 6 53 13.5t72 7.5q75 0 129 -25t89.5 -68.5t52.5 -101t18 -121.5h63q40 0 40 -40q0 -25 -9.5 -34t-30.5 -9h-363zM240 553q0 22 15.5 37.5t37.5 15.5t37.5 -15.5t15.5 -37.5t-15.5 -37.5 t-37.5 -15.5t-37.5 15.5t-15.5 37.5z" horiz-adv-x="637"/>
<glyph glyph-name="uniFEA7" unicode="خ" arabic-form="initial" d="M401 83q0 64 -17 108t-46 71.5t-67.5 40t-82.5 12.5q-29 0 -61.5 -5.5t-53.5 -11.5v80q20 6 53 13.5t72 7.5q76 0 131 -26t90 -70.5t51.5 -104t16.5 -125.5v-73h-487q-40 0 -40 40q0 25 9.5 34t30.5 9h401zM153 552q0 22 15.5 37.5t37.5 15.5t37.5 -15.5t15.5 -37.5 t-15.5 -37.5t-37.5 -15.5t-37.5 15.5t-15.5 37.5z" horiz-adv-x="537"/>
<glyph glyph-name="uniFEA8" unicode="خ" arabic-form="medial" d="M0 0q-40 0 -40 40q0 25 9.5 34t30.5 9h401q0 64 -17 108t-46 71.5t-67.5 40t-82.5 12.5q-29 0 -61.5 -5.5t-53.5 -11.5v80q20 6 53 13.5t72 7.5q75 0 129 -25t89.5 -68.5t52.5 -101t18 -121.5h62q40 0 40 -40q0 -25 -9.5 -34t-30.5 -9h-549zM153 552q0 22 15.5 37.5 t37.5 15.5t37.5 -15.5t15.5 -37.5t-15.5 -37.5t-37.5 -15.5t-37.5 15.5t-15.5 37.5z" horiz-adv-x="550"/>
<glyph glyph-name="uniFEAA" unicode="د" arabic-form="final" d="M468 0q-41 0 -69 17t-56 61q-11 -27 -28.5 -43t-39 -23.5t-45.5 -9.5t-48 -2h-152v83h179q42 0 64.5 10.5t22.5 30.5q0 19 -10 38t-25 41l-106 157l77 48l120 -199q20 -33 35 -57t28.5 -39t26 -22.5t26.5 -7.5q40 0 40 -40q0 -25 -9.5 -34t-30.5 -9z" horiz-adv-x="468"/>
<glyph glyph-name="uniFEAC" unicode="ذ" arabic-form="final" d="M468 0q-41 0 -69 17t-56 61q-11 -27 -28.5 -43t-39 -23.5t-45.5 -9.5t-48 -2h-152v83h179q42 0 64.5 10.5t22.5 30.5q0 19 -10 38t-25 41l-106 157l77 48l120 -199q20 -33 35 -57t28.5 -39t26 -22.5t26.5 -7.5q40 0 40 -40q0 -25 -9.5 -34t-30.5 -9zM144 553 q0 22 15.5 37.5t37.5 15.5t37.5 -15.5t15.5 -37.5t-15.5 -37.5t-37.5 -15.5t-37.5 15.5t-15.5 37.5z" horiz-adv-x="468"/>
<glyph glyph-name="uniFEAE" unicode="ر" arabic-form="final" d="M311 0q-33 0 -55 15t-33 35q0 -72 -9 -121.5t-32.5 -80t-65.5 -44t-109 -13.5v83q49 0 76.5 10.5t41 34t16 60t2.5 88.5v268h81v-142q0 -51 18.5 -80.5t68.5 -29.5q40 0 40 -40q0 -25 -9.5 -34t-30.5 -9z" horiz-adv-x="311"/>
<glyph glyph-name="uniFEB0" unicode="ز" arabic-form="final" d="M311 0q-33 0 -55 15t-33 35q0 -72 -9 -121.5t-32.5 -80t-65.5 -44t-109 -13.5v83q49 0 76.5 10.5t41 34t16 60t2.5 88.5v268h81v-142q0 -51 18.5 -80.5t68.5 -29.5q40 0 40 -40q0 -25 -9.5 -34t-30.5 -9zM129 553q0 22 15.5 37.5t37.5 15.5t37.5 -15.5t15.5 -37.5 t-15.5 -37.5t-37.5 -15.5t-37.5 15.5t-15.5 37.5z" horiz-adv-x="311"/>
<glyph glyph-name="uniFEB2" unicode="س" arabic-form="final" d="M1161 0q-39 0 -62.5 18.5t-31.5 46.5q-9 -21 -25 -33.5t-34 -19.5t-35 -9.5t-29 -2.5q-33 0 -55.5 6t-37.5 15.5t-23.5 21t-13.5 22.5q-18 -41 -54.5 -53t-82.5 -12q-61 0 -89 14.5t-39 34.5v-37q0 -66 -18.5 -112.5t-53.5 -76.5t-86 -44t-116 -14q-137 0 -206 61.5 t-69 177.5v154h81v-137q0 -48 12.5 -81.5t37 -54t61.5 -29.5t85 -9q50 0 86 7t59.5 26t34.5 51t11 82v322h81v-142q0 -25 3.5 -45.5t14.5 -34.5t33 -22t59 -8q19 0 34.5 2t25.5 9.5t15.5 22t5.5 39.5v179h82v-142q0 -25 4 -45.5t14.5 -34.5t29.5 -22t49 -8q16 0 30 2 t23.5 9.5t15 22t5.5 39.5v229h82v-192q0 -25 3.5 -45.5t13 -34.5t26.5 -22t43 -8q40 0 40 -40q0 -25 -9.5 -34t-30.5 -9z" horiz-adv-x="1162"/>
<glyph glyph-name="uniFEB3" unicode="س" arabic-form="initial" d="M35 83q33 0 56 2t36.5 9.5t19.5 22t6 39.5v180h82v-143q0 -25 3 -45.5t14 -34.5t31 -22t55 -8q22 0 38.5 2t27.5 9.5t16.5 22t5.5 39.5v179h82v-142q0 -25 3.5 -45.5t13 -34.5t26.5 -22t43 -8h84v302h82v-385h-166q-39 0 -62.5 18.5t-31.5 46.5q-18 -41 -56 -53t-92 -12 q-34 0 -57 5.5t-38 15t-23.5 21.5t-14.5 24q-9 -21 -22.5 -33.5t-35 -20t-53 -10t-75.5 -2.5h-33q-40 0 -40 40q0 25 9.5 34t30.5 9h35z" horiz-adv-x="830"/>
<glyph glyph-name="uniFEB4" unicode="س" arabic-form="medial" d="M35 83q33 0 56 2t36.5 9.5t19.5 22t6 39.5v179h82v-142q0 -25 3 -45.5t14 -34.5t31.5 -22t55.5 -8q22 0 38 2t27 9.5t16.5 22t5.5 39.5v179h82v-142q0 -25 3.5 -45.5t14 -34.5t29 -22t48.5 -8q17 0 31 2t24 9.5t15.5 22t5.5 39.5v229h82v-192q0 -25 3.5 -45.5t13.5 -34.5 t27 -22t43 -8q40 0 40 -40q0 -25 -9.5 -34t-30.5 -9q-39 0 -63 18.5t-32 46.5q-9 -21 -25 -33.5t-34 -19.5t-35 -9.5t-29 -2.5q-33 0 -55.5 6t-37.5 15.5t-23.5 21t-13.5 22.5q-18 -41 -55.5 -53t-89.5 -12q-35 0 -58.5 5.5t-38.5 15t-24 21.5t-15 24q-9 -21 -22.5 -33.5 t-35 -20t-53 -10t-75.5 -2.5h-33q-40 0 -40 40q0 25 9.5 34t30.5 9h35z" horiz-adv-x="849"/>
<glyph glyph-name="uniFEB6" unicode="ش" arabic-form="final" d="M1161 0q-39 0 -62.5 18.5t-31.5 46.5q-9 -21 -25 -33.5t-34 -19.5t-35 -9.5t-29 -2.5q-33 0 -55.5 6t-37.5 15.5t-23.5 21t-13.5 22.5q-18 -41 -54.5 -53t-82.5 -12q-61 0 -89 14.5t-39 34.5v-37q0 -66 -18.5 -112.5t-53.5 -76.5t-86 -44t-116 -14q-137 0 -206 61.5 t-69 177.5v154h81v-137q0 -48 12.5 -81.5t37 -54t61.5 -29.5t85 -9q50 0 86 7t59.5 26t34.5 51t11 82v322h81v-142q0 -25 3.5 -45.5t14.5 -34.5t33 -22t59 -8q19 0 34.5 2t25.5 9.5t15.5 22t5.5 39.5v179h82v-142q0 -25 4 -45.5t14.5 -34.5t29.5 -22t49 -8q16 0 30 2 t23.5 9.5t15 22t5.5 39.5v229h82v-192q0 -25 3.5 -45.5t13 -34.5t26.5 -22t43 -8q40 0 40 -40q0 -25 -9.5 -34t-30.5 -9zM727 673q0 22 15.5 37.5t37.5 15.5t37.5 -15.5t15.5 -37.5t-15.5 -37.5t-37.5 -15.5t-37.5 15.5t-15.5 37.5zM790 553q0 22 15.5 37.5t37.5 15.5 t37.5 -15.5t15.5 -37.5t-15.5 -37.5t-37.5 -15.5t-37.5 15.5t-15.5 37.5zM660 553q0 22 15.5 37.5t37.5 15.5t37.5 -15.5t15.5 -37.5t-15.5 -37.5t-37.5 -15.5t-37.5 15.5t-15.5 37.5z" horiz-adv-x="1162"/>
<glyph glyph-name="uniFEB7" unicode="ش" arabic-form="initial" d="M35 83q33 0 56 2t36.5 9.5t19.5 22t6 39.5v180h82v-143q0 -25 3 -45.5t14 -34.5t31 -22t55 -8q22 0 38.5 2t27.5 9.5t16.5 22t5.5 39.5v179h82v-142q0 -25 3.5 -45.5t13 -34.5t26.5 -22t43 -8h84v302h82v-385h-166q-39 0 -62.5 18.5t-31.5 46.5q-18 -41 -56 -53t-92 -12 q-34 0 -57 5.5t-38 15t-23.5 21.5t-14.5 24q-9 -21 -22.5 -33.5t-35 -20t-53 -10t-75.5 -2.5h-33q-40 0 -40 40q0 25 9.5 34t30.5 9h35zM409 673q0 22 15.5 37.5t37.5 15.5t37.5 -15.5t15.5 -37.5t-15.5 -37.5t-37.5 -15.5t-37.5 15.5t-15.5 37.5zM472 553q0 22 15.5 37.5 t37.5 15.5t37.5 -15.5t15.5 -37.5t-15.5 -37.5t-37.5 -15.5t-37.5 15.5t-15.5 37.5zM342 553q0 22 15.5 37.5t37.5 15.5t37.5 -15.5t15.5 -37.5t-15.5 -37.5t-37.5 -15.5t-37.5 15.5t-15.5 37.5z" horiz-adv-x="830"/>
<glyph glyph-name="uniFEB8" unicode="ش" arabic-form="medial" d="M35 83q33 0 56 2t36.5 9.5t19.5 22t6 39.5v179h82v-142q0 -25 3 -45.5t14 -34.5t31.5 -22t55.5 -8q22 0 38 2t27 9.5t16.5 22t5.5 39.5v179h82v-142q0 -25 3.5 -45.5t14 -34.5t29 -22t48.5 -8q17 0 31 2t24 9.5t15.5 22t5.5 39.5v229h82v-192q0 -25 3.5 -45.5t13.5 -34.5 t27 -22t43 -8q40 0 40 -40q0 -25 -9.5 -34t-30.5 -9q-39 0 -63 18.5t-32 46.5q-9 -21 -25 -33.5t-34 -19.5t-35 -9.5t-29 -2.5q-33 0 -55.5 6t-37.5 15.5t-23.5 21t-13.5 22.5q-18 -41 -55.5 -53t-89.5 -12q-35 0 -58.5 5.5t-38.5 15t-24 21.5t-15 24q-9 -21 -22.5 -33.5 t-35 -20t-53 -10t-75.5 -2.5h-33q-40 0 -40 40q0 25 9.5 34t30.5 9h35zM413 673q0 22 15.5 37.5t37.5 15.5t37.5 -15.5t15.5 -37.5t-15.5 -37.5t-37.5 -15.5t-37.5 15.5t-15.5 37.5zM476 553q0 22 15.5 37.5t37.5 15.5t37.5 -15.5t15.5 -37.5t-15.5 -37.5t-37.5 -15.5 t-37.5 15.5t-15.5 37.5zM346 553q0 22 15.5 37.5t37.5 15.5t37.5 -15.5t15.5 -37.5t-15.5 -37.5t-37.5 -15.5t-37.5 15.5t-15.5 37.5z" horiz-adv-x="849"/>
<glyph glyph-name="uniFEBA" unicode="ص" arabic-form="final" d="M1156 83v67q0 36 -7.5 66.5t-24.5 52.5t-44.5 34t-66.5 12q-48 0 -89.5 -21t-76 -54t-59.5 -74.5t-40 -82.5h408zM679 0q-62 0 -90.5 14.5t-39.5 34.5v-37q0 -66 -18.5 -112.5t-53.5 -76.5t-86 -44t-116 -14q-137 0 -206 61.5t-69 177.5v154h81v-137q0 -48 12.5 -81.5 t37 -54t61.5 -29.5t85 -9q50 0 86 7t59.5 26t34.5 51t11 82v322h81v-142q0 -25 3.5 -45.5t14.5 -34.5t33 -22t60 -8q19 55 52.5 111.5t80 102t105.5 74t128 28.5q101 0 156.5 -60t55.5 -170v-86h76q40 0 40 -40q0 -25 -9.5 -34t-30.5 -9h-635z" horiz-adv-x="1314"/>
<glyph glyph-name="uniFEBB" unicode="ص" arabic-form="initial" d="M0 0q-40 0 -40 40q0 25 9.5 34t30.5 9h35q33 0 56 2t36.5 9.5t19.5 22t6 39.5v179h82v-142q0 -25 2 -45.5t9.5 -34.5t21.5 -22t38 -8q19 55 52.5 111.5t80 102t105.5 74t128 28.5q101 0 156.5 -60t55.5 -170v-169h-540q-31 0 -51 5.5t-32.5 14.5t-20 21t-13.5 24 q-9 -21 -24 -33.5t-38 -19.5t-55.5 -9.5t-76.5 -2.5h-33zM802 83v67q0 36 -7.5 66.5t-24.5 52.5t-44.5 34t-66.5 12q-48 0 -89.5 -21t-76 -54t-59.5 -74.5t-40 -82.5h408z" horiz-adv-x="944"/>
<glyph glyph-name="uniFEBC" unicode="ص" arabic-form="medial" d="M802 83v67q0 36 -7.5 66.5t-24.5 52.5t-44.5 34t-66.5 12q-48 0 -89.5 -21t-76 -54t-59.5 -74.5t-40 -82.5h408zM344 0q-31 0 -51 5.5t-32.5 14.5t-20 21t-13.5 24q-9 -21 -24 -33.5t-38 -19.5t-55.5 -9.5t-76.5 -2.5h-33q-40 0 -40 40q0 25 9.5 34t30.5 9h35q33 0 56 2 t36.5 9.5t19.5 22t6 39.5v179h82v-142q0 -25 2 -45.5t9.5 -34.5t21.5 -22t38 -8q19 55 52.5 111.5t80 102t105.5 74t128 28.5q101 0 156.5 -60t55.5 -170v-86h76q40 0 40 -40q0 -25 -9.5 -34t-30.5 -9h-616z" horiz-adv-x="960"/>
<glyph glyph-name="uniFEBE" unicode="ض" arabic-form="final" d="M1156 83v67q0 36 -7.5 66.5t-24.5 52.5t-44.5 34t-66.5 12q-48 0 -89.5 -21t-76 -54t-59.5 -74.5t-40 -82.5h408zM679 0q-62 0 -90.5 14.5t-39.5 34.5v-37q0 -66 -18.5 -112.5t-53.5 -76.5t-86 -44t-116 -14q-137 0 -206 61.5t-69 177.5v154h81v-137q0 -48 12.5 -81.5 t37 -54t61.5 -29.5t85 -9q50 0 86 7t59.5 26t34.5 51t11 82v322h81v-142q0 -25 3.5 -45.5t14.5 -34.5t33 -22t60 -8q19 55 52.5 111.5t80 102t105.5 74t128 28.5q101 0 156.5 -60t55.5 -170v-86h76q40 0 40 -40q0 -25 -9.5 -34t-30.5 -9h-635zM963 553q0 22 15.5 37.5 t37.5 15.5t37.5 -15.5t15.5 -37.5t-15.5 -37.5t-37.5 -15.5t-37.5 15.5t-15.5 37.5z" horiz-adv-x="1314"/>
<glyph glyph-name="uniFEBF" unicode="ض" arabic-form="initial" d="M0 0q-40 0 -40 40q0 25 9.5 34t30.5 9h35q33 0 56 2t36.5 9.5t19.5 22t6 39.5v179h82v-142q0 -25 2 -45.5t9.5 -34.5t21.5 -22t38 -8q19 55 52.5 111.5t80 102t105.5 74t128 28.5q101 0 156.5 -60t55.5 -170v-169h-540q-31 0 -51 5.5t-32.5 14.5t-20 21t-13.5 24 q-9 -21 -24 -33.5t-38 -19.5t-55.5 -9.5t-76.5 -2.5h-33zM802 83v67q0 36 -7.5 66.5t-24.5 52.5t-44.5 34t-66.5 12q-48 0 -89.5 -21t-76 -54t-59.5 -74.5t-40 -82.5h408zM614 553q0 22 15.5 37.5t37.5 15.5t37.5 -15.5t15.5 -37.5t-15.5 -37.5t-37.5 -15.5t-37.5 15.5 t-15.5 37.5z" horiz-adv-x="944"/>
<glyph glyph-name="uniFEC0" unicode="ض" arabic-form="medial" d="M802 83v67q0 36 -7.5 66.5t-24.5 52.5t-44.5 34t-66.5 12q-48 0 -89.5 -21t-76 -54t-59.5 -74.5t-40 -82.5h408zM344 0q-31 0 -51 5.5t-32.5 14.5t-20 21t-13.5 24q-9 -21 -24 -33.5t-38 -19.5t-55.5 -9.5t-76.5 -2.5h-33q-40 0 -40 40q0 25 9.5 34t30.5 9h35q33 0 56 2 t36.5 9.5t19.5 22t6 39.5v179h82v-142q0 -25 2 -45.5t9.5 -34.5t21.5 -22t38 -8q19 55 52.5 111.5t80 102t105.5 74t128 28.5q101 0 156.5 -60t55.5 -170v-86h76q40 0 40 -40q0 -25 -9.5 -34t-30.5 -9h-616zM612 553q0 22 15.5 37.5t37.5 15.5t37.5 -15.5t15.5 -37.5 t-15.5 -37.5t-37.5 -15.5t-37.5 15.5t-15.5 37.5z" horiz-adv-x="960"/>
<glyph glyph-name="uniFEC2" unicode="ط" arabic-form="final" d="M629 83v67q0 34 -7 64.5t-24 52.5t-44.5 35t-67.5 13q-48 0 -89 -22t-74 -55.5t-57.5 -74.5t-39.5 -80h403zM17 0v83h127v631h82v-489q51 83 119.5 128.5t159.5 45.5q97 0 151.5 -61t54.5 -169v-86h76q40 0 40 -40q0 -25 -9.5 -34t-30.5 -9h-770z" horiz-adv-x="787"/>
<glyph glyph-name="uniFEC3" unicode="ط" arabic-form="initial" d="M598 83v67q0 34 -7 64.5t-24 52.5t-44.5 35t-67.5 13q-48 0 -89 -22t-74 -55.5t-57.5 -74.5t-39.5 -80h403zM0 0q-40 0 -40 40q0 25 9.5 34t30.5 9h113v631h82v-489q51 83 119.5 128.5t159.5 45.5q97 0 151.5 -61t54.5 -169v-169h-680z" horiz-adv-x="740"/>
<glyph glyph-name="uniFEC4" unicode="ط" arabic-form="medial" d="M598 83v67q0 34 -7 64.5t-24 52.5t-44.5 35t-67.5 13q-48 0 -89 -22t-74 -55.5t-57.5 -74.5t-39.5 -80h403zM0 0q-40 0 -40 40q0 25 9.5 34t30.5 9h113v631h82v-489q51 83 119.5 128.5t159.5 45.5q97 0 151.5 -61t54.5 -169v-86h76q40 0 40 -40q0 -25 -9.5 -34t-30.5 -9 h-756z" horiz-adv-x="756"/>
<glyph glyph-name="uniFEC6" unicode="ظ" arabic-form="final" d="M629 83v67q0 34 -7 64.5t-24 52.5t-44.5 35t-67.5 13q-48 0 -89 -22t-74 -55.5t-57.5 -74.5t-39.5 -80h403zM17 0v83h127v631h82v-489q51 83 119.5 128.5t159.5 45.5q97 0 151.5 -61t54.5 -169v-86h76q40 0 40 -40q0 -25 -9.5 -34t-30.5 -9h-770zM439 553q0 22 15.5 37.5 t37.5 15.5t37.5 -15.5t15.5 -37.5t-15.5 -37.5t-37.5 -15.5t-37.5 15.5t-15.5 37.5z" horiz-adv-x="787"/>
<glyph glyph-name="uniFEC7" unicode="ظ" arabic-form="initial" d="M598 83v67q0 34 -7 64.5t-24 52.5t-44.5 35t-67.5 13q-48 0 -89 -22t-74 -55.5t-57.5 -74.5t-39.5 -80h403zM0 0q-40 0 -40 40q0 25 9.5 34t30.5 9h113v631h82v-489q51 83 119.5 128.5t159.5 45.5q97 0 151.5 -61t54.5 -169v-169h-680zM420 553q0 22 15.5 37.5t37.5 15.5 t37.5 -15.5t15.5 -37.5t-15.5 -37.5t-37.5 -15.5t-37.5 15.5t-15.5 37.5z" horiz-adv-x="740"/>
<glyph glyph-name="uniFEC8" unicode="ظ" arabic-form="medial" d="M598 83v67q0 34 -7 64.5t-24 52.5t-44.5 35t-67.5 13q-48 0 -89 -22t-74 -55.5t-57.5 -74.5t-39.5 -80h403zM0 0q-40 0 -40 40q0 25 9.5 34t30.5 9h113v631h82v-489q51 83 119.5 128.5t159.5 45.5q97 0 151.5 -61t54.5 -169v-86h76q40 0 40 -40q0 -25 -9.5 -34t-30.5 -9 h-756zM404 553q0 22 15.5 37.5t37.5 15.5t37.5 -15.5t15.5 -37.5t-15.5 -37.5t-37.5 -15.5t-37.5 15.5t-15.5 37.5z" horiz-adv-x="756"/>
<glyph glyph-name="uniFECA" unicode="ع" arabic-form="final" d="M277 321q-40 0 -75.5 -16t-56.5 -42l121 -128q47 25 77.5 57.5t30.5 68.5q0 23 -23.5 41.5t-73.5 18.5zM362 0q-31 0 -58 8.5t-57 35.5q-35 -18 -65.5 -39.5t-53 -47t-36 -56t-13.5 -67.5q0 -40 15 -68t42 -46t63 -26.5t78 -8.5q21 0 40.5 1.5t40.5 6t44.5 12.5t52.5 20 l33 -63q-31 -20 -61.5 -32t-59 -18.5t-54 -9t-45.5 -2.5q-60 0 -111 14.5t-88.5 43t-59 70t-21.5 94.5q0 48 13.5 87t39.5 72.5t65 62.5t89 56l-129 146q3 11 7.5 23t10 23.5t11 21t11.5 15.5q32 32 77.5 51t98.5 19q44 0 76.5 -10.5t54 -28t32 -40t10.5 -45.5 q0 -57 -33 -103.5t-90 -82.5q12 -4 26 -5t31 -1h140q40 0 40 -40q0 -25 -9.5 -34t-30.5 -9h-167z" horiz-adv-x="529"/>
<glyph glyph-name="uniFECB" unicode="ع" arabic-form="initial" d="M0 0q-40 0 -40 40q0 25 9.5 34t30.5 9h123q-18 19 -30 49t-12 68q0 52 19.5 90t51 63t70 37t77.5 12q35 0 61 -4t37 -9v-89q-19 6 -41 10.5t-54 4.5q-63 0 -100 -31t-37 -85q0 -51 32 -83.5t97 -32.5h146v-83h-440z" horiz-adv-x="500"/>
<glyph glyph-name="uniFECC" unicode="ع" arabic-form="medial" d="M277 321q-40 0 -75.5 -16t-56.5 -42l122 -129q48 24 77.5 57t29.5 70q0 23 -23.5 41.5t-73.5 18.5zM0 0q-40 0 -40 40q0 25 9.5 34t30.5 9h45q38 0 75 5t71 16l-125 142q3 11 7.5 23t10 23.5t11 21t11.5 15.5q32 32 77.5 51t98.5 19q44 0 76.5 -10.5t54 -28t32 -40 t10.5 -45.5q0 -55 -31.5 -103t-84.5 -85q19 -4 50 -4h140q40 0 40 -40q0 -25 -9.5 -34t-30.5 -9h-167q-29 0 -55.5 7.5t-55.5 32.5q-47 -19 -98 -29.5t-104 -10.5h-49z" horiz-adv-x="529"/>
<glyph glyph-name="uniFECE" unicode="غ" arabic-form="final" d="M277 321q-40 0 -75.5 -16t-56.5 -42l121 -128q47 25 77.5 57.5t30.5 68.5q0 23 -23.5 41.5t-73.5 18.5zM362 0q-31 0 -58 8.5t-57 35.5q-35 -18 -65.5 -39.5t-53 -47t-36 -56t-13.5 -67.5q0 -40 15 -68t42 -46t63 -26.5t78 -8.5q21 0 40.5 1.5t40.5 6t44.5 12.5t52.5 20 l33 -63q-31 -20 -61.5 -32t-59 -18.5t-54 -9t-45.5 -2.5q-60 0 -111 14.5t-88.5 43t-59 70t-21.5 94.5q0 48 13.5 87t39.5 72.5t65 62.5t89 56l-129 146q3 11 7.5 23t10 23.5t11 21t11.5 15.5q32 32 77.5 51t98.5 19q44 0 76.5 -10.5t54 -28t32 -40t10.5 -45.5 q0 -57 -33 -103.5t-90 -82.5q12 -4 26 -5t31 -1h140q40 0 40 -40q0 -25 -9.5 -34t-30.5 -9h-167zM224 553q0 22 15.5 37.5t37.5 15.5t37.5 -15.5t15.5 -37.5t-15.5 -37.5t-37.5 -15.5t-37.5 15.5t-15.5 37.5z" horiz-adv-x="529"/>
<glyph glyph-name="uniFECF" unicode="غ" arabic-form="initial" d="M0 0q-40 0 -40 40q0 25 9.5 34t30.5 9h123q-18 19 -30 49t-12 68q0 52 19.5 90t51 63t70 37t77.5 12q35 0 61 -4t37 -9v-89q-19 6 -41 10.5t-54 4.5q-63 0 -100 -31t-37 -85q0 -51 32 -83.5t97 -32.5h146v-83h-440zM230 553q0 22 15.5 37.5t37.5 15.5t37.5 -15.5 t15.5 -37.5t-15.5 -37.5t-37.5 -15.5t-37.5 15.5t-15.5 37.5z" horiz-adv-x="500"/>
<glyph glyph-name="uniFED0" unicode="غ" arabic-form="medial" d="M277 321q-40 0 -75.5 -16t-56.5 -42l122 -129q48 24 77.5 57t29.5 70q0 23 -23.5 41.5t-73.5 18.5zM0 0q-40 0 -40 40q0 25 9.5 34t30.5 9h45q38 0 75 5t71 16l-125 142q3 11 7.5 23t10 23.5t11 21t11.5 15.5q32 32 77.5 51t98.5 19q44 0 76.5 -10.5t54 -28t32 -40 t10.5 -45.5q0 -55 -31.5 -103t-84.5 -85q19 -4 50 -4h140q40 0 40 -40q0 -25 -9.5 -34t-30.5 -9h-167q-29 0 -55.5 7.5t-55.5 32.5q-47 -19 -98 -29.5t-104 -10.5h-49zM226 553q0 22 15.5 37.5t37.5 15.5t37.5 -15.5t15.5 -37.5t-15.5 -37.5t-37.5 -15.5t-37.5 15.5 t-15.5 37.5z" horiz-adv-x="529"/>
<glyph glyph-name="uniFED2" unicode="ف" arabic-form="final" d="M641 201q0 -61 36 -89.5t88 -28.5h96v100q0 24 -4.5 48.5t-16.5 44t-33 32t-53 12.5q-53 0 -83 -35t-30 -84zM202 0q-58 0 -96.5 8t-62 25.5t-33.5 45t-10 67.5v155h82v-125q0 -31 7.5 -49.5t25.5 -28t49 -12.5t79 -3h347q-11 21 -19 46.5t-8 58.5q0 39 13 77t38 67.5 t61.5 48t84.5 18.5q55 0 90 -20t55.5 -51t28.5 -68.5t8 -73.5v-103h76q40 0 40 -40q0 -25 -9.5 -34t-30.5 -9h-816zM713 553q0 22 15.5 37.5t37.5 15.5t37.5 -15.5t15.5 -37.5t-15.5 -37.5t-37.5 -15.5t-37.5 15.5t-15.5 37.5z" horiz-adv-x="1018"/>
<glyph glyph-name="uniFED3" unicode="ف" arabic-form="initial" d="M0 0q-40 0 -40 40q0 25 9.5 34t30.5 9h114q-11 21 -19 46.5t-8 58.5q0 39 13 77t38 67.5t61.5 48t84.5 18.5q55 0 90 -20t55.5 -51t28.5 -68.5t8 -73.5v-186h-466zM165 201q0 -61 36 -89.5t88 -28.5h96v100q0 24 -4.5 48.5t-16.5 44t-33 32t-53 12.5q-53 0 -83 -35 t-30 -84zM232 553q0 22 15.5 37.5t37.5 15.5t37.5 -15.5t15.5 -37.5t-15.5 -37.5t-37.5 -15.5t-37.5 15.5t-15.5 37.5z" horiz-adv-x="526"/>
<glyph glyph-name="uniFED4" unicode="ف" arabic-form="medial" d="M165 201q0 -61 36 -89.5t88 -28.5h96v100q0 24 -4.5 48.5t-16.5 44t-33 32t-53 12.5q-53 0 -83 -35t-30 -84zM0 0q-40 0 -40 40q0 25 9.5 34t30.5 9h114q-11 21 -19 46.5t-8 58.5q0 39 13 77t38 67.5t61.5 48t84.5 18.5q55 0 90 -20t55.5 -51t28.5 -68.5t8 -73.5v-103h76 q40 0 40 -40q0 -25 -9.5 -34t-30.5 -9h-542zM230 553q0 22 15.5 37.5t37.5 15.5t37.5 -15.5t15.5 -37.5t-15.5 -37.5t-37.5 -15.5t-37.5 15.5t-15.5 37.5z" horiz-adv-x="542"/>
<glyph glyph-name="uniFED6" unicode="ق" arabic-form="final" d="M359 182q0 -51 29.5 -75t86.5 -24h107v66q0 74 -25 118t-86 44q-29 0 -50 -11.5t-34.5 -30t-20.5 -41.5t-7 -46zM663 0q-7 -61 -33 -105t-68 -73t-99.5 -43t-128.5 -14q-93 0 -157 18.5t-103 51t-56.5 77t-17.5 97.5v149h81v-131q0 -89 62.5 -134.5t190.5 -45.5 q48 0 93 7.5t79.5 25.5t55 47t20.5 73h-113q-41 0 -75.5 9t-60 29.5t-40 53.5t-14.5 82q0 41 13.5 80t39 69t62 48.5t83.5 18.5q52 0 88 -18.5t58.5 -52.5t32.5 -82t10 -107v-47h77q40 0 40 -40q0 -25 -9.5 -34t-30.5 -9h-80zM497 553q0 22 15.5 37.5t37.5 15.5t37.5 -15.5 t15.5 -37.5t-15.5 -37.5t-37.5 -15.5t-37.5 15.5t-15.5 37.5zM367 553q0 22 15.5 37.5t37.5 15.5t37.5 -15.5t15.5 -37.5t-15.5 -37.5t-37.5 -15.5t-37.5 15.5t-15.5 37.5z" horiz-adv-x="743"/>
<glyph glyph-name="uniFED7" unicode="ق" arabic-form="initial" d="M297 553q0 22 15.5 37.5t37.5 15.5t37.5 -15.5t15.5 -37.5t-15.5 -37.5t-37.5 -15.5t-37.5 15.5t-15.5 37.5zM167 553q0 22 15.5 37.5t37.5 15.5t37.5 -15.5t15.5 -37.5t-15.5 -37.5t-37.5 -15.5t-37.5 15.5t-15.5 37.5zM12 0q-40 0 -40 40q0 25 9.5 34t30.5 9h114 q-11 21 -19 46.5t-8 58.5q0 39 13 77t38 67.5t61.5 48t84.5 18.5q55 0 90 -20t55.5 -51t28.5 -68.5t8 -73.5v-186h-466zM177 201q0 -61 36 -89.5t88 -28.5h96v100q0 24 -4.5 48.5t-16.5 44t-33 32t-53 12.5q-53 0 -83 -35t-30 -84z" horiz-adv-x="536"/>
<glyph glyph-name="uniFED8" unicode="ق" arabic-form="medial" d="M165 201q0 -61 36 -89.5t88 -28.5h96v100q0 24 -4.5 48.5t-16.5 44t-33 32t-53 12.5q-53 0 -83 -35t-30 -84zM0 0q-40 0 -40 40q0 25 9.5 34t30.5 9h114q-11 21 -19 46.5t-8 58.5q0 39 13 77t38 67.5t61.5 48t84.5 18.5q55 0 90 -20t55.5 -51t28.5 -68.5t8 -73.5v-103h76 q40 0 40 -40q0 -25 -9.5 -34t-30.5 -9h-542zM282 553q0 22 15.5 37.5t37.5 15.5t37.5 -15.5t15.5 -37.5t-15.5 -37.5t-37.5 -15.5t-37.5 15.5t-15.5 37.5zM152 553q0 22 15.5 37.5t37.5 15.5t37.5 -15.5t15.5 -37.5t-15.5 -37.5t-37.5 -15.5t-37.5 15.5t-15.5 37.5z" horiz-adv-x="542"/>
<glyph glyph-name="uniFEDA" unicode="ك" arabic-form="final" d="M515 295h-183v46h45q-14 23 -14 50q0 22 7 39t19 28t27.5 17t31.5 6q17 0 29.5 -2t18.5 -7v-47q-20 9 -43 9q-24 0 -35 -14t-11 -31q0 -20 13 -34t39 -14h56v-46zM895 0q-39 0 -63 18.5t-32 46.5q-9 -21 -24 -33.5t-37.5 -19.5t-54.5 -9.5t-75 -2.5h-407q-58 0 -96.5 8 t-62 25.5t-33.5 45t-10 67.5v155h82v-125q0 -31 7.5 -49.5t25.5 -28t49 -12.5t79 -3h365q33 0 56 2t36.5 9.5t19.5 22t6 39.5v558h82v-521q0 -25 3.5 -45.5t13.5 -34.5t27 -22t43 -8q40 0 40 -40q0 -25 -9.5 -34t-30.5 -9z" horiz-adv-x="895"/>
<glyph glyph-name="uniFEDB" unicode="ك" arabic-form="initial" d="M0 0q-40 0 -40 40q0 25 9.5 34t30.5 9h239q37 0 61.5 13t24.5 50q0 26 -24.5 59.5t-65 68t-92.5 68t-108 60.5q1 12 6 24.5t11 23t12.5 18.5t10.5 11l366 161v-81l-294 -130q70 -41 119 -80t80 -75t44.5 -69.5t13.5 -63.5q0 -21 -6.5 -46t-24.5 -46t-51 -35t-85 -14h-237 z" horiz-adv-x="481"/>
<glyph glyph-name="uniFEDC" unicode="ك" arabic-form="medial" d="M0 0q-40 0 -40 40q0 25 9.5 34t30.5 9h224q55 0 79 17.5t24 46.5q0 27 -22 60.5t-61 68.5t-91.5 68t-113.5 60q1 12 4.5 25t8 24t9 18.5t9.5 9.5l374 161v-83l-294 -130q106 -53 168.5 -114.5t83.5 -122.5q12 -35 23 -56t23 -33t27 -16t34 -4q40 0 40 -40q0 -25 -9.5 -34 t-30.5 -9q-20 0 -38 2.5t-33.5 10.5t-28.5 23.5t-25 41.5h-4q-19 -47 -64 -62.5t-110 -15.5h-206z" horiz-adv-x="509"/>
<glyph glyph-name="uniFEDE" unicode="ل" arabic-form="final" d="M549 0q-4 -126 -75 -191t-199 -65q-68 0 -119.5 19t-86 53.5t-52 82t-17.5 105.5v154h81v-137q0 -195 196 -195q101 0 146 43.5t45 143.5v701h81v-631h78q40 0 40 -40q0 -25 -9.5 -34t-30.5 -9h-78z" horiz-adv-x="627"/>
<glyph glyph-name="uniFEDF" unicode="ل" arabic-form="initial" d="M0 0q-40 0 -40 40q0 25 9.5 34t30.5 9h156v631h82v-714h-238z" horiz-adv-x="308"/>
<glyph glyph-name="uniFEE0" unicode="ل" arabic-form="medial" d="M0 0q-40 0 -40 40q0 25 9.5 34t30.5 9h80q18 0 32 2t23.5 9.5t15 22t5.5 39.5v558h82v-521q0 -51 20.5 -80.5t65.5 -29.5q40 0 40 -40q0 -25 -9.5 -34t-30.5 -9q-39 0 -62.5 18.5t-31.5 46.5q-18 -41 -57.5 -53t-101.5 -12h-71z" horiz-adv-x="324"/>
<glyph glyph-name="uniFEE2" unicode="م" arabic-form="final" d="M443 177q0 22 -6.5 43t-19 37t-30.5 25.5t-42 9.5q-42 0 -81 -39t-62 -128q37 -24 73.5 -38.5t74.5 -14.5q42 0 67.5 24t25.5 81zM615 0q-38 0 -66 15t-45 51v2q-19 -38 -55.5 -59.5t-91.5 -21.5q-47 0 -95 16t-99 54q-27 -6 -43 -16.5t-24 -28t-10 -44t-2 -64.5v-304 h-84v306q0 51 5.5 88t21 64.5t43 47.5t71.5 35q12 67 36.5 112t53.5 72t60.5 38t58.5 11q38 0 70 -14.5t55.5 -41t37 -63t13.5 -81.5q0 -7 -0.5 -13.5t-0.5 -12.5q10 -32 29.5 -48.5t60.5 -16.5q40 0 40 -40q0 -25 -9.5 -34t-30.5 -9z" horiz-adv-x="615"/>
<glyph glyph-name="uniFEE3" unicode="م" arabic-form="initial" d="M443 177q0 22 -6.5 43t-19 37t-30.5 25.5t-42 9.5q-42 0 -77 -37t-66 -130q37 -24 73.5 -38.5t74.5 -14.5q42 0 67.5 24t25.5 81zM0 0q-40 0 -40 40q0 25 9.5 34t30.5 9h41q12 0 25 3t26 13t25.5 27.5t23.5 47.5q23 64 48.5 103.5t52 61t54 28.5t54.5 7q38 0 70 -14.5 t55.5 -41t37 -63t13.5 -81.5q0 -86 -41.5 -136.5t-127.5 -50.5q-47 0 -95 16t-99 54q-13 -20 -26.5 -31.5t-28.5 -17t-31 -7t-34 -1.5h-43z" horiz-adv-x="576"/>
<glyph glyph-name="uniFEE4" unicode="م" arabic-form="medial" d="M443 177q0 22 -6.5 43t-19 37t-30.5 25.5t-42 9.5q-42 0 -77 -37t-66 -130q37 -24 73.5 -38.5t74.5 -14.5q42 0 67.5 24t25.5 81zM615 0q-38 0 -66 15t-45 51v2q-19 -38 -55.5 -59.5t-91.5 -21.5q-47 0 -95 16t-99 54q-13 -20 -26.5 -31.5t-28.5 -17t-31 -7t-34 -1.5h-43 q-40 0 -40 40q0 25 9.5 34t30.5 9h41q12 0 25 3t26 13t25.5 27.5t23.5 47.5q23 64 48.5 103.5t52 61t54 28.5t54.5 7q38 0 70 -14.5t55.5 -41t37 -63t13.5 -81.5q0 -7 -0.5 -13.5t-0.5 -12.5q10 -32 29.5 -48.5t60.5 -16.5q40 0 40 -40q0 -25 -9.5 -34t-30.5 -9z" horiz-adv-x="615"/>
<glyph glyph-name="uniFEE6" unicode="ن" arabic-form="final" d="M636 0q-35 0 -55.5 14.5t-31.5 34.5v-37q0 -66 -18.5 -113t-53.5 -77t-86 -44t-116 -14q-137 0 -206 62t-69 178v154h81v-137q0 -97 49.5 -136t146.5 -39q50 0 86 7.5t59.5 26t34.5 51t11 82.5v257h81v-77q0 -25 3 -45.5t12.5 -34.5t26.5 -22t45 -8q40 0 40 -40 q0 -25 -9.5 -34t-30.5 -9zM230 357q0 22 15.5 37.5t37.5 15.5t37.5 -15.5t15.5 -37.5t-15.5 -37.5t-37.5 -15.5t-37.5 15.5t-15.5 37.5z" horiz-adv-x="636"/>
<glyph glyph-name="uniFEE7" unicode="ن" arabic-form="initial" d="M139 553q0 22 15.5 37.5t37.5 15.5t37.5 -15.5t15.5 -37.5t-15.5 -37.5t-37.5 -15.5t-37.5 15.5t-15.5 37.5zM-2 0q-40 0 -40 40q0 25 9.5 34t30.5 9h156v302h82v-385h-238z" horiz-adv-x="305"/>
<glyph glyph-name="uniFEE8" unicode="ن" arabic-form="medial" d="M0 0q-40 0 -40 40q0 25 9.5 34t30.5 9h67q24 0 41 2t28.5 9.5t17 22t5.5 39.5v229h82v-192q0 -25 3.5 -45.5t13.5 -34.5t27 -22t43 -8q40 0 40 -40q0 -25 -9.5 -34t-30.5 -9q-39 0 -63 18.5t-32 46.5q-18 -41 -56.5 -53t-94.5 -12h-82zM150 553q0 22 15.5 37.5t37.5 15.5 t37.5 -15.5t15.5 -37.5t-15.5 -37.5t-37.5 -15.5t-37.5 15.5t-15.5 37.5z" horiz-adv-x="328"/>
<glyph glyph-name="uniFEE9" unicode="ه" arabic-form="isolated" d="M513 83q0 107 -43.5 165t-118.5 81q17 -13 28 -30.5t18 -36t9.5 -37t2.5 -34.5q0 -38 -7 -64.5t-16 -43.5h127zM270 83q20 1 33 11.5t20.5 26t10.5 33.5t3 34q0 22 -4 42.5t-13 36.5t-23 25t-34 9q-35 0 -54.5 -32t-19.5 -83q0 -18 3.5 -36t12 -32.5t22 -24t34.5 -10.5h5 h4zM144 83q-10 14 -19 40t-9 64q0 25 6 50.5t18 47t30.5 38t43.5 25.5q-20 0 -40 -0.5t-41 -1.5v75q30 2 58 2q75 0 137 -12q86 -16 146 -57.5t91.5 -111t31.5 -169.5v-73h-491q-20 0 -30.5 -4.5t-15.5 -12.5t-6 -19.5t-1 -25.5h-39q-8 20 -11.5 40t-3.5 33q0 23 8 37.5 t20.5 22t27.5 10t29 2.5h60z" horiz-adv-x="648"/>
<glyph glyph-name="uniFEEA" unicode="ه" arabic-form="final" d="M187 82q-24 0 -55.5 7t-60 25.5t-48.5 52t-20 87.5t19 90.5t49 59.5t66.5 33t72.5 10h159v-287q0 -42 13 -59.5t58 -17.5h24q40 0 40 -40q0 -25 -9.5 -34t-30.5 -9h-34q-26 0 -49.5 4.5t-42 16t-31.5 30.5t-17 49q-22 -8 -49.5 -13t-53.5 -5zM83 261q0 -42 26.5 -68 t84.5 -26q22 0 47.5 5t45.5 13v178h-88q-48 0 -82 -24.5t-34 -77.5z" horiz-adv-x="464"/>
<glyph glyph-name="uniFEEB" unicode="ه" arabic-form="initial" d="M528 83q0 107 -43.5 165t-118.5 81q17 -13 28 -30.5t18 -36t9.5 -37t2.5 -34.5q0 -38 -7 -64.5t-16 -43.5h127zM281 83q21 0 35 10.5t22 26t11 34t3 34.5q0 22 -4 42.5t-13 36.5t-23 25t-34 9q-35 0 -54.5 -32t-19.5 -83q0 -18 3.5 -36t12 -32.5t22 -24t34.5 -10.5h5z M0 0q-40 0 -40 40q0 25 9.5 34t30.5 9h159q-10 14 -19 40t-9 64q0 25 6 50.5t18 47t30.5 38t43.5 25.5q-20 0 -40 -0.5t-41 -1.5v75q30 2 58 2q76 0 138 -12q86 -16 145.5 -57.5t91 -111t31.5 -169.5v-73h-612z" horiz-adv-x="662"/>
<glyph glyph-name="uniFEEC" unicode="ه" arabic-form="medial" d="M189 0v-19q0 -32 3.5 -59t14.5 -47t30.5 -31.5t51.5 -11.5q42 0 62.5 21t20.5 58q0 9 -3 24.5t-14.5 29.5t-33 24.5t-58.5 10.5h-74zM189 83h45q38 0 64.5 14.5t42.5 36t23 46t7 44.5q0 48 -24 70.5t-56 22.5q-49 0 -75.5 -43.5t-26.5 -124.5v-66zM409 0v-4 q25 -24 31.5 -50t6.5 -45q0 -29 -10 -56t-29.5 -47t-49 -32t-68.5 -12q-52 0 -87 16.5t-56.5 47t-30.5 74t-9 97.5v11h-107q-40 0 -40 40q0 25 9.5 34t30.5 9h107v58q0 123 49 190t136 67q44 0 74 -16t48.5 -40t26.5 -52t8 -52q0 -55 -21.5 -91.5t-49.5 -59.5v-4h145 q40 0 40 -40q0 -25 -9.5 -34t-30.5 -9h-114z" horiz-adv-x="522"/>
<glyph glyph-name="uniFEEE" unicode="و" arabic-form="final" d="M118 182q0 -51 29.5 -75t86.5 -24h107v66q0 74 -25 118t-86 44q-29 0 -50 -11.5t-34.5 -30t-20.5 -41.5t-7 -46zM423 0q-4 -61 -25.5 -101t-58.5 -64t-88.5 -34t-114.5 -10h-42v83h31q47 0 86 4.5t67.5 18t45 38.5t17.5 65h-113q-41 0 -75.5 9t-60 29.5t-40 53.5 t-14.5 82q0 41 13.5 80t39 69t62 48.5t83.5 18.5q52 0 88 -18.5t58.5 -52.5t32.5 -82t10 -107v-47h70q40 0 40 -40q0 -25 -9.5 -34t-30.5 -9h-72z" horiz-adv-x="495"/>
<glyph glyph-name="uniFEF0" unicode="ى" arabic-form="final" d="M641 0q11 -12 19 -33.5t8 -41.5q0 -30 -17.5 -59t-56.5 -51.5t-101.5 -36t-153.5 -13.5q-101 0 -166.5 18.5t-104 50.5t-53.5 75.5t-15 94.5v154h81v-139q0 -89 61 -130.5t199 -41.5q51 0 97 5.5t80.5 16t54.5 26.5t20 37q0 23 -23.5 41t-58 31.5t-73.5 24.5t-69 20v81 q127 -47 241 -47h101q40 0 40 -40q0 -25 -9.5 -34t-30.5 -9h-70z" horiz-adv-x="710"/>
<glyph glyph-name="uniFEF2" unicode="ي" arabic-form="final" d="M641 0q11 -12 19 -33.5t8 -41.5q0 -30 -17.5 -59t-56.5 -51.5t-101.5 -36t-153.5 -13.5q-101 0 -166.5 18.5t-104 50.5t-53.5 75.5t-15 94.5v154h81v-139q0 -89 61 -130.5t199 -41.5q51 0 97 5.5t80.5 16t54.5 26.5t20 37q0 23 -23.5 41t-58 31.5t-73.5 24.5t-69 20v81 q127 -47 241 -47h101q40 0 40 -40q0 -25 -9.5 -34t-30.5 -9h-70zM339 -389q0 22 15.5 37.5t37.5 15.5t37.5 -15.5t15.5 -37.5t-15.5 -37.5t-37.5 -15.5t-37.5 15.5t-15.5 37.5zM209 -389q0 22 15.5 37.5t37.5 15.5t37.5 -15.5t15.5 -37.5t-15.5 -37.5t-37.5 -15.5 t-37.5 15.5t-15.5 37.5z" horiz-adv-x="710"/>
<glyph glyph-name="uniFEF3" unicode="ي" arabic-form="initial" d="M0 0q-40 0 -40 40q0 25 9.5 34t30.5 9h156v302h82v-385h-238zM170 -151q0 22 15.5 37.5t37.5 15.5t37.5 -15.5t15.5 -37.5t-15.5 -37.5t-37.5 -15.5t-37.5 15.5t-15.5 37.5zM40 -151q0 22 15.5 37.5t37.5 15.5t37.5 -15.5t15.5 -37.5t-15.5 -37.5t-37.5 -15.5t-37.5 15.5 t-15.5 37.5z" horiz-adv-x="308"/>
<glyph glyph-name="uniFEF4" unicode="ي" arabic-form="medial" d="M0 0q-40 0 -40 40q0 25 9.5 34t30.5 9h67q24 0 41 2t28.5 9.5t17 22t5.5 39.5v229h82v-192q0 -25 3.5 -45.5t13.5 -34.5t27 -22t43 -8q40 0 40 -40q0 -25 -9.5 -34t-30.5 -9q-39 0 -63 18.5t-32 46.5q-18 -41 -56.5 -53t-94.5 -12h-82zM209 -151q0 22 15.5 37.5 t37.5 15.5t37.5 -15.5t15.5 -37.5t-15.5 -37.5t-37.5 -15.5t-37.5 15.5t-15.5 37.5zM79 -151q0 22 15.5 37.5t37.5 15.5t37.5 -15.5t15.5 -37.5t-15.5 -37.5t-37.5 -15.5t-37.5 15.5t-15.5 37.5z" horiz-adv-x="328"/>
<glyph glyph-name=".notdef" horiz-adv-x="278"/>
<glyph glyph-name=".null" horiz-adv-x="500"/>
<glyph glyph-name="nonmarkingreturn" unicode="" horiz-adv-x="200"/>
<glyph glyph-name="space" unicode=" " horiz-adv-x="278"/>
<glyph glyph-name="exclam" unicode="!" d="M74 111h111v-111h-111v111zM177 494l-25 -311h-45l-25 311v167h95v-167z" horiz-adv-x="259"/>
<glyph glyph-name="quotedbl" unicode='&quot;' d="M249 714h68v-258h-68v258zM109 714h68v-258h-68v258z" horiz-adv-x="426"/>
<glyph glyph-name="numbersign" unicode="#" d="M231 424l-21 -150h124l21 150h-124zM131 206h-97v68h107l21 150h-102v68h111l29 205h69l-29 -205h124l29 205h69l-29 -205h89v-68h-98l-21 -150h91v-68h-101l-29 -206h-69l29 206h-124l-29 -206h-69z"/>
<glyph glyph-name="dollar" unicode="$" d="M110 218q2 -67 41.5 -106t99.5 -49v265q-53 13 -91.5 28t-64 37t-37.5 53t-12 75q0 45 16 82.5t43.5 65t65 43.5t80.5 19v66h55v-67q81 -10 129 -60.5t68 -137.5h-85q-20 99 -112 116v-246l60 -16q19 -5 46.5 -17.5t52.5 -34.5t42.5 -55t17.5 -79q0 -48 -16.5 -86.5 t-45.5 -66.5t-69 -44t-88 -20v-82h-55v82q-99 10 -158.5 70.5t-67.5 164.5h85zM306 63q28 2 51.5 10.5t41 23.5t27 38.5t9.5 55.5q0 28 -10 48t-27 34t-41 23.5t-51 17.5v-251zM251 651q-48 -5 -81.5 -34.5t-33.5 -86.5q0 -27 8.5 -45t24 -30.5t36.5 -21.5t46 -16v234z"/>
<glyph glyph-name="percent" unicode="%" d="M167 508q0 -22 2.5 -47.5t11.5 -47t25.5 -36t44.5 -14.5t45.5 14t27 35.5t12.5 47.5t3 49q0 22 -2.5 47.5t-11.5 47t-26 36t-45 14.5t-45 -14.5t-26.5 -36t-12.5 -47.5t-3 -48zM92 506q0 40 8 77t27 65t50 44.5t77 16.5t77 -16t49.5 -43t26 -63.5t7.5 -77.5 q0 -39 -8.5 -75.5t-28 -64t-50 -44.5t-73.5 -17q-45 0 -76 15.5t-50 42.5t-27.5 63t-8.5 77zM661 188q0 -22 2.5 -47.5t11.5 -47t25.5 -36t44.5 -14.5t45.5 14t27 35.5t12.5 47.5t3 49q0 22 -2.5 47.5t-11.5 47t-26 36t-45 14.5t-45 -14.5t-26.5 -36t-12.5 -47.5t-3 -48z M586 186q0 40 8 77t27 65t50 44.5t77 16.5t77 -16t49.5 -43t26 -63.5t7.5 -77.5q0 -39 -8.5 -75.5t-28 -64t-50 -44.5t-73.5 -17q-45 0 -76 15.5t-50 42.5t-27.5 63t-8.5 77zM726 722h85l-537 -744h-86z" horiz-adv-x="1000"/>
<glyph glyph-name="ampersand" unicode="&amp;" d="M275 439q15 10 32 22t31 27t23 33.5t9 41.5q0 31 -22 53.5t-60 22.5q-30 0 -56 -18.5t-26 -57.5q0 -16 6.5 -32t16.5 -31.5t22 -30.5zM458 89q-16 -25 -38.5 -44t-49 -31.5t-56 -19t-58.5 -6.5q-72 0 -116 22.5t-68 53.5t-31.5 64t-7.5 55q0 42 13.5 74t36 57.5t53 46 t64.5 38.5q-15 21 -29 40t-25.5 38t-18 41t-6.5 49q0 29 10.5 55.5t31 47t50.5 32.5t69 12q33 0 64.5 -9t55.5 -27.5t38.5 -46t14.5 -63.5q0 -32 -11 -59.5t-30 -50.5t-43 -41.5t-50 -33.5l129 -157q20 54 23 111h81q-3 -32 -6.5 -54.5t-9 -41.5t-13.5 -37.5t-19 -42.5 l139 -161h-111zM247 345q-25 -14 -47.5 -29t-39.5 -34t-27 -42.5t-10 -55.5q0 -27 11.5 -49.5t30.5 -38t43.5 -24.5t50.5 -9q49 0 87.5 23t64.5 62z" horiz-adv-x="630"/>
<glyph glyph-name="quotesingle" unicode="&apos;" d="M105 714h68v-258h-68v258z" horiz-adv-x="278"/>
<glyph glyph-name="parenleft" unicode="(" d="M204 -198q-72 112 -114.5 224.5t-42.5 243.5q0 118 40 238t117 223h65q-72 -113 -102 -226t-30 -235q0 -126 30.5 -239.5t101.5 -228.5h-65z" horiz-adv-x="259"/>
<glyph glyph-name="parenright" unicode=")" d="M-10 -198q72 113 102 226t30 235q0 126 -30.5 239.5t-101.5 228.5h65q36 -56 65 -111.5t49.5 -113t31.5 -117.5t11 -126q0 -118 -40 -238t-117 -223h-65z" horiz-adv-x="259"/>
<glyph glyph-name="asterisk" unicode="*" d="M201 601l107 40l20 -48l-109 -38l66 -91l-41 -31l-69 96l-65 -96l-45 31l65 91l-106 38l18 48l106 -40v113h53v-113z" horiz-adv-x="352"/>
<glyph glyph-name="plus" unicode="+" d="M334 287h218v-68h-218v-219h-68v219h-218v68h218v219h68v-219z" horiz-adv-x="600"/>
<glyph glyph-name="comma" unicode="," d="M83 111h111v-101q0 -57 -26 -98.5t-84 -58.5v50q17 6 28.5 17t18 25t9.5 28.5t2 26.5h-59v111z" horiz-adv-x="278"/>
<glyph glyph-name="hyphen" unicode="-" d="M50 318h289v-80h-289v80z" horiz-adv-x="389"/>
<glyph glyph-name="period" unicode="." d="M83 111h111v-111h-111v111z" horiz-adv-x="278"/>
<glyph glyph-name="slash" unicode="/" d="M278 731h73l-296 -748h-73z" horiz-adv-x="333"/>
<glyph glyph-name="zero" unicode="0" d="M132 349q0 -40 2.5 -89.5t16 -93t43.5 -73.5t84 -30t84 30t43.5 73.5t16 93t2.5 89.5q0 26 -0.5 57.5t-5 63t-13 61.5t-25 52.5t-41.5 36.5t-61 14t-61 -14t-41.5 -36.5t-25 -52.5t-13 -61.5t-5 -63t-0.5 -57.5zM42 348q0 59 5.5 122.5t29 116.5t71 87.5t130.5 34.5 t130.5 -34.5t71 -87.5t29 -116.5t5.5 -122.5q0 -39 -2 -81t-10 -82t-23 -75.5t-41 -62.5t-65.5 -43t-94.5 -16t-94.5 16t-65.5 43t-41 62.5t-23 75.5t-10 82t-2 81z"/>
<glyph glyph-name="one" unicode="1" d="M356 0h-85v508h-184v68q36 0 70 5.5t61.5 20.5t46.5 41t26 66h65v-709z"/>
<glyph glyph-name="two" unicode="2" d="M44 458q-1 9 -1 18q0 44 13.5 86t42.5 75.5t73 52.5t100 19q46 0 86.5 -13.5t70.5 -39t47.5 -64t17.5 -87.5q0 -47 -14.5 -83t-38.5 -64.5t-55 -51.5t-64 -44q-33 -20 -66 -39.5t-60.5 -41.5t-47 -47.5t-25.5 -58.5h364v-75h-463q5 63 23 107.5t44.5 77.5t60 57.5 t71.5 47.5q45 28 79 51.5t56.5 47.5t34 52t11.5 65q0 29 -11 52.5t-29.5 40.5t-43.5 26t-53 9q-37 0 -63.5 -15.5t-43.5 -40.5t-24 -54.5t-7 -57.5v-8h-85z"/>
<glyph glyph-name="three" unicode="3" d="M218 405q10 -1 19 -1h18q27 0 51.5 7.5t43 22t29.5 36t11 50.5q0 56 -36 85t-90 29q-35 0 -60 -12.5t-41.5 -33.5t-24.5 -49t-8 -59h-85q2 51 16.5 93t41.5 72t67.5 47t93.5 17q46 0 85.5 -11.5t68.5 -34.5t45.5 -59t16.5 -85q0 -47 -28.5 -84.5t-69.5 -56.5v-2 q65 -14 96.5 -61t31.5 -111q0 -53 -19.5 -93.5t-52.5 -67.5t-77.5 -41t-94.5 -14q-54 0 -98 15.5t-75 45t-47 71.5t-16 93v6h85q2 -69 40 -112.5t111 -43.5q31 0 59 9.5t49 27t33.5 43t12.5 57.5q0 33 -12 58.5t-32 43t-48 26t-59 8.5q-27 0 -51 -3v72z"/>
<glyph glyph-name="four" unicode="4" d="M339 241v347h-2l-236 -347h238zM419 241h96v-75h-96v-166h-80v166h-311v82l323 461h68v-468z"/>
<glyph glyph-name="five" unicode="5" d="M470 622h-286l-38 -204l2 -2q23 26 59.5 38.5t72.5 12.5q47 0 89 -15t73 -45.5t49 -76t18 -106.5q0 -45 -15.5 -87.5t-46.5 -75.5t-77.5 -53t-108.5 -20q-46 0 -86.5 13.5t-71.5 40t-49 64t-19 85.5h85q2 -27 13.5 -50.5t31 -41t46 -27t58.5 -9.5q30 0 57.5 10.5t48 31.5 t32.5 52.5t12 73.5q0 35 -11.5 64.5t-32.5 51t-50.5 33.5t-65.5 12q-41 0 -74 -18.5t-58 -48.5l-73 4l66 368h350v-75z"/>
<glyph glyph-name="six" unicode="6" d="M414 528q-6 48 -37 77t-82 29q-54 0 -87.5 -26.5t-51.5 -67t-25 -87.5t-8 -88l2 -2q30 49 74.5 71t102.5 22q51 0 91.5 -17.5t68 -48.5t42.5 -73t15 -91q0 -39 -12 -81t-39.5 -77t-73 -57.5t-112.5 -22.5q-79 0 -127 32.5t-74 82.5t-34.5 110t-8.5 116q0 73 12.5 141.5 t42.5 121.5t80 85t126 32q88 0 140 -47t60 -134h-85zM286 381q-36 0 -63 -12.5t-46 -34t-28.5 -51t-9.5 -62.5t10 -62t28.5 -50t46 -33.5t62.5 -12.5q34 0 61 12.5t45 34.5t27.5 50t9.5 60q0 33 -8.5 62.5t-26.5 51t-45 34.5t-63 13z"/>
<glyph glyph-name="seven" unicode="7" d="M509 624q-54 -53 -101 -126t-83.5 -156t-59.5 -171t-28 -171h-95q6 90 29.5 175.5t60.5 164t85.5 148.5t104.5 129h-372v80h459v-73z"/>
<glyph glyph-name="eight" unicode="8" d="M155 525q0 -29 10 -50.5t27 -35.5t40 -21t49 -7q51 0 84 30t33 84t-33.5 81.5t-85.5 27.5q-26 0 -48.5 -7t-39 -21t-26.5 -34t-10 -47zM65 528q0 44 17 77.5t46 56.5t66.5 35t78.5 12q58 0 99 -15.5t66.5 -41t37.5 -58t12 -66.5q0 -48 -27 -87.5t-71 -59.5 q64 -20 95 -65.5t31 -111.5q0 -51 -18.5 -91.5t-50 -68t-74.5 -42t-92 -14.5q-51 0 -95 13.5t-76.5 40.5t-51 67.5t-18.5 94.5q0 63 32 109.5t92 67.5q-45 18 -72 58.5t-27 88.5zM130 200q0 -64 42.5 -100.5t108.5 -36.5q32 0 58.5 10.5t46 29t30 43.5t10.5 55 q0 29 -11.5 53.5t-31.5 42.5t-46.5 28.5t-56.5 10.5q-32 0 -59 -9.5t-47.5 -27.5t-32 -43t-11.5 -56z"/>
<glyph glyph-name="nine" unicode="9" d="M134 171q5 -52 42 -80t88 -28q78 0 117 68t43 206l-2 2q-24 -45 -68 -71.5t-96 -26.5q-54 0 -96 17.5t-70.5 48.5t-43 74.5t-14.5 96.5q0 51 17 93.5t48 73t74 47.5t94 17q49 0 93.5 -15.5t77.5 -53.5t52.5 -104t19.5 -166q0 -184 -58.5 -283t-187.5 -99 q-45 0 -82.5 11.5t-65.5 34.5t-45.5 57t-21.5 80h85zM409 472q0 33 -9.5 62t-28 51.5t-45.5 35.5t-63 13q-38 0 -64.5 -14t-43 -37.5t-24 -53.5t-7.5 -63q0 -29 10.5 -56t29 -48t44 -33.5t56.5 -12.5q33 0 60 12.5t46 34t29 49.5t10 60z"/>
<glyph glyph-name="colon" unicode=":" d="M194 406h-111v111h111v-111zM83 111h111v-111h-111v111z" horiz-adv-x="278"/>
<glyph glyph-name="semicolon" unicode=";" d="M194 406h-111v111h111v-111zM83 111h111v-101q1 -57 -25.5 -98.5t-84.5 -58.5v50q17 6 28.5 17t18 25t9.5 28.5t2 26.5h-59v111z" horiz-adv-x="278"/>
<glyph glyph-name="less" unicode="&lt;" d="M554 446l-425 -193l425 -193v-68l-508 230v62l508 230v-68z" horiz-adv-x="600"/>
<glyph glyph-name="equal" unicode="=" d="M48 186h504v-68h-504v68zM552 320h-504v68h504v-68z" horiz-adv-x="600"/>
<glyph glyph-name="greater" unicode="&gt;" d="M46 60l425 193l-425 193v68l508 -230v-62l-508 -230v68z" horiz-adv-x="600"/>
<glyph glyph-name="question" unicode="?" d="M218 111h111v-111h-111v111zM55 491v6q0 48 15 90.5t44 75t70.5 50.5t94.5 18q46 0 85 -13.5t67 -39t43.5 -62.5t15.5 -85q0 -31 -7.5 -55.5t-19.5 -44.5t-27.5 -37t-31.5 -33q-16 -15 -31.5 -30.5t-28 -33t-20 -38.5t-7.5 -46v-39h-85v47q0 31 8.5 55t21.5 44t29 36.5 t31 31.5t29.5 30t26 32.5t17 36.5t5.5 39v13q-4 55 -35.5 86t-85.5 31q-36 0 -62 -13t-43.5 -35t-25.5 -52.5t-8 -64.5h-85z"/>
<glyph glyph-name="at" unicode="@" d="M534 270q-4 -13 -7.5 -26.5t-3.5 -24.5q0 -14 5.5 -22.5t18.5 -8.5q23 0 47.5 21t44.5 54t33 74t13 81q0 59 -22.5 107t-60.5 81.5t-87 51.5t-101 18q-64 0 -119.5 -25.5t-96.5 -69.5t-64.5 -102t-23.5 -124q0 -67 24.5 -125t67 -100.5t98.5 -67t119 -24.5q36 0 71 8.5 t67.5 24.5t60.5 38.5t49 49.5h63q-24 -41 -58 -74t-74.5 -55.5t-86.5 -34.5t-94 -12q-79 0 -147.5 29t-119 80t-79.5 120t-29 148q0 77 29.5 144.5t80 118t118 79.5t143.5 29q69 0 131 -23t108.5 -63.5t73.5 -97.5t27 -124q0 -65 -23.5 -118.5t-58.5 -91.5t-76 -59t-76 -21 q-26 0 -44 16t-20 49h-3q-23 -26 -55 -46.5t-69 -20.5q-32 0 -58.5 12.5t-45 33.5t-29 50t-10.5 62q0 52 17 103t47.5 91t74 65t96.5 25q35 0 65 -18.5t47 -63.5l23 63h63zM420 505q-35 0 -64.5 -20.5t-50.5 -51.5t-33 -67.5t-12 -69.5q0 -42 24 -69.5t62 -27.5 q33 0 61 21.5t49 54t33 69.5t12 68q0 18 -7 35t-18 29.5t-25.5 20.5t-30.5 8z" horiz-adv-x="800"/>
<glyph glyph-name="A" unicode="A" d="M201 295h242l-119 333h-2zM272 714h105l279 -714h-105l-78 215h-302l-80 -215h-98z" horiz-adv-x="648"/>
<glyph glyph-name="B" unicode="B" d="M173 407h190q81 0 116.5 28.5t35.5 85.5q0 37 -12 59.5t-33 34.5t-48.5 15.5t-58.5 3.5h-190v-227zM78 714h259q24 0 50 -0.5t51.5 -3t48.5 -7.5t39 -15q35 -21 59.5 -58.5t24.5 -90.5q0 -57 -28 -98.5t-78 -61.5v-2q66 -14 101 -60t35 -112q0 -39 -14 -76t-41.5 -65.5 t-68 -46t-93.5 -17.5h-345v714zM173 80h238q62 0 98 34.5t36 93.5q0 35 -13 58t-34.5 36.5t-49.5 19t-58 5.5h-217v-247z" horiz-adv-x="685"/>
<glyph glyph-name="C" unicode="C" d="M580 499q-8 38 -26 66.5t-44.5 47.5t-59.5 28.5t-70 9.5q-64 0 -109.5 -24t-75 -64.5t-43.5 -92.5t-14 -108q0 -61 14 -115.5t43.5 -95t75.5 -64.5t110 -24q47 0 83.5 15.5t63 43t41.5 65.5t18 82h95q-14 -134 -93.5 -210t-215.5 -76q-83 0 -145 29t-103 79t-61.5 118 t-20.5 146t22 146.5t64.5 119.5t105.5 80.5t146 29.5q56 0 106 -15t89 -44t65 -72.5t34 -100.5h-95z" horiz-adv-x="722"/>
<glyph glyph-name="D" unicode="D" d="M173 80h158q16 0 40 2.5t51 12t53.5 27.5t47.5 49t34.5 77.5t13.5 112.5q0 64 -12.5 114.5t-41 85.5t-73.5 54t-111 19h-160v-554zM78 714h245q165 0 254 -84t89 -256q0 -90 -20 -159.5t-62 -117t-107 -72.5t-154 -25h-245v714z" horiz-adv-x="704"/>
<glyph glyph-name="E" unicode="E" d="M78 714h493v-80h-398v-227h371v-80h-371v-247h401v-80h-496v714z" horiz-adv-x="611"/>
<glyph glyph-name="F" unicode="F" d="M78 714h469v-80h-374v-227h328v-80h-328v-327h-95v714z" horiz-adv-x="574"/>
<glyph glyph-name="G" unicode="G" d="M612 89q-21 -28 -47.5 -48t-56.5 -33t-62 -19t-63 -6q-80 0 -143 30t-107 80t-67 115t-23 135q0 78 21.5 148.5t64 123.5t106 84.5t148.5 31.5q58 0 109.5 -13.5t92 -42.5t68 -73.5t37.5 -107.5h-95q-7 40 -26 70t-47 49t-63.5 28.5t-75.5 9.5q-65 0 -111.5 -26 t-76 -68.5t-43.5 -97t-14 -111.5q0 -56 16 -107.5t47 -91t76.5 -63t105.5 -23.5q55 0 98.5 18t73.5 49.5t43.5 71.5t13.5 82v12h-228v80h313v-376h-60z" horiz-adv-x="759"/>
<glyph glyph-name="H" unicode="H" d="M78 714h95v-307h376v307h95v-714h-95v327h-376v-327h-95v714z" horiz-adv-x="722"/>
<glyph glyph-name="I" unicode="I" d="M82 714h95v-714h-95v714z" horiz-adv-x="259"/>
<glyph glyph-name="J" unicode="J" d="M441 178q0 -36 -10.5 -71t-35 -62.5t-65 -44.5t-100.5 -17q-100 0 -154 53.5t-54 154.5v44h95v-30q0 -31 5 -57t17.5 -45t35 -29.5t57.5 -10.5q65 0 89.5 35t24.5 94v522h95v-536z" horiz-adv-x="519"/>
<glyph glyph-name="K" unicode="K" d="M78 714h95v-356l362 356h123l-301 -288l313 -426h-120l-258 361l-119 -111v-250h-95v714z" horiz-adv-x="667"/>
<glyph glyph-name="L" unicode="L" d="M78 714h95v-634h378v-80h-473v714z"/>
<glyph glyph-name="M" unicode="M" d="M80 714h130l225 -600l226 600h130v-714h-90v594h-2l-223 -594h-81l-223 594h-2v-594h-90v714z" horiz-adv-x="871"/>
<glyph glyph-name="N" unicode="N" d="M77 714h101l376 -579h2v579h90v-714h-104l-373 573h-2v-573h-90v714z" horiz-adv-x="722"/>
<glyph glyph-name="O" unicode="O" d="M133 357q0 -54 14 -106.5t44 -94.5t77 -67.5t112 -25.5t112 25.5t77 67.5t44 94.5t14 106.5t-14 106.5t-44 94.5t-77 67.5t-112 25.5t-112 -25.5t-77 -67.5t-44 -94.5t-14 -106.5zM38 357q0 73 21.5 140.5t64.5 119.5t107 83t149 31t149 -31t107 -83t64.5 -119.5 t21.5 -140.5t-21.5 -140.5t-64.5 -119.5t-107 -83t-149 -31t-149 31t-107 83t-64.5 119.5t-21.5 140.5z" horiz-adv-x="760"/>
<glyph glyph-name="P" unicode="P" d="M173 372h186h5q77 0 114 33.5t37 97.5t-37.5 97.5t-118.5 33.5h-186v-262zM78 714h313q107 0 163 -55.5t56 -155.5t-55.5 -155.5t-159.5 -55.5h-4h-218v-292h-95v714z" horiz-adv-x="648"/>
<glyph glyph-name="Q" unicode="Q" d="M450 204l95 -76q42 42 62 103t20 126q0 54 -14 106.5t-44 94.5t-77 67.5t-112 25.5t-112 -25.5t-77 -67.5t-44 -94.5t-14 -106.5t14 -106.5t44 -94.5t77 -67.5t112 -25.5q53 0 99 20l-79 63zM660 -62l-109 88q-72 -43 -171 -43q-85 0 -149 31t-107 83t-64.5 119.5 t-21.5 140.5t21.5 140.5t64.5 119.5t107 83t149 31t149 -31t107 -83t64.5 -119.5t21.5 -140.5q0 -82 -27 -156.5t-81 -127.5l94 -75z" horiz-adv-x="760"/>
<glyph glyph-name="R" unicode="R" d="M78 714h336q101 0 159 -50.5t58 -136.5q0 -65 -29.5 -114t-94.5 -67v-2q31 -6 50.5 -20t31.5 -33.5t17 -43.5t8 -50q2 -26 3.5 -53.5t5 -53t11 -49t22.5 -41.5h-106q-10 11 -13.5 30t-4.5 42.5t-2 50.5t-6 53q-4 26 -10 49.5t-19 41t-34.5 28t-55.5 10.5h-232v-305h-95 v714zM371 385q33 0 63 5t52.5 19.5t36 39t13.5 63.5q0 53 -30 87.5t-97 34.5h-236v-249h198z" horiz-adv-x="685"/>
<glyph glyph-name="S" unicode="S" d="M491 505q-8 77 -55.5 111.5t-121.5 34.5q-30 0 -59 -6t-51.5 -20t-36 -37.5t-13.5 -58.5q0 -33 19.5 -53.5t52 -33.5t73.5 -21.5t84 -18.5t84 -23.5t73 -36.5t51.5 -58.5t19.5 -87.5q0 -57 -25.5 -97.5t-65.5 -66t-89.5 -37.5t-98.5 -12q-60 0 -113.5 15t-94 46t-64 78.5 t-23.5 112.5h90q0 -45 17.5 -77.5t46 -53.5t66 -31t78.5 -10q32 0 64.5 6t58.5 20.5t42 39.5t16 64q0 37 -19.5 60t-51.5 37.5t-73 24t-84 18.5t-84 21.5t-73.5 33.5t-52 53t-19.5 81q0 54 22 93.5t58.5 65t83 38t95.5 12.5q55 0 102 -13t82 -41t56 -70.5t23 -101.5h-90z " horiz-adv-x="648"/>
<glyph glyph-name="T" unicode="T" d="M240 634h-238v80h571v-80h-238v-634h-95v634z" horiz-adv-x="574"/>
<glyph glyph-name="U" unicode="U" d="M648 258q0 -136 -73.5 -205.5t-207.5 -69.5q-69 0 -123.5 16t-92 50t-57.5 86t-20 123v456h95v-456q0 -95 51.5 -145t146.5 -50q91 0 138.5 50t47.5 145v456h95v-456z" horiz-adv-x="722"/>
<glyph glyph-name="V" unicode="V" d="M359 0h-108l-252 714h103l204 -619h2l206 619h99z" horiz-adv-x="611"/>
<glyph glyph-name="W" unicode="W" d="M723 0h-99l-163 600h-2l-165 -600h-99l-183 714h97l140 -594h2l160 594h103l158 -594h2l145 594h95z" horiz-adv-x="926"/>
<glyph glyph-name="X" unicode="X" d="M248 367l-235 347h114l178 -279l186 279h106l-236 -347l251 -367h-116l-192 295l-198 -295h-107z" horiz-adv-x="611"/>
<glyph glyph-name="Y" unicode="Y" d="M373 292v-292h-95v292l-276 422h113l214 -340l209 340h108z" horiz-adv-x="648"/>
<glyph glyph-name="Z" unicode="Z" d="M22 80l444 554h-410v80h522v-80l-443 -554h455v-80h-568v80z" horiz-adv-x="611"/>
<glyph glyph-name="bracketleft" unicode="[" d="M259 663h-107v-793h107v-68h-187v929h187v-68z" horiz-adv-x="259"/>
<glyph glyph-name="backslash" unicode="\" d="M351 -17h-73l-296 748h73z" horiz-adv-x="333"/>
<glyph glyph-name="bracketright" unicode="]" d="M0 -130h107v793h-107v68h187v-929h-187v68z" horiz-adv-x="259"/>
<glyph glyph-name="asciicircum" unicode="^" d="M268 697h64l218 -433h-70l-181 360l-178 -360h-71z" horiz-adv-x="600"/>
<glyph glyph-name="underscore" unicode="_" d="M0 -75h500v-50h-500v50z" horiz-adv-x="500"/>
<glyph glyph-name="grave" unicode="`" d="M-23 731h109l86 -143h-64z" horiz-adv-x="222"/>
<glyph glyph-name="a" unicode="a" d="M522 2q-23 -14 -61 -14q-33 0 -52.5 19t-19.5 61q-35 -42 -81.5 -61t-100.5 -19q-35 0 -66.5 8t-54.5 25.5t-36.5 45t-13.5 66.5q0 44 15 72t39.5 45t56 26.5t64.5 15.5q35 7 66.5 10.5t55.5 10t38 19t14 36.5q0 28 -10.5 45t-27 26t-37 12t-40.5 3q-54 0 -90 -20.5 t-39 -77.5h-85q2 48 20 81t48 53.5t69 29.5t82 9q35 0 69.5 -5t62.5 -20.5t45 -43.5t17 -73v-266q0 -30 3.5 -44t23.5 -14q12 0 26 5v-66zM384 267q-12 -9 -30 -14t-38 -8.5t-42.5 -6t-43.5 -6.5t-40 -10t-33 -16.5t-22.5 -26.5t-8.5 -40q0 -21 8.5 -35.5t22 -23.5t31.5 -13 t38 -4q42 0 72 11.5t49 29t28 38t9 38.5v87z" horiz-adv-x="537"/>
<glyph glyph-name="b" unicode="b" d="M67 714h85v-267h2q21 43 66 62.5t99 19.5q60 0 104.5 -22t74 -59.5t44.5 -86.5t15 -104t-14.5 -104t-44 -85.5t-74 -58t-103.5 -21.5q-20 0 -43 4t-46 13.5t-43.5 25t-34.5 38.5h-2v-69h-85v714zM467 263q0 36 -9.5 70.5t-29 61.5t-50 43t-71.5 16q-43 0 -73 -17 t-49 -44.5t-27.5 -62.5t-8.5 -71q0 -38 9 -73.5t28.5 -62.5t50.5 -43.5t75 -16.5q43 0 73 17t48 45t26 64t8 74z" horiz-adv-x="593"/>
<glyph glyph-name="c" unicode="c" d="M415 351q-10 49 -42.5 76t-85.5 27q-46 0 -77 -17t-49.5 -45t-26.5 -64.5t-8 -75.5q0 -36 8.5 -70t26.5 -60.5t46.5 -42.5t69.5 -16q62 0 98 33.5t44 92.5h87q-14 -95 -72 -148t-156 -53q-59 0 -104.5 19.5t-76 54.5t-46 83.5t-15.5 106.5t15 108.5t45.5 88t76 59 t107.5 21.5q44 0 82.5 -10.5t68.5 -32.5t48.5 -55.5t23.5 -79.5h-88z" horiz-adv-x="537"/>
<glyph glyph-name="d" unicode="d" d="M126 254q0 -36 9.5 -70.5t29 -61.5t50 -43t71.5 -16q43 0 73 17t49 44.5t27.5 62.5t8.5 71q0 38 -9 73.5t-28.5 62.5t-50.5 43.5t-75 16.5t-73.5 -17t-47.5 -45t-26 -64t-8 -74zM526 0h-85v70h-2q-21 -43 -66 -62.5t-99 -19.5q-60 0 -104.5 22t-74 59.5t-44.5 86.5 t-15 104t14.5 103.5t44 85.5t74 58.5t103.5 21.5q20 0 43 -4t46 -13.5t43.5 -25t34.5 -38.5h2v266h85v-714z" horiz-adv-x="593"/>
<glyph glyph-name="e" unicode="e" d="M423 308q-2 30 -13.5 57t-31 46.5t-46.5 31t-58 11.5q-33 0 -59.5 -11.5t-45.5 -31.5t-30 -46.5t-13 -56.5h297zM505 164q-17 -86 -75 -131t-146 -45q-62 0 -107.5 20.5t-76.5 56.5t-46.5 86t-17.5 109q0 58 18 107.5t50.5 85.5t77 56t97.5 20q69 0 114.5 -28.5t73 -72.5 t37 -92t9.5 -88v-15h-387v-7q0 -30 8.5 -59t28.5 -52.5t51 -37.5t73 -14q53 0 88 25t46 76h84z" horiz-adv-x="537"/>
<glyph glyph-name="f" unicode="f" d="M99 442h-87v75h87v77q0 63 36.5 95.5t106.5 32.5q12 0 27.5 -2t27.5 -6v-74q-11 4 -24 5.5t-24 1.5q-31 0 -48 -12t-17 -46v-72h100v-75h-100v-442h-85v442z" horiz-adv-x="296"/>
<glyph glyph-name="g" unicode="g" d="M510 44q0 -127 -58.5 -190.5t-181.5 -63.5q-36 0 -73.5 8t-68 26t-50.5 47t-22 71h85q1 -23 14.5 -39t33 -26t42.5 -14.5t44 -4.5q42 0 71 14.5t48 40t27.5 61.5t8.5 80v34h-2q-11 -24 -28 -41.5t-38.5 -29t-46 -17.5t-48.5 -6q-58 0 -101 21t-72 57t-43.5 83.5 t-14.5 100.5q0 46 12 94t40 88t74 65.5t113 25.5q49 0 90 -21.5t64 -64.5h1v74h80v-473zM272 69q42 0 71.5 17.5t47.5 46t26.5 64.5t8.5 72q0 34 -8 67t-25.5 59.5t-45.5 42.5t-68 16q-41 0 -70 -15.5t-47.5 -41.5t-27 -60t-8.5 -71q0 -35 7 -70t24 -63.5t45 -46t70 -17.5z " horiz-adv-x="574"/>
<glyph glyph-name="h" unicode="h" d="M64 714h85v-273h2q10 23 28.5 40t40.5 27.5t46.5 15.5t47.5 5q51 0 85 -14t55 -39t29.5 -59.5t8.5 -76.5v-340h-85v350q0 48 -28 76t-77 28q-39 0 -67.5 -12t-47.5 -34t-28.5 -51.5t-9.5 -64.5v-292h-85v714z"/>
<glyph glyph-name="i" unicode="i" d="M154 610h-85v104h85v-104zM69 517h85v-517h-85v517z" horiz-adv-x="222"/>
<glyph glyph-name="j" unicode="j" d="M154 610h-85v104h85v-104zM154 -66q0 -69 -33.5 -100.5t-90.5 -31.5q-11 0 -22 1t-22 3v73q9 -2 17.5 -2h17.5q28 0 38 15.5t10 55.5v569h85v-583z" horiz-adv-x="222"/>
<glyph glyph-name="k" unicode="k" d="M69 714h85v-423l236 226h114l-205 -188l220 -329h-108l-177 270l-80 -74v-196h-85v714z" horiz-adv-x="519"/>
<glyph glyph-name="l" unicode="l" d="M69 714h85v-714h-85v714z" horiz-adv-x="222"/>
<glyph glyph-name="m" unicode="m" d="M64 517h80v-76h2q58 88 167 88q48 0 87 -20t55 -68q26 42 69 65t93 23q39 0 70.5 -8.5t54 -26.5t35 -46.5t12.5 -68.5v-379h-85v339q0 24 -4 45t-15 36.5t-30.5 24.5t-50.5 9q-62 0 -98.5 -36t-36.5 -96v-322h-85v339q0 25 -4.5 46t-15.5 36.5t-30 24t-47 8.5 q-38 0 -64 -15t-42.5 -36t-24 -43.5t-7.5 -37.5v-322h-85v517z" horiz-adv-x="853"/>
<glyph glyph-name="n" unicode="n" d="M64 517h80v-82h2q27 48 69.5 71t98.5 23q51 0 85 -14t55 -39t29.5 -59.5t8.5 -76.5v-340h-85v350q0 48 -28 76t-77 28q-39 0 -67.5 -12t-47.5 -34t-28.5 -51.5t-9.5 -64.5v-292h-85v517z"/>
<glyph glyph-name="o" unicode="o" d="M126 258q0 -47 12.5 -83.5t34.5 -61t51.5 -37.5t62.5 -13t62.5 13t51.5 37.5t34.5 61t12.5 83.5t-12.5 83.5t-34.5 61.5t-51.5 38t-62.5 13t-62.5 -13t-51.5 -38t-34.5 -61.5t-12.5 -83.5zM36 258q0 57 16 106.5t48 86t78.5 57.5t108.5 21q61 0 108 -21t79 -57.5t48 -86 t16 -106.5t-16 -106t-48 -85.5t-79 -57.5t-108 -21q-62 0 -108.5 21t-78.5 57.5t-48 85.5t-16 106z" horiz-adv-x="574"/>
<glyph glyph-name="p" unicode="p" d="M67 517h85v-70h2q21 43 66 62.5t99 19.5q60 0 104.5 -22t74 -59.5t44.5 -86.5t15 -104t-14.5 -104t-44 -85.5t-74 -58t-103.5 -21.5q-20 0 -43 4t-46 13.5t-43.5 25t-34.5 38.5h-2v-267h-85v715zM467 263q0 36 -9.5 70.5t-29 61.5t-50 43t-71.5 16q-43 0 -73 -17 t-49 -44.5t-27.5 -62.5t-8.5 -71q0 -38 9 -73.5t28.5 -62.5t50.5 -43.5t75 -16.5q43 0 73 17t48 45t26 64t8 74z" horiz-adv-x="593"/>
<glyph glyph-name="q" unicode="q" d="M126 254q0 -36 9.5 -70.5t29 -61.5t50 -43t71.5 -16q43 0 73 17t49 44.5t27.5 62.5t8.5 71q0 38 -9 73.5t-28.5 62.5t-50.5 43.5t-75 16.5t-73.5 -17t-47.5 -45t-26 -64t-8 -74zM526 -198h-85v268h-2q-21 -43 -66 -62.5t-99 -19.5q-60 0 -104.5 22t-74 59.5t-44.5 86.5 t-15 104t14.5 103.5t44 85.5t74 58.5t103.5 21.5q20 0 43 -4t46 -13.5t43.5 -25t34.5 -38.5h2v69h85v-715z" horiz-adv-x="593"/>
<glyph glyph-name="r" unicode="r" d="M61 517h80v-109h2q31 63 74.5 92t106.5 29h9v-90q-51 0 -87 -14t-58 -41t-32 -66t-10 -88v-230h-85v517z" horiz-adv-x="333"/>
<glyph glyph-name="s" unicode="s" d="M116 163q1 -29 13 -48t31.5 -30.5t44 -16.5t50.5 -5q20 0 42 3t40.5 11t30.5 23.5t12 39.5q0 25 -14.5 40.5t-38 25.5t-54 16.5t-62.5 13.5t-62 17t-54 26t-38.5 41t-14.5 62q0 39 17.5 67t45 45.5t62 26t68.5 8.5q43 0 80.5 -7.5t66 -26t45.5 -50t20 -78.5h-85 q-2 25 -13.5 41.5t-28 26.5t-37 14.5t-41.5 4.5q-19 0 -38.5 -3t-35.5 -10.5t-26 -20.5t-10 -32q0 -23 15.5 -37t39.5 -23.5t54 -16t60 -13.5q32 -7 62.5 -17t54 -26.5t38 -41.5t14.5 -62q0 -46 -19.5 -77.5t-51 -50.5t-71 -27t-78.5 -8q-44 0 -82.5 9.5t-68.5 30t-48 54 t-20 81.5h85z" horiz-adv-x="500"/>
<glyph glyph-name="t" unicode="t" d="M182 517h103v-75h-103v-321q0 -15 2.5 -24t9.5 -14t19.5 -6.5t32.5 -1.5h39v-75h-65q-33 0 -56.5 4.5t-38 16.5t-21.5 34t-7 58v329h-88v75h88v155h85v-155z" horiz-adv-x="315"/>
<glyph glyph-name="u" unicode="u" d="M492 0h-80v82h-2q-27 -48 -69.5 -71t-98.5 -23q-51 0 -85 14t-55 39t-29.5 59.5t-8.5 76.5v340h85v-350q0 -48 28 -76t77 -28q39 0 67.5 12t47.5 34t28.5 51.5t9.5 64.5v292h85v-517z"/>
<glyph glyph-name="v" unicode="v" d="M297 0h-91l-192 517h95l145 -431h2l141 431h89z" horiz-adv-x="500"/>
<glyph glyph-name="w" unicode="w" d="M576 0h-90l-105 411h-2l-104 -411h-92l-166 517h94l117 -423h2l104 423h93l108 -423h2l116 423h88z" horiz-adv-x="758"/>
<glyph glyph-name="x" unicode="x" d="M203 272l-180 245h109l124 -181l129 181h102l-178 -238l200 -279h-109l-144 214l-144 -214h-103z" horiz-adv-x="518"/>
<glyph glyph-name="y" unicode="y" d="M267 -69q-15 -38 -29.5 -64t-31.5 -42.5t-39 -24t-50 -7.5q-15 0 -30 2t-29 7v78q12 -4 24.5 -8t25.5 -4q26 0 42 12t28 35l35 88l-205 514h96l151 -423h2l145 423h90z" horiz-adv-x="500"/>
<glyph glyph-name="z" unicode="z" d="M22 65l312 377h-292v75h402v-58l-316 -384h330v-75h-436v65z" horiz-adv-x="480"/>
<glyph glyph-name="braceleft" unicode="{" d="M309 671h-50q-15 0 -24 -7.5t-14.5 -19.5t-7.5 -27.5t-2 -31.5v-183q0 -35 -10.5 -59.5t-24.5 -40.5t-28.5 -24t-23.5 -10v-3q9 -1 23.5 -8t28.5 -22t24.5 -40.5t10.5 -63.5v-183q0 -15 2 -30.5t7.5 -28t14.5 -20t24 -7.5h50v-60h-70q-19 0 -38 8.5t-34.5 25t-25.5 41 t-10 56.5v182q0 55 -25.5 86t-57.5 31v68q16 0 31 8.5t26.5 24t18.5 37.5t7 48v182q0 32 10 56.5t25.5 41t34.5 25t38 8.5h70v-60z" horiz-adv-x="333"/>
<glyph glyph-name="bar" unicode="|" d="M77 786h68v-1000h-68v1000z" horiz-adv-x="222"/>
<glyph glyph-name="braceright" unicode="}" d="M24 -138h50q15 0 24 7.5t14.5 19.5t7.5 27.5t2 31.5v183q0 35 10.5 59.5t24.5 40.5t28.5 24t23.5 10v3q-9 1 -23.5 8t-28.5 22t-24.5 40.5t-10.5 63.5v181q0 16 -2 32t-7.5 28.5t-14.5 20t-24 7.5h-50v60h70q19 0 38 -8.5t34.5 -25t25.5 -41t10 -56.5v-182q0 -27 7 -49 t18.5 -37.5t26.5 -23.5t31 -8v-68q-16 0 -31 -8.5t-26.5 -24t-18.5 -37t-7 -47.5v-182q0 -32 -10 -56.5t-25.5 -41t-34.5 -25t-38 -8.5h-70v60z" horiz-adv-x="333"/>
<glyph glyph-name="asciitilde" unicode="~" d="M531 269q-11 -16 -23.5 -31.5t-27 -27.5t-33 -19.5t-41.5 -7.5q-28 0 -52.5 9.5t-49.5 23.5q-24 14 -52 26.5t-63 12.5q-17 0 -29.5 -7t-23 -18t-18 -24.5t-13.5 -26.5l-36 50q8 16 19.5 31.5t26.5 27.5t34.5 19.5t44.5 7.5q26 0 54 -9.5t57 -22.5q28 -12 55 -26t47 -14 q15 0 27.5 7t23 18t19.5 24.5t18 26.5z" horiz-adv-x="600"/>
<glyph glyph-name="exclamdown" unicode="¡" d="M185 406h-111v111h111v-111zM82 22l25 311h45l25 -311v-220h-95v220z" horiz-adv-x="259"/>
<glyph glyph-name="cent" unicode="¢" d="M272 -12q-55 2 -97 23t-70.5 56t-43.5 82t-15 103q0 54 14 102.5t42.5 86t71 61t98.5 27.5v95h39v-95q82 -2 137 -44.5t66 -133.5h-87q-10 46 -39 73.5t-77 29.5v-391q54 5 83.5 40t37.5 86h85q-4 -37 -19 -73t-41 -64.5t-62.5 -46t-83.5 -17.5v-104h-39v104zM272 454 q-39 -5 -65 -23t-41.5 -45.5t-22.5 -62t-7 -71.5q0 -34 7.5 -67t24 -59t42.5 -43t62 -20v391z"/>
<glyph glyph-name="sterling" unicode="£" d="M47 372h58q-20 34 -33.5 71.5t-13.5 84.5q0 48 18.5 85.5t50 63.5t72.5 40t87 14q111 0 173.5 -63.5t62.5 -186.5v-8h-85q-2 87 -38 135t-108 48q-30 0 -56 -10t-45.5 -27.5t-30.5 -41.5t-11 -52q0 -25 5 -45t12.5 -38t16.5 -35t18 -35h159v-45h-137q8 -16 14 -35t6 -40 q0 -34 -9.5 -60.5t-26 -49t-37.5 -41.5t-43 -37l2 -2q26 11 50.5 20t54.5 9q29 0 52 -5t43 -10q20 -6 40.5 -12t43.5 -6q24 0 47.5 11.5t41.5 25.5l43 -66q-30 -26 -68.5 -36t-77.5 -10q-25 0 -49 6t-50 14q-25 8 -50.5 14.5t-54.5 6.5t-53 -9.5t-47 -25.5l-47 66 q21 14 41 33t35.5 42t24.5 49t9 55q0 23 -8 48t-17 45h-85v45z"/>
<glyph glyph-name="currency" unicode="¤" d="M80 203q-25 29 -37.5 66.5t-12.5 79.5t12 80.5t38 67.5l-56 54l51 52l55 -55q29 23 68.5 36t79.5 13q42 0 81 -13t69 -36l54 55l50 -52l-54 -54q24 -27 36 -66.5t12 -81.5t-12 -79.5t-36 -66.5l54 -57l-50 -51l-54 57q-29 -25 -68 -38t-82 -13q-42 0 -80.5 12.5 t-67.5 38.5l-55 -57l-51 51zM118 349q0 -35 12.5 -65t34.5 -52.5t51 -35.5t62 -13q34 0 63.5 13.5t51 36.5t33.5 53t12 63t-12 63t-33.5 53t-51 36.5t-63.5 13.5q-33 0 -62.5 -13t-51 -35.5t-34 -53t-12.5 -64.5z"/>
<glyph glyph-name="yen" unicode="¥" d="M232 174h-141v60h141v42l-18 33h-123v60h92l-183 345h109l174 -353l169 353h104l-178 -345h93v-60h-126l-18 -33v-42h144v-60h-144v-174h-95v174z"/>
<glyph glyph-name="brokenbar" unicode="¦" d="M145 411h-68v250h68v-250zM77 161h68v-250h-68v250z" horiz-adv-x="222"/>
<glyph glyph-name="section" unicode="§" d="M380 546q-1 46 -27 78t-74 32q-40 0 -67.5 -21t-27.5 -65q0 -24 14 -43.5t37.5 -37t53 -33.5t61.5 -33q31 -17 61 -35.5t53 -41.5t37.5 -52t14.5 -65q0 -24 -8 -47t-21.5 -42.5t-33 -34t-41.5 -23.5q59 -44 59 -120q0 -36 -14 -65.5t-39 -50.5t-59.5 -32.5t-74.5 -11.5 q-89 0 -142 50.5t-59 138.5h85q1 -51 32 -82.5t82 -31.5q18 0 36.5 5t32.5 15.5t23 26t9 36.5q0 26 -15 47t-39.5 39t-55.5 35t-64 35q-32 17 -63.5 36.5t-56 44.5t-39.5 56t-15 72q0 23 8.5 45.5t23 41t34 32t41.5 19.5q-22 23 -34 48.5t-12 57.5q0 39 16 69t42 51t59 31.5 t68 10.5q82 0 132 -45.5t52 -139.5h-85zM190 420q-29 -10 -51 -34.5t-22 -56.5q0 -24 9.5 -42t24.5 -32t34 -25.5t37 -22.5q36 -19 71 -39.5t69 -43.5q29 12 50.5 35.5t21.5 57.5q0 21 -10.5 38.5t-26.5 32t-34.5 26t-34.5 21.5q-35 21 -69.5 41.5t-68.5 43.5z"/>
<glyph glyph-name="dieresis" unicode="¨" d="M-28 696h90v-104h-90v104zM160 696h90v-104h-90v104z" horiz-adv-x="222"/>
<glyph glyph-name="copyright" unicode="©" d="M599 285q-16 -73 -66.5 -115t-119.5 -42q-51 0 -92 17.5t-70 48t-44.5 72.5t-15.5 91q0 50 15 92t43 72t69 47t92 17q36 0 67.5 -9.5t56.5 -29t41.5 -48t22.5 -65.5h-63q-8 42 -41 69.5t-83 27.5q-37 0 -65.5 -13t-47.5 -36.5t-29 -54.5t-10 -67q0 -35 10.5 -67t30.5 -56 t48.5 -38.5t64.5 -14.5q50 0 82.5 28.5t39.5 73.5h64zM92 359q0 -69 23.5 -127.5t65 -101.5t98 -67.5t122.5 -24.5q65 0 121 24.5t97.5 67.5t65 101.5t23.5 127.5q0 67 -23.5 124.5t-65 100.5t-97.5 67.5t-121 24.5q-66 0 -122.5 -24.5t-98 -67.5t-65 -100.5t-23.5 -124.5z M24 359q0 79 30 147t81.5 118t120 78.5t145.5 28.5q76 0 144.5 -28.5t119.5 -78.5t81 -118t30 -147q0 -81 -30 -149.5t-81 -119t-119.5 -79t-144.5 -28.5q-77 0 -145.5 28.5t-120 79t-81.5 119t-30 149.5z" horiz-adv-x="800"/>
<glyph glyph-name="ordfeminine" unicode="ª" d="M155 430q28 0 47.5 6.5t31.5 16.5t17.5 22.5t5.5 23.5v47q-16 -10 -44 -14t-56 -9q-27 -5 -45.5 -15.5t-18.5 -36.5t18.5 -33.5t43.5 -7.5zM317 462q0 -18 3 -25t11 -7h11t11 2v-44q-10 -4 -20 -6t-23 -2q-48 0 -51 46q-44 -46 -117 -46q-24 0 -45 5t-37 16t-25.5 28 t-9.5 40q0 26 10.5 44t27.5 29.5t38.5 17.5t43.5 8q35 4 57.5 7t35 7.5t17.5 11t5 16.5q0 16 -6.5 26t-17.5 15t-25 6.5t-28 1.5q-36 0 -58.5 -12t-24.5 -44h-60q1 29 13.5 49t32.5 33t46 18.5t55 5.5q22 0 45.5 -3.5t42 -13t30.5 -26.5t12 -44v-160z" horiz-adv-x="378"/>
<glyph glyph-name="guillemotleft" unicode="«" d="M50 234v88l152 120v-86l-100 -78l100 -78v-86zM246 234v88l152 120v-86l-100 -78l100 -78v-86z" horiz-adv-x="463"/>
<glyph glyph-name="logicalnot" unicode="¬" d="M552 109h-68v211h-436v68h504v-279z" horiz-adv-x="600"/>
<glyph glyph-name="registered" unicode="®" d="M323 382h71q22 0 43 1.5t37 8.5t25.5 21.5t9.5 40.5q0 22 -8.5 35t-22 20t-31 9.5t-34.5 2.5h-90v-139zM255 576h169q78 0 115.5 -31t37.5 -94q0 -59 -33 -86.5t-82 -32.5l125 -193h-73l-119 188h-72v-188h-68v437zM92 359q0 -69 23.5 -127.5t65 -101.5t98 -67.5 t122.5 -24.5q65 0 121 24.5t97.5 67.5t65 101.5t23.5 127.5q0 67 -23.5 125t-65 100.5t-97.5 67t-121 24.5q-66 0 -122.5 -24.5t-98 -67t-65 -100.5t-23.5 -125zM24 359q0 79 30 147t81.5 118t120 78.5t145.5 28.5q76 0 144.5 -28.5t119.5 -78.5t81 -118t30 -147 q0 -81 -30 -149.5t-81 -119t-119.5 -79t-144.5 -28.5q-77 0 -145.5 28.5t-120 79t-81.5 119t-30 149.5z" horiz-adv-x="800"/>
<glyph glyph-name="macron" unicode="¯" d="M-59 675h341v-55h-341v55z" horiz-adv-x="222"/>
<glyph glyph-name="degree" unicode="°" d="M106 565q0 -18 6.5 -34.5t18.5 -30t29.5 -21.5t39.5 -8t39.5 8t29.5 21.5t18.5 30t6.5 34.5t-6.5 34.5t-18.5 30t-29.5 21.5t-39.5 8t-39.5 -8t-29.5 -21.5t-18.5 -30t-6.5 -34.5zM56 565q0 30 11 56t30.5 45.5t46 31t56.5 11.5t56 -11.5t45.5 -31t31 -45.5t11.5 -56 t-11.5 -56.5t-31 -46t-45.5 -30.5t-56 -11t-56.5 11t-46 30.5t-30.5 46t-11 56.5z" horiz-adv-x="400"/>
<glyph glyph-name="plusminus" unicode="±" d="M48 68h504v-68h-504v68zM48 339h218v166h68v-166h218v-68h-218v-167h-68v167h-218v68z" horiz-adv-x="600"/>
<glyph glyph-name="twosuperior" unicode="²" d="M22 555q0 69 41.5 111.5t111.5 42.5q30 0 57 -8.5t47.5 -24.5t32 -39.5t11.5 -53.5q0 -28 -10 -49.5t-25.5 -38.5t-36 -31t-41.5 -26q-21 -13 -42.5 -25t-39 -24t-30 -25.5t-16.5 -28.5h235v-55h-303q2 38 12.5 64.5t27.5 46.5t39 34.5t46 28.5q29 17 51 31t36.5 28.5 t21.5 31.5t7 39q0 32 -24 51t-59 19q-45 0 -63.5 -30t-18.5 -69h-68z" horiz-adv-x="333"/>
<glyph glyph-name="threesuperior" unicode="³" d="M132 527h24q33 0 58 15t25 50q0 30 -22 46t-55 16q-41 0 -60.5 -24.5t-19.5 -61.5h-68q4 65 42.5 103t105.5 38q31 0 57.5 -7.5t46 -22t30.5 -36.5t11 -51t-20 -51.5t-48 -33.5v-2q44 -8 65.5 -36t21.5 -66q0 -33 -13.5 -57.5t-36 -40.5t-52 -24t-60.5 -8q-33 0 -62.5 9 t-51 26.5t-34 44t-12.5 61.5h68q1 -42 24.5 -64t67.5 -22q38 0 66 19t28 53q0 21 -8 35.5t-21 24t-29.5 13.5t-34.5 4h-33v50z" horiz-adv-x="333"/>
<glyph glyph-name="acute" unicode="´" d="M136 731h109l-131 -143h-64z" horiz-adv-x="222"/>
<glyph glyph-name="paragraph" unicode="¶" d="M515 -155h-68v814h-122v-814h-68v477q-46 0 -84.5 14.5t-66 39.5t-43 59t-15.5 73q0 98 61 152t167 54h239v-869z" horiz-adv-x="600"/>
<glyph glyph-name="periodcentered" unicode="·" d="M75 311q0 26 19 45t45 19t45 -19t19 -45q0 -24 -19 -44t-44 -20q-26 0 -45.5 19t-19.5 45z" horiz-adv-x="278"/>
<glyph glyph-name="cedilla" unicode="¸" d="M23 -147q12 -5 28.5 -9t32.5 -4q10 0 21 1.5t20 5.5t15 9.5t6 14.5q0 14 -13.5 22.5t-33.5 8.5q-12 0 -21 -2t-20 -6l-17 28l61 78h42l-42 -53l2 -2q10 7 33 7q16 0 31 -4.5t27 -13.5t19 -23t7 -32q0 -25 -11.5 -42t-29.5 -27.5t-40 -15t-43 -4.5q-24 0 -46.5 5.5 t-45.5 13.5z" horiz-adv-x="222"/>
<glyph glyph-name="onesuperior" unicode="¹" d="M249 280h-68v308h-115v50q24 0 46 3.5t40 11.5t30 21.5t17 34.5h50v-429z" horiz-adv-x="333"/>
<glyph glyph-name="ordmasculine" unicode="º" d="M192 659q-41 0 -70 -28t-29 -88q0 -23 5.5 -43t17.5 -36t31 -25t46 -9t45.5 9t30 24.5t17 35.5t5.5 43q0 36 -9.5 59t-24 36t-32 17.5t-33.5 4.5zM192 709q41 0 72 -12.5t52 -35t32 -53t11 -65.5q0 -72 -42 -117.5t-124 -45.5q-40 0 -71 12t-52.5 34t-33 51.5t-11.5 65.5 q0 35 11 65t32 52.5t52 35.5t72 13z" horiz-adv-x="384"/>
<glyph glyph-name="guillemotright" unicode="»" d="M413 322v-88l-152 -120v86l100 78l-100 78v86zM217 322v-88l-152 -120v86l100 78l-100 78v86z" horiz-adv-x="463"/>
<glyph glyph-name="onequarter" unicode="¼" d="M219 280h-68v308h-115v50q24 0 46 3t40 11.5t30 22t17 34.5h50v-429zM585 725h64l-435 -753h-64zM511 151h150v193h-2zM723 151h60v-55h-60v-96h-62v96h-199v58l210 275h51v-278z" horiz-adv-x="834"/>
<glyph glyph-name="onehalf" unicode="½" d="M502 275q0 69 41.5 111.5t111.5 42.5q30 0 57 -8.5t47.5 -24.5t32 -39.5t11.5 -53.5q0 -28 -10 -49.5t-25.5 -38.5t-36 -31t-41.5 -26q-21 -13 -42.5 -25t-39 -24t-30 -25.5t-16.5 -28.5h235v-55h-303q2 38 12.5 64.5t27.5 46.5t39 34.5t46 28.5q29 17 51 31t36.5 28.5 t21.5 31.5t7 39q0 32 -24 51t-59 19q-45 0 -63.5 -30t-18.5 -69h-68zM219 280h-68v308h-115v50q24 0 46 3t40 11.5t30 22t17 34.5h50v-429zM570 725h64l-435 -753h-64z" horiz-adv-x="834"/>
<glyph glyph-name="threequarters" unicode="¾" d="M177 527h24q33 0 58 15t25 50q0 30 -22 46t-55 16q-41 0 -60.5 -24.5t-19.5 -61.5h-68q4 65 42.5 103t105.5 38q31 0 57.5 -7.5t46 -22t30.5 -36.5t11 -51t-20 -51.5t-48 -33.5v-2q44 -8 65.5 -36t21.5 -66q0 -33 -13.5 -57.5t-36 -40.5t-52 -24t-60.5 -8q-33 0 -62.5 9 t-51 26.5t-34 44t-12.5 61.5h68q1 -42 24.5 -64t67.5 -22q38 0 66 19t28 53q0 21 -8 35.5t-21 24t-29.5 13.5t-34.5 4h-33v50zM650 725h64l-435 -753h-64zM529 147h150v193h-2zM740 151h60v-55h-60v-96h-62v96h-199v58l210 275h51v-278z" horiz-adv-x="834"/>
<glyph glyph-name="questiondown" unicode="¿" d="M337 406h-111v111h111v-111zM503 30v-6q0 -48 -15 -90.5t-44 -75t-71 -50.5t-94 -18q-46 0 -85 13.5t-67 39t-43.5 62.5t-15.5 85q0 31 7 55.5t19 44.5t27.5 37t32.5 33q16 15 31.5 30.5t28 33t20 38t7.5 46.5v31h85v-39q0 -31 -8.5 -55t-21.5 -44t-29 -36.5t-31 -31.5 t-29.5 -30t-26 -32.5t-17 -36.5t-5.5 -39v-13q4 -55 35.5 -86t85.5 -31q36 0 62 13t43.5 35t25.5 52t8 65h85z"/>
<glyph glyph-name="Agrave" unicode="À" d="M190 908h109l86 -143h-64zM201 295h242l-119 333h-2zM272 714h105l279 -714h-105l-78 215h-302l-80 -215h-98z" horiz-adv-x="648"/>
<glyph glyph-name="Aacute" unicode="Á" d="M349 908h109l-131 -143h-64zM201 295h242l-119 333h-2zM272 714h105l279 -714h-105l-78 215h-302l-80 -215h-98z" horiz-adv-x="648"/>
<glyph glyph-name="Acircumflex" unicode="Â" d="M277 908h93l104 -143h-84l-69 96l-70 -96h-77zM201 295h242l-119 333h-2zM272 714h105l279 -714h-105l-78 215h-302l-80 -215h-98z" horiz-adv-x="648"/>
<glyph glyph-name="Atilde" unicode="Ã" d="M498 888q-6 -44 -31 -80q-13 -14 -31.5 -22.5t-47.5 -8.5q-13 0 -30.5 6t-35.5 14q-18 7 -35.5 13t-31.5 6q-8 0 -17 -3t-16 -8.5t-11.5 -13.5t-3.5 -17h-52q6 22 14.5 42t20.5 35t29 24t41 9q20 0 38.5 -6t35.5 -14t33.5 -14t32.5 -6q20 0 30.5 14.5t15.5 29.5h52z M201 295h242l-119 333h-2zM272 714h105l279 -714h-105l-78 215h-302l-80 -215h-98z" horiz-adv-x="648"/>
<glyph glyph-name="Adieresis" unicode="Ä" d="M185 873h90v-104h-90v104zM373 873h90v-104h-90v104zM201 295h242l-119 333h-2zM272 714h105l279 -714h-105l-78 215h-302l-80 -215h-98z" horiz-adv-x="648"/>
<glyph glyph-name="Aring" unicode="Å" d="M211 839q0 23 9 43.5t24.5 36t36 24.5t43.5 9t43.5 -9t36 -24.5t24.5 -36t9 -43.5t-9 -43.5t-24.5 -36t-36 -24.5t-43.5 -9t-43.5 9t-36 24.5t-24.5 36t-9 43.5zM256 839q0 -29 19.5 -48.5t48.5 -19.5t48.5 19.5t19.5 48.5t-19.5 48.5t-48.5 19.5t-48.5 -19.5 t-19.5 -48.5zM201 295h242l-119 333h-2zM272 714h105l279 -714h-105l-78 215h-302l-80 -215h-98z" horiz-adv-x="648"/>
<glyph glyph-name="AE" unicode="Æ" d="M407 634l-168 -346h209v346h-41zM354 714h535v-80h-351v-227h330v-80h-330v-247h357v-80h-447v208h-246l-102 -208h-107z" horiz-adv-x="926"/>
<glyph glyph-name="Ccedilla" unicode="Ç" d="M580 499q-8 38 -26 66.5t-44.5 47.5t-59.5 28.5t-70 9.5q-64 0 -109.5 -24t-75 -64.5t-43.5 -92.5t-14 -108q0 -61 14 -115.5t43.5 -95t75.5 -64.5t110 -24q47 0 83.5 15.5t63 43t41.5 65.5t18 82h95q-14 -132 -91.5 -207.5t-209.5 -77.5l-29 -37l2 -2q10 7 33 7 q16 0 31 -4.5t27 -13.5t19 -23t7 -32q0 -25 -11.5 -42t-29.5 -27.5t-40 -15t-43 -4.5q-24 0 -46.5 5.5t-45.5 13.5l18 44q12 -5 28.5 -9t32.5 -4q10 0 21 1.5t20 5.5t15 9.5t6 14.5q0 14 -13.5 22.5t-33.5 8.5q-12 0 -21 -2t-20 -6l-17 28l49 63q-75 6 -131 36.5t-92.5 80 t-55 114.5t-18.5 139q0 78 22 146.5t64.5 119.5t105.5 80.5t146 29.5q56 0 106 -15t89 -44t65 -72.5t34 -100.5h-95z" horiz-adv-x="722"/>
<glyph glyph-name="Egrave" unicode="È" d="M172 908h109l86 -143h-64zM78 714h493v-80h-398v-227h371v-80h-371v-247h401v-80h-496v714z" horiz-adv-x="611"/>
<glyph glyph-name="Eacute" unicode="É" d="M331 908h109l-131 -143h-64zM78 714h493v-80h-398v-227h371v-80h-371v-247h401v-80h-496v714z" horiz-adv-x="611"/>
<glyph glyph-name="Ecircumflex" unicode="Ê" d="M259 908h93l104 -143h-84l-69 96l-70 -96h-77zM78 714h493v-80h-398v-227h371v-80h-371v-247h401v-80h-496v714z" horiz-adv-x="611"/>
<glyph glyph-name="Edieresis" unicode="Ë" d="M167 873h90v-104h-90v104zM355 873h90v-104h-90v104zM78 714h493v-80h-398v-227h371v-80h-371v-247h401v-80h-496v714z" horiz-adv-x="611"/>
<glyph glyph-name="Igrave" unicode="Ì" d="M-4 908h109l86 -143h-64zM82 714h95v-714h-95v714z" horiz-adv-x="259"/>
<glyph glyph-name="Iacute" unicode="Í" d="M155 908h109l-131 -143h-64zM82 714h95v-714h-95v714z" horiz-adv-x="259"/>
<glyph glyph-name="Icircumflex" unicode="Î" d="M83 908h93l104 -143h-84l-69 96l-70 -96h-77zM82 714h95v-714h-95v714z" horiz-adv-x="259"/>
<glyph glyph-name="Idieresis" unicode="Ï" d="M-9 873h90v-104h-90v104zM179 873h90v-104h-90v104zM82 714h95v-714h-95v714z" horiz-adv-x="259"/>
<glyph glyph-name="Eth" unicode="Ð" d="M173 407h214v-68h-214v-259h158q16 0 40 2.5t51 12t53.5 27.5t47.5 49t34.5 77.5t13.5 112.5q0 64 -12.5 114.5t-41 85.5t-73.5 54t-111 19h-160v-227zM78 339h-70v68h70v307h245q165 0 254 -84t89 -256q0 -90 -20 -159.5t-62 -117t-107 -72.5t-154 -25h-245v339z" horiz-adv-x="704"/>
<glyph glyph-name="Ntilde" unicode="Ñ" d="M535 888q-6 -44 -31 -80q-13 -14 -31.5 -22.5t-47.5 -8.5q-13 0 -30.5 6t-35.5 14q-18 7 -35.5 13t-31.5 6q-8 0 -17 -3t-16 -8.5t-11.5 -13.5t-3.5 -17h-52q6 22 14.5 42t20.5 35t29 24t41 9q20 0 38.5 -6t35.5 -14t33.5 -14t32.5 -6q20 0 30.5 14.5t15.5 29.5h52z M77 714h101l376 -579h2v579h90v-714h-104l-373 573h-2v-573h-90v714z" horiz-adv-x="722"/>
<glyph glyph-name="Ograve" unicode="Ò" d="M246 908h109l86 -143h-64zM133 357q0 -54 14 -106.5t44 -94.5t77 -67.5t112 -25.5t112 25.5t77 67.5t44 94.5t14 106.5t-14 106.5t-44 94.5t-77 67.5t-112 25.5t-112 -25.5t-77 -67.5t-44 -94.5t-14 -106.5zM38 357q0 73 21.5 140.5t64.5 119.5t107 83t149 31t149 -31 t107 -83t64.5 -119.5t21.5 -140.5t-21.5 -140.5t-64.5 -119.5t-107 -83t-149 -31t-149 31t-107 83t-64.5 119.5t-21.5 140.5z" horiz-adv-x="760"/>
<glyph glyph-name="Oacute" unicode="Ó" d="M405 908h109l-131 -143h-64zM133 357q0 -54 14 -106.5t44 -94.5t77 -67.5t112 -25.5t112 25.5t77 67.5t44 94.5t14 106.5t-14 106.5t-44 94.5t-77 67.5t-112 25.5t-112 -25.5t-77 -67.5t-44 -94.5t-14 -106.5zM38 357q0 73 21.5 140.5t64.5 119.5t107 83t149 31t149 -31 t107 -83t64.5 -119.5t21.5 -140.5t-21.5 -140.5t-64.5 -119.5t-107 -83t-149 -31t-149 31t-107 83t-64.5 119.5t-21.5 140.5z" horiz-adv-x="760"/>
<glyph glyph-name="Ocircumflex" unicode="Ô" d="M333 908h93l104 -143h-84l-69 96l-70 -96h-77zM133 357q0 -54 14 -106.5t44 -94.5t77 -67.5t112 -25.5t112 25.5t77 67.5t44 94.5t14 106.5t-14 106.5t-44 94.5t-77 67.5t-112 25.5t-112 -25.5t-77 -67.5t-44 -94.5t-14 -106.5zM38 357q0 73 21.5 140.5t64.5 119.5 t107 83t149 31t149 -31t107 -83t64.5 -119.5t21.5 -140.5t-21.5 -140.5t-64.5 -119.5t-107 -83t-149 -31t-149 31t-107 83t-64.5 119.5t-21.5 140.5z" horiz-adv-x="760"/>
<glyph glyph-name="Otilde" unicode="Õ" d="M554 888q-6 -44 -31 -80q-13 -14 -31.5 -22.5t-47.5 -8.5q-13 0 -30.5 6t-35.5 14q-18 7 -35.5 13t-31.5 6q-8 0 -17 -3t-16 -8.5t-11.5 -13.5t-3.5 -17h-52q6 22 14.5 42t20.5 35t29 24t41 9q20 0 38.5 -6t35.5 -14t33.5 -14t32.5 -6q20 0 30.5 14.5t15.5 29.5h52z M133 357q0 -54 14 -106.5t44 -94.5t77 -67.5t112 -25.5t112 25.5t77 67.5t44 94.5t14 106.5t-14 106.5t-44 94.5t-77 67.5t-112 25.5t-112 -25.5t-77 -67.5t-44 -94.5t-14 -106.5zM38 357q0 73 21.5 140.5t64.5 119.5t107 83t149 31t149 -31t107 -83t64.5 -119.5 t21.5 -140.5t-21.5 -140.5t-64.5 -119.5t-107 -83t-149 -31t-149 31t-107 83t-64.5 119.5t-21.5 140.5z" horiz-adv-x="760"/>
<glyph glyph-name="Odieresis" unicode="Ö" d="M241 873h90v-104h-90v104zM429 873h90v-104h-90v104zM133 357q0 -54 14 -106.5t44 -94.5t77 -67.5t112 -25.5t112 25.5t77 67.5t44 94.5t14 106.5t-14 106.5t-44 94.5t-77 67.5t-112 25.5t-112 -25.5t-77 -67.5t-44 -94.5t-14 -106.5zM38 357q0 73 21.5 140.5t64.5 119.5 t107 83t149 31t149 -31t107 -83t64.5 -119.5t21.5 -140.5t-21.5 -140.5t-64.5 -119.5t-107 -83t-149 -31t-149 31t-107 83t-64.5 119.5t-21.5 140.5z" horiz-adv-x="760"/>
<glyph glyph-name="multiply" unicode="×" d="M71 72l182 182l-181 180l48 48l181 -180l180 180l48 -48l-180 -180l181 -182l-48 -48l-181 182l-182 -182z" horiz-adv-x="600"/>
<glyph glyph-name="Oslash" unicode="Ø" d="M723 700l-82 -90q41 -52 61 -117t20 -136q0 -73 -21.5 -140.5t-64.5 -119.5t-107 -83t-149 -31q-73 0 -130 23t-99 63l-81 -89l-33 30l84 92q-42 51 -62.5 117t-20.5 138q0 73 21.5 140.5t64.5 119.5t107 83t149 31q75 0 132.5 -23.5t99.5 -64.5l79 87zM210 134 q29 -33 71 -52t99 -19q65 0 112 25.5t77 67.5t44 94.5t14 106.5q0 49 -11.5 97t-36.5 87zM552 577q-29 34 -72 54t-100 20q-65 0 -112 -25.5t-77 -67.5t-44 -94.5t-14 -106.5q0 -51 12 -99t38 -88z" horiz-adv-x="760"/>
<glyph glyph-name="Ugrave" unicode="Ù" d="M227 908h109l86 -143h-64zM648 258q0 -136 -73.5 -205.5t-207.5 -69.5q-69 0 -123.5 16t-92 50t-57.5 86t-20 123v456h95v-456q0 -95 51.5 -145t146.5 -50q91 0 138.5 50t47.5 145v456h95v-456z" horiz-adv-x="722"/>
<glyph glyph-name="Uacute" unicode="Ú" d="M386 908h109l-131 -143h-64zM648 258q0 -136 -73.5 -205.5t-207.5 -69.5q-69 0 -123.5 16t-92 50t-57.5 86t-20 123v456h95v-456q0 -95 51.5 -145t146.5 -50q91 0 138.5 50t47.5 145v456h95v-456z" horiz-adv-x="722"/>
<glyph glyph-name="Ucircumflex" unicode="Û" d="M314 908h93l104 -143h-84l-69 96l-70 -96h-77zM648 258q0 -136 -73.5 -205.5t-207.5 -69.5q-69 0 -123.5 16t-92 50t-57.5 86t-20 123v456h95v-456q0 -95 51.5 -145t146.5 -50q91 0 138.5 50t47.5 145v456h95v-456z" horiz-adv-x="722"/>
<glyph glyph-name="Udieresis" unicode="Ü" d="M222 873h90v-104h-90v104zM410 873h90v-104h-90v104zM648 258q0 -136 -73.5 -205.5t-207.5 -69.5q-69 0 -123.5 16t-92 50t-57.5 86t-20 123v456h95v-456q0 -95 51.5 -145t146.5 -50q91 0 138.5 50t47.5 145v456h95v-456z" horiz-adv-x="722"/>
<glyph glyph-name="Yacute" unicode="Ý" d="M349 908h109l-131 -143h-64zM373 292v-292h-95v292l-276 422h113l214 -340l209 340h108z" horiz-adv-x="648"/>
<glyph glyph-name="Thorn" unicode="Þ" d="M173 258h186h5q77 0 114 33t37 97q0 65 -37.5 98.5t-118.5 33.5h-186v-262zM78 0v714h95v-114h218q107 0 163 -56t56 -156t-55.5 -155t-159.5 -55h-4h-218v-178h-95z" horiz-adv-x="648"/>
<glyph glyph-name="germandbls" unicode="ß" d="M64 531q0 45 14 81.5t40 63t62.5 41t81.5 14.5q37 0 74 -11t66.5 -33t48 -55t18.5 -76q0 -56 -24 -96.5t-80 -58.5v-2q34 -4 59.5 -20.5t42.5 -40.5t25.5 -54.5t8.5 -63.5q0 -51 -17 -94t-47.5 -73.5t-73 -47.5t-93.5 -17q-11 0 -21.5 1t-21.5 3v74q8 -2 17 -2.5t17 -0.5 q69 0 109.5 40.5t40.5 105.5q0 49 -13 78.5t-37 45.5t-58 21t-76 5v68q9 -1 17 -1q21 0 44.5 4.5t44.5 18t33.5 36.5t12.5 58q0 24 -8.5 44.5t-23.5 35.5t-35 24t-44 9q-26 0 -48 -6.5t-38 -22t-24.5 -42.5t-8.5 -69v-516h-85v531z"/>
<glyph glyph-name="agrave" unicode="à" d="M135 731h109l86 -143h-64zM522 2q-23 -14 -61 -14q-33 0 -52.5 19t-19.5 61q-35 -42 -81.5 -61t-100.5 -19q-35 0 -66.5 8t-54.5 25.5t-36.5 45t-13.5 66.5q0 44 15 72t39.5 45t56 26.5t64.5 15.5q35 7 66.5 10.5t55.5 10t38 19t14 36.5q0 28 -10.5 45t-27 26t-37 12 t-40.5 3q-54 0 -90 -20.5t-39 -77.5h-85q2 48 20 81t48 53.5t69 29.5t82 9q35 0 69.5 -5t62.5 -20.5t45 -43.5t17 -73v-266q0 -30 3.5 -44t23.5 -14q12 0 26 5v-66zM384 267q-12 -9 -30 -14t-38 -8.5t-42.5 -6t-43.5 -6.5t-40 -10t-33 -16.5t-22.5 -26.5t-8.5 -40 q0 -21 8.5 -35.5t22 -23.5t31.5 -13t38 -4q42 0 72 11.5t49 29t28 38t9 38.5v87z" horiz-adv-x="537"/>
<glyph glyph-name="aacute" unicode="á" d="M294 731h109l-131 -143h-64zM522 2q-23 -14 -61 -14q-33 0 -52.5 19t-19.5 61q-35 -42 -81.5 -61t-100.5 -19q-35 0 -66.5 8t-54.5 25.5t-36.5 45t-13.5 66.5q0 44 15 72t39.5 45t56 26.5t64.5 15.5q35 7 66.5 10.5t55.5 10t38 19t14 36.5q0 28 -10.5 45t-27 26t-37 12 t-40.5 3q-54 0 -90 -20.5t-39 -77.5h-85q2 48 20 81t48 53.5t69 29.5t82 9q35 0 69.5 -5t62.5 -20.5t45 -43.5t17 -73v-266q0 -30 3.5 -44t23.5 -14q12 0 26 5v-66zM384 267q-12 -9 -30 -14t-38 -8.5t-42.5 -6t-43.5 -6.5t-40 -10t-33 -16.5t-22.5 -26.5t-8.5 -40 q0 -21 8.5 -35.5t22 -23.5t31.5 -13t38 -4q42 0 72 11.5t49 29t28 38t9 38.5v87z" horiz-adv-x="537"/>
<glyph glyph-name="acircumflex" unicode="â" d="M222 731h93l104 -143h-84l-69 96l-70 -96h-77zM522 2q-23 -14 -61 -14q-33 0 -52.5 19t-19.5 61q-35 -42 -81.5 -61t-100.5 -19q-35 0 -66.5 8t-54.5 25.5t-36.5 45t-13.5 66.5q0 44 15 72t39.5 45t56 26.5t64.5 15.5q35 7 66.5 10.5t55.5 10t38 19t14 36.5 q0 28 -10.5 45t-27 26t-37 12t-40.5 3q-54 0 -90 -20.5t-39 -77.5h-85q2 48 20 81t48 53.5t69 29.5t82 9q35 0 69.5 -5t62.5 -20.5t45 -43.5t17 -73v-266q0 -30 3.5 -44t23.5 -14q12 0 26 5v-66zM384 267q-12 -9 -30 -14t-38 -8.5t-42.5 -6t-43.5 -6.5t-40 -10t-33 -16.5 t-22.5 -26.5t-8.5 -40q0 -21 8.5 -35.5t22 -23.5t31.5 -13t38 -4q42 0 72 11.5t49 29t28 38t9 38.5v87z" horiz-adv-x="537"/>
<glyph glyph-name="atilde" unicode="ã" d="M443 711q-6 -44 -31 -80q-13 -14 -31.5 -22.5t-47.5 -8.5q-13 0 -30.5 6t-35.5 14q-18 7 -35.5 13t-31.5 6q-8 0 -17 -3t-16 -8.5t-11.5 -13.5t-3.5 -17h-52q6 22 14.5 42t20.5 35t29 24t41 9q20 0 38.5 -6t35.5 -14t33.5 -14t32.5 -6q20 0 30.5 14.5t15.5 29.5h52z M522 2q-23 -14 -61 -14q-33 0 -52.5 19t-19.5 61q-35 -42 -81.5 -61t-100.5 -19q-35 0 -66.5 8t-54.5 25.5t-36.5 45t-13.5 66.5q0 44 15 72t39.5 45t56 26.5t64.5 15.5q35 7 66.5 10.5t55.5 10t38 19t14 36.5q0 28 -10.5 45t-27 26t-37 12t-40.5 3q-54 0 -90 -20.5 t-39 -77.5h-85q2 48 20 81t48 53.5t69 29.5t82 9q35 0 69.5 -5t62.5 -20.5t45 -43.5t17 -73v-266q0 -30 3.5 -44t23.5 -14q12 0 26 5v-66zM384 267q-12 -9 -30 -14t-38 -8.5t-42.5 -6t-43.5 -6.5t-40 -10t-33 -16.5t-22.5 -26.5t-8.5 -40q0 -21 8.5 -35.5t22 -23.5t31.5 -13 t38 -4q42 0 72 11.5t49 29t28 38t9 38.5v87z" horiz-adv-x="537"/>
<glyph glyph-name="adieresis" unicode="ä" d="M130 696h90v-104h-90v104zM318 696h90v-104h-90v104zM522 2q-23 -14 -61 -14q-33 0 -52.5 19t-19.5 61q-35 -42 -81.5 -61t-100.5 -19q-35 0 -66.5 8t-54.5 25.5t-36.5 45t-13.5 66.5q0 44 15 72t39.5 45t56 26.5t64.5 15.5q35 7 66.5 10.5t55.5 10t38 19t14 36.5 q0 28 -10.5 45t-27 26t-37 12t-40.5 3q-54 0 -90 -20.5t-39 -77.5h-85q2 48 20 81t48 53.5t69 29.5t82 9q35 0 69.5 -5t62.5 -20.5t45 -43.5t17 -73v-266q0 -30 3.5 -44t23.5 -14q12 0 26 5v-66zM384 267q-12 -9 -30 -14t-38 -8.5t-42.5 -6t-43.5 -6.5t-40 -10t-33 -16.5 t-22.5 -26.5t-8.5 -40q0 -21 8.5 -35.5t22 -23.5t31.5 -13t38 -4q42 0 72 11.5t49 29t28 38t9 38.5v87z" horiz-adv-x="537"/>
<glyph glyph-name="aring" unicode="å" d="M156 662q0 23 9 43.5t24.5 36t36 24.5t43.5 9t43.5 -9t36 -24.5t24.5 -36t9 -43.5t-9 -43.5t-24.5 -36t-36 -24.5t-43.5 -9t-43.5 9t-36 24.5t-24.5 36t-9 43.5zM201 662q0 -29 19.5 -48.5t48.5 -19.5t48.5 19.5t19.5 48.5t-19.5 48.5t-48.5 19.5t-48.5 -19.5 t-19.5 -48.5zM522 2q-23 -14 -61 -14q-33 0 -52.5 19t-19.5 61q-35 -42 -81.5 -61t-100.5 -19q-35 0 -66.5 8t-54.5 25.5t-36.5 45t-13.5 66.5q0 44 15 72t39.5 45t56 26.5t64.5 15.5q35 7 66.5 10.5t55.5 10t38 19t14 36.5q0 28 -10.5 45t-27 26t-37 12t-40.5 3 q-54 0 -90 -20.5t-39 -77.5h-85q2 48 20 81t48 53.5t69 29.5t82 9q35 0 69.5 -5t62.5 -20.5t45 -43.5t17 -73v-266q0 -30 3.5 -44t23.5 -14q12 0 26 5v-66zM384 267q-12 -9 -30 -14t-38 -8.5t-42.5 -6t-43.5 -6.5t-40 -10t-33 -16.5t-22.5 -26.5t-8.5 -40q0 -21 8.5 -35.5 t22 -23.5t31.5 -13t38 -4q42 0 72 11.5t49 29t28 38t9 38.5v87z" horiz-adv-x="537"/>
<glyph glyph-name="ae" unicode="æ" d="M467 233q0 -35 9.5 -65.5t28.5 -54t48.5 -37t68.5 -13.5q48 0 83.5 24.5t47.5 75.5h87q-19 -85 -78 -130t-146 -45q-30 0 -58 5t-52.5 16.5t-44 31t-32.5 48.5q-29 -53 -87.5 -77t-130.5 -24q-37 0 -69 8t-55.5 25.5t-37 45t-13.5 66.5q0 44 15 72t39.5 45t56 26.5 t64.5 15.5q47 9 80.5 14t54.5 12.5t31 20t10 35.5q0 26 -10.5 42t-27 24.5t-37.5 11t-42 2.5q-54 0 -90 -20.5t-39 -77.5h-85q2 48 20 81t48 53.5t69 29.5t82 9q22 0 47.5 -2.5t49.5 -10.5t44 -23t32 -39q26 40 72 57.5t93 17.5q67 0 112 -23.5t72 -64t38 -94.5t11 -114 h-379zM126 139q0 -21 8.5 -35.5t22 -23.5t31.5 -13t38 -4q42 0 72.5 11.5t50 29t29 38t9.5 38.5v87q-13 -8 -31.5 -13t-39.5 -9t-43.5 -6.5t-42.5 -6.5q-21 -4 -40 -10t-33 -16.5t-22.5 -26.5t-8.5 -40zM756 308q-1 30 -10.5 57t-28 46.5t-44.5 31t-60 11.5t-61 -11 t-46 -30.5t-29 -46.5t-10 -58h289z" horiz-adv-x="870"/>
<glyph glyph-name="ccedilla" unicode="ç" d="M415 351q-10 49 -42.5 76t-85.5 27q-46 0 -77 -17t-49.5 -45t-26.5 -64.5t-8 -75.5q0 -36 8.5 -70t26.5 -60.5t46.5 -42.5t69.5 -16q62 0 98 33.5t44 92.5h87q-14 -91 -68 -143.5t-145 -56.5l-33 -42l2 -2q10 7 33 7q16 0 31 -4.5t27 -13.5t19 -23t7 -32q0 -25 -11.5 -42 t-29.5 -27.5t-40 -15t-43 -4.5q-24 0 -46.5 5.5t-45.5 13.5l18 44q12 -5 28.5 -9t32.5 -4q10 0 21 1.5t20 5.5t15 9.5t6 14.5q0 14 -13.5 22.5t-33.5 8.5q-12 0 -21 -2t-20 -6l-17 28l53 68q-53 4 -93.5 25t-67.5 55.5t-41 81t-14 100.5q0 58 15 108.5t45.5 88t76 59 t107.5 21.5q44 0 82.5 -10.5t68.5 -32.5t48.5 -55.5t23.5 -79.5h-88z" horiz-adv-x="537"/>
<glyph glyph-name="egrave" unicode="è" d="M135 731h109l86 -143h-64zM423 308q-2 30 -13.5 57t-31 46.5t-46.5 31t-58 11.5q-33 0 -59.5 -11.5t-45.5 -31.5t-30 -46.5t-13 -56.5h297zM505 164q-17 -86 -75 -131t-146 -45q-62 0 -107.5 20.5t-76.5 56.5t-46.5 86t-17.5 109q0 58 18 107.5t50.5 85.5t77 56t97.5 20 q69 0 114.5 -28.5t73 -72.5t37 -92t9.5 -88v-15h-387v-7q0 -30 8.5 -59t28.5 -52.5t51 -37.5t73 -14q53 0 88 25t46 76h84z" horiz-adv-x="537"/>
<glyph glyph-name="eacute" unicode="é" d="M294 731h109l-131 -143h-64zM423 308q-2 30 -13.5 57t-31 46.5t-46.5 31t-58 11.5q-33 0 -59.5 -11.5t-45.5 -31.5t-30 -46.5t-13 -56.5h297zM505 164q-17 -86 -75 -131t-146 -45q-62 0 -107.5 20.5t-76.5 56.5t-46.5 86t-17.5 109q0 58 18 107.5t50.5 85.5t77 56 t97.5 20q69 0 114.5 -28.5t73 -72.5t37 -92t9.5 -88v-15h-387v-7q0 -30 8.5 -59t28.5 -52.5t51 -37.5t73 -14q53 0 88 25t46 76h84z" horiz-adv-x="537"/>
<glyph glyph-name="ecircumflex" unicode="ê" d="M222 731h93l104 -143h-84l-69 96l-70 -96h-77zM423 308q-2 30 -13.5 57t-31 46.5t-46.5 31t-58 11.5q-33 0 -59.5 -11.5t-45.5 -31.5t-30 -46.5t-13 -56.5h297zM505 164q-17 -86 -75 -131t-146 -45q-62 0 -107.5 20.5t-76.5 56.5t-46.5 86t-17.5 109q0 58 18 107.5 t50.5 85.5t77 56t97.5 20q69 0 114.5 -28.5t73 -72.5t37 -92t9.5 -88v-15h-387v-7q0 -30 8.5 -59t28.5 -52.5t51 -37.5t73 -14q53 0 88 25t46 76h84z" horiz-adv-x="537"/>
<glyph glyph-name="edieresis" unicode="ë" d="M130 696h90v-104h-90v104zM318 696h90v-104h-90v104zM423 308q-2 30 -13.5 57t-31 46.5t-46.5 31t-58 11.5q-33 0 -59.5 -11.5t-45.5 -31.5t-30 -46.5t-13 -56.5h297zM505 164q-17 -86 -75 -131t-146 -45q-62 0 -107.5 20.5t-76.5 56.5t-46.5 86t-17.5 109q0 58 18 107.5 t50.5 85.5t77 56t97.5 20q69 0 114.5 -28.5t73 -72.5t37 -92t9.5 -88v-15h-387v-7q0 -30 8.5 -59t28.5 -52.5t51 -37.5t73 -14q53 0 88 25t46 76h84z" horiz-adv-x="537"/>
<glyph glyph-name="igrave" unicode="ì" d="M-23 731h109l86 -143h-64zM69 0v517h85v-517h-85z" horiz-adv-x="222"/>
<glyph glyph-name="iacute" unicode="í" d="M136 731h109l-131 -143h-64zM69 0v517h85v-517h-85z" horiz-adv-x="222"/>
<glyph glyph-name="icircumflex" unicode="î" d="M64 731h93l104 -143h-84l-69 96l-70 -96h-77zM69 0v517h85v-517h-85z" horiz-adv-x="222"/>
<glyph glyph-name="idieresis" unicode="ï" d="M-28 696h90v-104h-90v104zM160 696h90v-104h-90v104zM69 0v517h85v-517h-85z" horiz-adv-x="222"/>
<glyph glyph-name="eth" unicode="ð" d="M282 431q-77 0 -116.5 -48t-39.5 -125q0 -47 12.5 -83.5t34.5 -61t51.5 -37.5t62.5 -13t62.5 13t51.5 37.5t34.5 61t12.5 83.5q0 34 -9.5 65.5t-29.5 55.5t-51.5 38t-75.5 14zM272 506q40 0 76 -12.5t63 -43.5h2q-12 26 -28 49.5t-33 43.5t-33 35t-28 23l-115 -54l-38 40 l109 51q-16 14 -36 27t-34 21l70 45q14 -10 35.5 -25t41.5 -31l120 56l35 -37l-115 -53q90 -74 132 -171t42 -212q0 -57 -16 -106t-48 -85.5t-79 -57.5t-108 -21q-62 0 -108.5 21t-78.5 57.5t-48 85.5t-16 106q0 49 15.5 93.5t45.5 79t74 55t101 20.5z" horiz-adv-x="574"/>
<glyph glyph-name="ntilde" unicode="ñ" d="M452 711q-6 -44 -31 -80q-13 -14 -31.5 -22.5t-47.5 -8.5q-13 0 -30.5 6t-35.5 14q-18 7 -35.5 13t-31.5 6q-8 0 -17 -3t-16 -8.5t-11.5 -13.5t-3.5 -17h-52q6 22 14.5 42t20.5 35t29 24t41 9q20 0 38.5 -6t35.5 -14t33.5 -14t32.5 -6q20 0 30.5 14.5t15.5 29.5h52z M64 517h80v-82h2q27 48 69.5 71t98.5 23q51 0 85 -14t55 -39t29.5 -59.5t8.5 -76.5v-340h-85v350q0 48 -28 76t-77 28q-39 0 -67.5 -12t-47.5 -34t-28.5 -51.5t-9.5 -64.5v-292h-85v517z"/>
<glyph glyph-name="ograve" unicode="ò" d="M153 731h109l86 -143h-64zM126 258q0 -47 12.5 -83.5t34.5 -61t51.5 -37.5t62.5 -13t62.5 13t51.5 37.5t34.5 61t12.5 83.5t-12.5 83.5t-34.5 61.5t-51.5 38t-62.5 13t-62.5 -13t-51.5 -38t-34.5 -61.5t-12.5 -83.5zM36 258q0 57 16 106.5t48 86t78.5 57.5t108.5 21 q61 0 108 -21t79 -57.5t48 -86t16 -106.5t-16 -106t-48 -85.5t-79 -57.5t-108 -21q-62 0 -108.5 21t-78.5 57.5t-48 85.5t-16 106z" horiz-adv-x="574"/>
<glyph glyph-name="oacute" unicode="ó" d="M312 731h109l-131 -143h-64zM126 258q0 -47 12.5 -83.5t34.5 -61t51.5 -37.5t62.5 -13t62.5 13t51.5 37.5t34.5 61t12.5 83.5t-12.5 83.5t-34.5 61.5t-51.5 38t-62.5 13t-62.5 -13t-51.5 -38t-34.5 -61.5t-12.5 -83.5zM36 258q0 57 16 106.5t48 86t78.5 57.5t108.5 21 q61 0 108 -21t79 -57.5t48 -86t16 -106.5t-16 -106t-48 -85.5t-79 -57.5t-108 -21q-62 0 -108.5 21t-78.5 57.5t-48 85.5t-16 106z" horiz-adv-x="574"/>
<glyph glyph-name="ocircumflex" unicode="ô" d="M240 731h93l104 -143h-84l-69 96l-70 -96h-77zM126 258q0 -47 12.5 -83.5t34.5 -61t51.5 -37.5t62.5 -13t62.5 13t51.5 37.5t34.5 61t12.5 83.5t-12.5 83.5t-34.5 61.5t-51.5 38t-62.5 13t-62.5 -13t-51.5 -38t-34.5 -61.5t-12.5 -83.5zM36 258q0 57 16 106.5t48 86 t78.5 57.5t108.5 21q61 0 108 -21t79 -57.5t48 -86t16 -106.5t-16 -106t-48 -85.5t-79 -57.5t-108 -21q-62 0 -108.5 21t-78.5 57.5t-48 85.5t-16 106z" horiz-adv-x="574"/>
<glyph glyph-name="otilde" unicode="õ" d="M461 711q-6 -44 -31 -80q-13 -14 -31.5 -22.5t-47.5 -8.5q-13 0 -30.5 6t-35.5 14q-18 7 -35.5 13t-31.5 6q-8 0 -17 -3t-16 -8.5t-11.5 -13.5t-3.5 -17h-52q6 22 14.5 42t20.5 35t29 24t41 9q20 0 38.5 -6t35.5 -14t33.5 -14t32.5 -6q20 0 30.5 14.5t15.5 29.5h52z M126 258q0 -47 12.5 -83.5t34.5 -61t51.5 -37.5t62.5 -13t62.5 13t51.5 37.5t34.5 61t12.5 83.5t-12.5 83.5t-34.5 61.5t-51.5 38t-62.5 13t-62.5 -13t-51.5 -38t-34.5 -61.5t-12.5 -83.5zM36 258q0 57 16 106.5t48 86t78.5 57.5t108.5 21q61 0 108 -21t79 -57.5t48 -86 t16 -106.5t-16 -106t-48 -85.5t-79 -57.5t-108 -21q-62 0 -108.5 21t-78.5 57.5t-48 85.5t-16 106z" horiz-adv-x="574"/>
<glyph glyph-name="odieresis" unicode="ö" d="M148 696h90v-104h-90v104zM336 696h90v-104h-90v104zM126 258q0 -47 12.5 -83.5t34.5 -61t51.5 -37.5t62.5 -13t62.5 13t51.5 37.5t34.5 61t12.5 83.5t-12.5 83.5t-34.5 61.5t-51.5 38t-62.5 13t-62.5 -13t-51.5 -38t-34.5 -61.5t-12.5 -83.5zM36 258q0 57 16 106.5 t48 86t78.5 57.5t108.5 21q61 0 108 -21t79 -57.5t48 -86t16 -106.5t-16 -106t-48 -85.5t-79 -57.5t-108 -21q-62 0 -108.5 21t-78.5 57.5t-48 85.5t-16 106z" horiz-adv-x="574"/>
<glyph glyph-name="divide" unicode="÷" d="M236 47q0 26 19 45t45 19t45 -19t19 -45q0 -24 -19 -44t-44 -20q-26 0 -45.5 19t-19.5 45zM236 459q0 26 19 45t45 19t45 -19t19 -45q0 -24 -19 -44t-44 -20q-26 0 -45.5 19t-19.5 45zM48 287h504v-68h-504v68z" horiz-adv-x="600"/>
<glyph glyph-name="oslash" unicode="ø" d="M480 443q29 -35 43.5 -82.5t14.5 -102.5q0 -57 -16 -106t-48 -85.5t-79 -57.5t-108 -21q-52 0 -93 15t-72 42l-60 -67l-28 24l62 69q-30 37 -45 84.5t-15 102.5q0 57 16 106.5t48 86t78.5 57.5t108.5 21q53 0 94.5 -15t73.5 -44l58 65l27 -26zM178 108q45 -45 109 -45 q33 0 62.5 13t51.5 37.5t34.5 61t12.5 83.5q0 37 -7.5 66.5t-20.5 52.5zM398 407q-44 47 -111 47q-33 0 -62.5 -13t-51.5 -38t-34.5 -61.5t-12.5 -83.5q0 -36 8 -66t22 -55z" horiz-adv-x="574"/>
<glyph glyph-name="ugrave" unicode="ù" d="M144 731h109l86 -143h-64zM492 0h-80v82h-2q-27 -48 -69.5 -71t-98.5 -23q-51 0 -85 14t-55 39t-29.5 59.5t-8.5 76.5v340h85v-350q0 -48 28 -76t77 -28q39 0 67.5 12t47.5 34t28.5 51.5t9.5 64.5v292h85v-517z"/>
<glyph glyph-name="uacute" unicode="ú" d="M303 731h109l-131 -143h-64zM492 0h-80v82h-2q-27 -48 -69.5 -71t-98.5 -23q-51 0 -85 14t-55 39t-29.5 59.5t-8.5 76.5v340h85v-350q0 -48 28 -76t77 -28q39 0 67.5 12t47.5 34t28.5 51.5t9.5 64.5v292h85v-517z"/>
<glyph glyph-name="ucircumflex" unicode="û" d="M231 731h93l104 -143h-84l-69 96l-70 -96h-77zM492 0h-80v82h-2q-27 -48 -69.5 -71t-98.5 -23q-51 0 -85 14t-55 39t-29.5 59.5t-8.5 76.5v340h85v-350q0 -48 28 -76t77 -28q39 0 67.5 12t47.5 34t28.5 51.5t9.5 64.5v292h85v-517z"/>
<glyph glyph-name="udieresis" unicode="ü" d="M139 696h90v-104h-90v104zM327 696h90v-104h-90v104zM492 0h-80v82h-2q-27 -48 -69.5 -71t-98.5 -23q-51 0 -85 14t-55 39t-29.5 59.5t-8.5 76.5v340h85v-350q0 -48 28 -76t77 -28q39 0 67.5 12t47.5 34t28.5 51.5t9.5 64.5v292h85v-517z"/>
<glyph glyph-name="yacute" unicode="ý" d="M275 731h109l-131 -143h-64zM267 -69q-15 -38 -29.5 -64t-31.5 -42.5t-39 -24t-50 -7.5q-15 0 -30 2t-29 7v78q12 -4 24.5 -8t25.5 -4q26 0 42 12t28 35l35 88l-205 514h96l151 -423h2l145 423h90z" horiz-adv-x="500"/>
<glyph glyph-name="thorn" unicode="þ" d="M152 447h2q21 43 66 62.5t99 19.5q60 0 104.5 -22t74 -59.5t44.5 -86.5t15 -104t-14.5 -104t-44 -85.5t-74 -58t-103.5 -21.5q-20 0 -43 4t-46 13.5t-43.5 25t-34.5 38.5h-2v-267h-85v912h85v-267zM467 263q0 36 -9.5 70.5t-29 61.5t-50 43t-71.5 16q-43 0 -73 -17 t-49 -44.5t-27.5 -62.5t-8.5 -71q0 -38 9 -73.5t28.5 -62.5t50.5 -43.5t75 -16.5q43 0 73 17t48 45t26 64t8 74z" horiz-adv-x="593"/>
<glyph glyph-name="ydieresis" unicode="ÿ" d="M111 696h90v-104h-90v104zM299 696h90v-104h-90v104zM267 -69q-15 -38 -29.5 -64t-31.5 -42.5t-39 -24t-50 -7.5q-15 0 -30 2t-29 7v78q12 -4 24.5 -8t25.5 -4q26 0 42 12t28 35l35 88l-205 514h96l151 -423h2l145 423h90z" horiz-adv-x="500"/>
<glyph glyph-name="dotlessi" unicode="ı" d="M69 0v517h85v-517h-85z" horiz-adv-x="222"/>
<glyph glyph-name="Lslash" unicode="Ł" d="M78 240l-79 -56v76l79 56v398h95v-330l228 160v-76l-228 -160v-228h378v-80h-473v240z"/>
<glyph glyph-name="lslash" unicode="ł" d="M69 321l-70 -55v71l70 56v321h85v-254l70 56v-71l-70 -56v-389h-85v321z" horiz-adv-x="222"/>
<glyph glyph-name="OE" unicode="Œ" d="M551 69h-2q-13 -21 -33 -37t-44.5 -27t-52 -16.5t-54.5 -5.5q-79 0 -140 28.5t-102.5 79t-63 118.5t-21.5 146q0 81 22.5 149.5t65.5 119t105 79t142 28.5q25 0 51.5 -4.5t50.5 -14t43.5 -24t30.5 -33.5h2v59h477v-80h-382v-227h350v-80h-350v-247h388v-80h-483v69z M372 63q37 0 70 10.5t57 29t38 44.5t14 57v301q0 16 -2 34t-13 35q-20 31 -62.5 54t-99.5 23q-61 0 -106 -24t-75 -65.5t-45 -96t-15 -114.5t15.5 -112.5t45.5 -91.5t74.5 -61.5t103.5 -22.5z" horiz-adv-x="1074"/>
<glyph glyph-name="oe" unicode="œ" d="M415 260q0 36 -6 70.5t-22 62t-44 44.5t-72 17q-41 0 -68.5 -18t-44.5 -47t-24.5 -66t-7.5 -75q0 -33 8 -66t25 -59.5t45 -43t67 -16.5q43 0 70.5 17.5t44 46t23 63.5t6.5 70zM774 308q0 66 -37 106t-104 40t-106 -41t-38 -105h285zM489 233v-7q0 -30 8.5 -59t27 -52.5 t47 -37.5t66.5 -14q51 0 88 26.5t52 74.5h81q-51 -176 -221 -176q-65 0 -114.5 23t-73.5 79q-24 -56 -72.5 -79t-106.5 -23q-61 0 -105.5 21.5t-73 58.5t-42.5 86.5t-14 104.5q0 57 14 106t43.5 85.5t73.5 57.5t104 21t106.5 -18.5t72.5 -72.5q27 46 77.5 68.5t105.5 22.5 q64 0 109.5 -23.5t73.5 -63.5t38.5 -88.5t10.5 -95.5q0 -12 -1 -25h-375z" horiz-adv-x="891"/>
<glyph glyph-name="Scaron" unicode="Š" d="M371 765h-93l-104 143h84l69 -96l70 96h77zM491 505q-8 77 -55.5 111.5t-121.5 34.5q-30 0 -59 -6t-51.5 -20t-36 -37.5t-13.5 -58.5q0 -33 19.5 -53.5t52 -33.5t73.5 -21.5t84 -18.5t84 -23.5t73 -36.5t51.5 -58.5t19.5 -87.5q0 -57 -25.5 -97.5t-65.5 -66t-89.5 -37.5 t-98.5 -12q-60 0 -113.5 15t-94 46t-64 78.5t-23.5 112.5h90q0 -45 17.5 -77.5t46 -53.5t66 -31t78.5 -10q32 0 64.5 6t58.5 20.5t42 39.5t16 64q0 37 -19.5 60t-51.5 37.5t-73 24t-84 18.5t-84 21.5t-73.5 33.5t-52 53t-19.5 81q0 54 22 93.5t58.5 65t83 38t95.5 12.5 q55 0 102 -13t82 -41t56 -70.5t23 -101.5h-90z" horiz-adv-x="648"/>
<glyph glyph-name="scaron" unicode="š" d="M297 588h-93l-104 143h84l69 -96l70 96h77zM116 163q1 -29 13 -48t31.5 -30.5t44 -16.5t50.5 -5q20 0 42 3t40.5 11t30.5 23.5t12 39.5q0 25 -14.5 40.5t-38 25.5t-54 16.5t-62.5 13.5t-62 17t-54 26t-38.5 41t-14.5 62q0 39 17.5 67t45 45.5t62 26t68.5 8.5 q43 0 80.5 -7.5t66 -26t45.5 -50t20 -78.5h-85q-2 25 -13.5 41.5t-28 26.5t-37 14.5t-41.5 4.5q-19 0 -38.5 -3t-35.5 -10.5t-26 -20.5t-10 -32q0 -23 15.5 -37t39.5 -23.5t54 -16t60 -13.5q32 -7 62.5 -17t54 -26.5t38 -41.5t14.5 -62q0 -46 -19.5 -77.5t-51 -50.5t-71 -27 t-78.5 -8q-44 0 -82.5 9.5t-68.5 30t-48 54t-20 81.5h85z" horiz-adv-x="500"/>
<glyph glyph-name="Ydieresis" unicode="Ÿ" d="M185 873h90v-104h-90v104zM373 873h90v-104h-90v104zM373 292v-292h-95v292l-276 422h113l214 -340l209 340h108z" horiz-adv-x="648"/>
<glyph glyph-name="Zcaron" unicode="Ž" d="M353 765h-93l-104 143h84l69 -96l70 96h77zM22 80l444 554h-410v80h522v-80l-443 -554h455v-80h-568v80z" horiz-adv-x="611"/>
<glyph glyph-name="zcaron" unicode="ž" d="M287 588h-93l-104 143h84l69 -96l70 96h77zM22 65l312 377h-292v75h402v-58l-316 -384h330v-75h-436v65z" horiz-adv-x="480"/>
<glyph glyph-name="florin" unicode="ƒ" d="M478 639h-59q-27 0 -41.5 -13t-20.5 -39l-31 -138h102l-14 -68h-100l-55 -311q-12 -68 -27.5 -113.5t-38 -72.5t-52.5 -38t-72 -11h-66l14 75q39 0 63.5 3t39 13.5t22.5 30.5t14 55l70 369h-92l13 68h91l26 136q11 57 50.5 93t103.5 36h74z"/>
<glyph glyph-name="circumflex" unicode="ˆ" d="M64 731h93l104 -143h-84l-69 96l-70 -96h-77z" horiz-adv-x="222"/>
<glyph glyph-name="caron" unicode="ˇ" d="M158 588h-93l-104 143h84l69 -96l70 96h77z" horiz-adv-x="222"/>
<glyph glyph-name="breve" unicode="˘" d="M5 731q24 -83 112 -83q43 0 63.5 22.5t35.5 60.5h51q-11 -64 -51.5 -101t-106.5 -37q-69 0 -106.5 35.5t-47.5 102.5h50z" horiz-adv-x="222"/>
<glyph glyph-name="dotaccent" unicode="˙" d="M156 592h-90v104h90v-104z" horiz-adv-x="222"/>
<glyph glyph-name="ring" unicode="˚" d="M-2 662q0 23 9 43.5t24.5 36t36 24.5t43.5 9t43.5 -9t36 -24.5t24.5 -36t9 -43.5t-9 -43.5t-24.5 -36t-36 -24.5t-43.5 -9t-43.5 9t-36 24.5t-24.5 36t-9 43.5zM43 662q0 -29 19.5 -48.5t48.5 -19.5t48.5 19.5t19.5 48.5t-19.5 48.5t-48.5 19.5t-48.5 -19.5t-19.5 -48.5z " horiz-adv-x="222"/>
<glyph glyph-name="ogonek" unicode="˛" d="M230 3q-26 -22 -43 -39.5t-26.5 -32t-13 -27t-3.5 -22.5q0 -16 9 -29t29 -13q23 0 37 8t25 22l32 -18q-20 -35 -48.5 -48.5t-59.5 -13.5q-9 0 -24.5 1.5t-30.5 9.5t-26 24.5t-11 46.5q0 7 3.5 19.5t15.5 30t34.5 38t60.5 43.5h40z" horiz-adv-x="222"/>
<glyph glyph-name="tilde" unicode="˜" d="M285 711q-6 -44 -31 -80q-13 -14 -31.5 -22.5t-47.5 -8.5q-13 0 -30.5 6t-35.5 14q-18 7 -35.5 13t-31.5 6q-8 0 -17 -3t-16 -8.5t-11.5 -13.5t-3.5 -17h-52q6 22 14.5 42t20.5 35t29 24t41 9q20 0 38.5 -6t35.5 -14t33.5 -14t32.5 -6q20 0 30.5 14.5t15.5 29.5h52z" horiz-adv-x="222"/>
<glyph glyph-name="hungarumlaut" unicode="˝" d="M189 731h105l-120 -143h-66zM33 731h105l-120 -143h-66z" horiz-adv-x="222"/>
<glyph glyph-name="pi" unicode="π" d="M540 11q-17 -8 -31.5 -12.5t-32.5 -4.5q-29 0 -45.5 9.5t-24 26t-9 37.5t-1.5 44v308h-260v-419h-64v419h-70v59h534v-59h-76v-315q0 -22 5.5 -38t32.5 -16q20 0 42 10v-49z" horiz-adv-x="563"/>
<glyph glyph-name="uni060C" unicode="،" d="M189 0h-111v101q0 57 26 98.5t84 58.5v-50q-17 -6 -28.5 -17t-18 -25t-9.5 -28.5t-2 -26.5h59v-111z" horiz-adv-x="346"/>
<glyph glyph-name="uni061B" unicode="؛" d="M196 234h-111v101q0 57 26 98.5t84 58.5v-50q-17 -6 -28.5 -17t-18 -25t-9.5 -28.5t-2 -26.5h59v-111zM83 111h111v-111h-111v111z" horiz-adv-x="344"/>
<glyph glyph-name="uni061F" unicode="؟" d="M216 111h111v-111h-111v111zM383 452q0 28 -6.5 53t-20.5 44t-35 29.5t-50 10.5q-45 0 -71.5 -24t-26.5 -69q0 -49 18.5 -76t44.5 -50q14 -13 27.5 -27t24.5 -31t18 -37.5t7 -46.5v-25h-79v19q0 41 -21 68t-49 52q-30 26 -52.5 60.5t-22.5 85.5q0 41 13.5 73t37.5 54.5 t57.5 34t73.5 11.5q45 0 80 -16t60 -43.5t38 -66t13 -83.5h-79z" horiz-adv-x="574"/>
<glyph glyph-name="uni0640" unicode="ـ" d="M0 0q-40 0 -40 40q0 25 9.5 34t30.5 9h148q40 0 40 -40q0 -25 -9.5 -34t-30.5 -9h-148z" horiz-adv-x="148"/>
<glyph glyph-name="uni0647" unicode="ه" d="M0 171q0 40 13 80.5t38 73.5t60.5 53.5t80.5 20.5q39 0 72.5 -15.5t59 -45t40 -71.5t14.5 -96q0 -33 -10.5 -64.5t-34 -56t-60 -40t-87.5 -15.5q-42 0 -76 10.5t-58.5 32.5t-38 55t-13.5 78zM189 318q-25 0 -46 -11.5t-36 -30.5t-23.5 -44t-8.5 -53q0 -27 9 -46.5 t24.5 -32t36 -18t43.5 -5.5q21 0 41.5 4.5t36.5 16t26 30t10 47.5q0 33 -9.5 59t-25 45t-36 29t-42.5 10z" horiz-adv-x="428"/>
<glyph glyph-name="uni064B" unicode="ً" d="M120 721l-240 -34v45l240 34v-45zM120 798l-240 -34v45l240 34v-45z" horiz-adv-x="0"/>
<glyph glyph-name="uni064C" unicode="ٌ" d="M71 785q-15 -8 -37 -8q-32 0 -51.5 18.5t-19.5 49.5q0 34 22 56.5t54 22.5t54.5 -22t22.5 -71q0 -37 -9.5 -62t-25.5 -40t-37.5 -21.5t-45.5 -6.5q-42 0 -67.5 18.5t-41.5 44.5l-61 -34l-20 38l95 54q17 -36 39 -58t59 -22q30 0 47.5 13t22.5 30zM43 816q12 0 20 2.5 t13 4.5v8q0 26 -10.5 39.5t-26.5 13.5q-18 0 -27 -12t-9 -25q0 -9 4.5 -15t10.5 -9.5t13 -5t12 -1.5z" horiz-adv-x="0"/>
<glyph glyph-name="uni064D" unicode="ٍ" d="M120 -272l-240 -34v45l240 34v-45zM120 -195l-240 -34v45l240 34v-45z" horiz-adv-x="0"/>
<glyph glyph-name="uni064E" unicode="َ" d="M120 721l-240 -34v45l240 34v-45z" horiz-adv-x="0"/>
<glyph glyph-name="uni064F" unicode="ُ" d="M36 785q-15 -8 -37 -8q-32 0 -51.5 18.5t-19.5 49.5q0 34 22 56.5t54 22.5t54.5 -22t22.5 -71q0 -37 -9.5 -61.5t-26 -39.5t-40 -21.5t-50.5 -6.5q-28 0 -46 5v40q11 -2 25 -3.5t21 -1.5q38 0 57 13t24 30zM8 816q12 0 20 2.5t13 4.5v8q0 26 -10.5 39.5t-26.5 13.5 q-18 0 -27 -12t-9 -25q0 -9 4.5 -15t10.5 -9.5t13 -5t12 -1.5z" horiz-adv-x="0"/>
<glyph glyph-name="uni0650" unicode="ِ" d="M120 -196l-240 -34v45l240 34v-45z" horiz-adv-x="0"/>
<glyph glyph-name="uni0651" unicode="ّ" d="M5 724q-12 -20 -30 -25t-29 -5q-71 0 -71 81v68h46v-62q0 -42 29 -42q11 0 21 7.5t10 33.5v45h46v-44q0 -26 10 -33t20 -7q18 0 23 9.5t5 27.5v65h46v-68q0 -42 -16.5 -61.5t-51.5 -19.5q-15 0 -30.5 6.5t-27.5 23.5z" horiz-adv-x="0"/>
<glyph glyph-name="uni0652" unicode="ْ" d="M-44 782q0 -18 13 -31t31 -13t31 13t13 31t-13 31t-31 13t-31 -13t-13 -31zM-80 781q0 33 23 56.5t56 23.5t56.5 -23.5t23.5 -56.5t-23.5 -56t-56.5 -23t-56 23t-23 56z" horiz-adv-x="0"/>
<glyph glyph-name="uni0653" unicode="ٓ" d="M-164 807q23 23 43.5 30t40.5 7q19 0 45.5 -9t49.5 -20q24 -11 46 -18.5t39 -7.5q26 0 39 14t18 29l32 -14q-14 -39 -33 -59t-56 -20q-27 0 -51.5 8.5t-47.5 19.5t-46 19t-43 8q-17 0 -28.5 -4t-26.5 -15z" horiz-adv-x="0"/>
<glyph glyph-name="uni0654" unicode="ٔ" d="M78 739h-183v45h45q-14 23 -14 51q0 22 7 38.5t19 27.5t27.5 17t31.5 6q17 0 29.5 -2t18.5 -7v-46q-20 9 -43 9q-24 0 -35 -14t-11 -31q0 -20 13 -34.5t39 -14.5h56v-45z" horiz-adv-x="0"/>
<glyph glyph-name="uni0655" unicode="ٕ" d="M78 -249h-183v46h45q-14 23 -14 50q0 22 7 39t19 28t27.5 17t31.5 6q17 0 29.5 -2t18.5 -7v-47q-20 9 -43 9q-24 0 -35 -14t-11 -31q0 -20 13 -34t39 -14h56v-46z" horiz-adv-x="0"/>
<glyph glyph-name="uni0656" unicode="ٖ" d="M-22 -100h47v-201h-47v201z" horiz-adv-x="0"/>
<glyph glyph-name="uni0658" unicode="٘" d="M97 833v-74q0 -50 -26 -75t-70 -25q-45 0 -71.5 25.5t-26.5 74.5v74h43v-76q0 -28 15 -43t40 -15q24 0 38.5 15t14.5 43v76h43z" horiz-adv-x="0"/>
<glyph glyph-name="uni0660" unicode="٠" d="M214 107l-89 89l89 86l88 -87z" horiz-adv-x="450"/>
<glyph glyph-name="uni0661" unicode="١" d="M183 606h79v-606h-79v606z" horiz-adv-x="450"/>
<glyph glyph-name="uni0662" unicode="٢" d="M144 0h-79v606h81v-87q15 -11 38.5 -17t57.5 -6q48 0 66.5 19.5t18.5 54.5v36h78v-27q0 -81 -41 -119.5t-111 -38.5q-39 0 -64 7t-45 16v-444z" horiz-adv-x="450"/>
<glyph glyph-name="uni0663" unicode="٣" d="M85 0h-79v606h81v-90q11 -8 28 -14t34 -6q29 0 38 19.5t9 54.5v36h78v-27q0 -40 -9 -68q11 -6 25.5 -10.5t28.5 -4.5q29 0 38 19.5t9 54.5v36h78v-27q0 -81 -33.5 -119.5t-83.5 -38.5q-28 0 -49 11t-40 24v1q-16 -19 -36.5 -27.5t-44.5 -8.5q-28 0 -45.5 8.5t-26.5 14.5 v-444z" horiz-adv-x="450"/>
<glyph glyph-name="uni0664" unicode="٤" d="M251 270q-44 0 -73.5 -25t-29.5 -71q0 -45 26.5 -69.5t71.5 -24.5h148v-80h-145q-39 0 -72 8.5t-57.5 27t-38.5 48t-14 72.5q0 22 6 45t19 44t32 37.5t46 25.5q-22 11 -36.5 27t-23 34t-12 36.5t-3.5 34.5q0 82 48 123.5t137 41.5h75v-80h-77q-42 0 -72 -19t-30 -67 q0 -47 30 -67.5t72 -20.5h76v-81h-103z" horiz-adv-x="450"/>
<glyph glyph-name="uni0665" unicode="٥" d="M226 92q23 0 43.5 5.5t35.5 21t23.5 42.5t8.5 70q0 75 -9 131t-24.5 92.5t-35.5 55t-42 18.5q-21 0 -41 -18.5t-35.5 -55t-25 -92.5t-9.5 -131q0 -43 9 -70t24 -42.5t35 -21t43 -5.5zM225 0q-35 0 -68.5 10.5t-60 36t-42.5 68.5t-16 107q0 109 15.5 182.5t41 118.5 t59.5 64.5t72 19.5q37 0 71.5 -19t60.5 -64t41.5 -119t15.5 -183q0 -64 -16.5 -107t-43 -68.5t-60.5 -36t-70 -10.5z" horiz-adv-x="450"/>
<glyph glyph-name="uni0666" unicode="٦" d="M362 0h-79v522h-230v84h309v-606z" horiz-adv-x="450"/>
<glyph glyph-name="uni0667" unicode="٧" d="M223 128l138 472h84l-181 -600h-81l-182 600h83z" horiz-adv-x="450"/>
<glyph glyph-name="uni0668" unicode="٨" d="M227 472l-138 -472h-84l181 600h81l182 -600h-83z" horiz-adv-x="450"/>
<glyph glyph-name="uni0669" unicode="٩" d="M133 452q0 -39 21.5 -58.5t58.5 -19.5h70v154h-70q-38 0 -59 -19.5t-21 -56.5zM361 606v-606h-78v297h-63q-36 0 -66 9.5t-52 28.5t-34.5 47.5t-12.5 66.5q0 75 42.5 116t121.5 41h142z" horiz-adv-x="450"/>
<glyph glyph-name="uni066A" unicode="٪" d="M434 3l-89 89l89 86l88 -87zM151 437l-89 89l89 86l88 -87zM552 587l-444 -611l-59 44l444 609z" horiz-adv-x="602"/>
<glyph glyph-name="uni066B" unicode="٫" d="M74 111h111v-101q0 -57 -26 -98.5t-84 -58.5v50q17 6 28.5 17t18 25t9.5 28.5t2 26.5h-59v111z" horiz-adv-x="316"/>
<glyph glyph-name="uni066C" unicode="٬" d="M74 111h111v-101q0 -57 -26 -98.5t-84 -58.5v50q17 6 28.5 17t18 25t9.5 28.5t2 26.5h-59v111z" horiz-adv-x="321"/>
<glyph glyph-name="uni066D" unicode="٭" d="M173 592l-88 -91l60 111l-114 55l124 -21l18 124l17 -124l124 21l-113 -55l59 -111z" horiz-adv-x="343"/>
<glyph glyph-name="uni0670" unicode="ٰ" d="M-22 863h47v-201h-47v201z" horiz-adv-x="0"/>
<glyph glyph-name="uni06BE" unicode="ھ" d="M513 83q0 107 -43.5 165t-118.5 81q17 -13 28 -30.5t18 -36t9.5 -37t2.5 -34.5q0 -38 -7 -64.5t-16 -43.5h127zM270 83q20 1 33 11.5t20.5 26t10.5 33.5t3 34q0 22 -4 42.5t-13 36.5t-23 25t-34 9q-35 0 -54.5 -32t-19.5 -83q0 -18 3.5 -36t12 -32.5t22 -24t34.5 -10.5h5 h4zM144 83q-10 14 -19 40t-9 64q0 25 6 50.5t18 47t30.5 38t43.5 25.5q-20 0 -40 -0.5t-41 -1.5v75q30 2 58 2q75 0 137 -12q86 -16 146 -57.5t91.5 -111t31.5 -169.5v-73h-491q-20 0 -30.5 -4.5t-15.5 -12.5t-6 -19.5t-1 -25.5h-39q-8 20 -11.5 40t-3.5 33q0 23 8 37.5 t20.5 22t27.5 10t29 2.5h60z" horiz-adv-x="648"/>
<glyph glyph-name="uni06C2" unicode="ۂ" d="M0 171q0 40 13 80.5t38 73.5t60.5 53.5t80.5 20.5q39 0 72.5 -15.5t59 -45t40 -71.5t14.5 -96q0 -33 -10.5 -64.5t-34 -56t-60 -40t-87.5 -15.5q-42 0 -76 10.5t-58.5 32.5t-38 55t-13.5 78zM189 318q-25 0 -46 -11.5t-36 -30.5t-23.5 -44t-8.5 -53q0 -27 9 -46.5 t24.5 -32t36 -18t43.5 -5.5q21 0 41.5 4.5t36.5 16t26 30t10 47.5q0 33 -9.5 59t-25 45t-36 29t-42.5 10zM275 501h-183v45h45q-14 23 -14 51q0 22 7 38.5t19 27.5t27.5 17t31.5 6q17 0 29.5 -2t18.5 -7v-46q-20 9 -43 9q-24 0 -35 -14t-11 -31q0 -20 13 -34.5t39 -14.5h56 v-45z" horiz-adv-x="428"/>
<glyph glyph-name="uni06C3" unicode="ۃ" d="M0 171q0 40 13 80.5t38 73.5t60.5 53.5t80.5 20.5q39 0 72.5 -15.5t59 -45t40 -71.5t14.5 -96q0 -33 -10.5 -64.5t-34 -56t-60 -40t-87.5 -15.5q-42 0 -76 10.5t-58.5 32.5t-38 55t-13.5 78zM189 318q-25 0 -46 -11.5t-36 -30.5t-23.5 -44t-8.5 -53q0 -27 9 -46.5 t24.5 -32t36 -18t43.5 -5.5q21 0 41.5 4.5t36.5 16t26 30t10 47.5q0 33 -9.5 59t-25 45t-36 29t-42.5 10zM194 553q0 22 15.5 37.5t37.5 15.5t37.5 -15.5t15.5 -37.5t-15.5 -37.5t-37.5 -15.5t-37.5 15.5t-15.5 37.5zM64 553q0 22 15.5 37.5t37.5 15.5t37.5 -15.5 t15.5 -37.5t-15.5 -37.5t-37.5 -15.5t-37.5 15.5t-15.5 37.5z" horiz-adv-x="428"/>
<glyph glyph-name="uni06D4" unicode="۔" d="M238 0h-119q-21 0 -37 4.5t-27 15.5t-17 31t-8 51q21 -10 49 -14.5t54 -4.5h105v-83z" horiz-adv-x="280"/>
<glyph glyph-name="uni06D5" unicode="ە" d="M0 171q0 40 13 80.5t38 73.5t60.5 53.5t80.5 20.5q39 0 72.5 -15.5t59 -45t40 -71.5t14.5 -96q0 -33 -10.5 -64.5t-34 -56t-60 -40t-87.5 -15.5q-42 0 -76 10.5t-58.5 32.5t-38 55t-13.5 78zM189 318q-25 0 -46 -11.5t-36 -30.5t-23.5 -44t-8.5 -53q0 -27 9 -46.5 t24.5 -32t36 -18t43.5 -5.5q21 0 41.5 4.5t36.5 16t26 30t10 47.5q0 33 -9.5 59t-25 45t-36 29t-42.5 10z" horiz-adv-x="428"/>
<glyph glyph-name="uni06F0" unicode="۰" d="M214 107l-89 89l89 86l88 -87z" horiz-adv-x="450"/>
<glyph glyph-name="uni06F1" unicode="۱" d="M183 606h79v-606h-79v606z" horiz-adv-x="450"/>
<glyph glyph-name="uni06F2" unicode="۲" d="M144 0h-79v606h81v-87q15 -11 38.5 -17t57.5 -6q48 0 66.5 19.5t18.5 54.5v36h78v-27q0 -81 -41 -119.5t-111 -38.5q-39 0 -64 7t-45 16v-444z" horiz-adv-x="450"/>
<glyph glyph-name="uni06F3" unicode="۳" d="M85 0h-79v606h81v-90q11 -8 28 -14t34 -6q29 0 38 19.5t9 54.5v36h78v-27q0 -40 -9 -68q11 -6 25.5 -10.5t28.5 -4.5q29 0 38 19.5t9 54.5v36h78v-27q0 -81 -33.5 -119.5t-83.5 -38.5q-28 0 -49 11t-40 24v1q-16 -19 -36.5 -27.5t-44.5 -8.5q-28 0 -45.5 8.5t-26.5 14.5 v-444z" horiz-adv-x="450"/>
<glyph glyph-name="uni06F4" unicode="۴" d="M120 0h-79v606h81v-127q15 -6 38.5 -12t50.5 -9q-8 19 -12 45t-4 40q0 57 29 82.5t82 25.5h15v-67q-35 -1 -46.5 -14t-11.5 -44q2 -8 5 -28t14 -42q17 1 31.5 4.5t25.5 12.5t17.5 24.5t6.5 41.5h78q0 -51 -16.5 -82t-43 -48t-59.5 -22.5t-66 -5.5q-39 0 -77.5 7t-58.5 16 v-404z" horiz-adv-x="450"/>
<glyph glyph-name="uni06F5" unicode="۵" d="M336 224q0 74 -9 130.5t-24 94t-34.5 56.5t-40.5 19t-40.5 -19t-34.5 -56.5t-24 -94t-9 -130.5q0 -69 13.5 -101.5t41.5 -32.5q9 0 17 4t14.5 9t12 9t9.5 4t9 -4t11 -9t15 -9t21 -4q25 0 38.5 32.5t13.5 101.5zM39 215q0 109 15.5 183.5t41.5 120.5t60 66.5t72 20.5 q37 0 71.5 -20t60.5 -66t41.5 -121t15.5 -184q0 -45 -6.5 -84t-19.5 -68t-32 -46t-43 -17q-43 0 -86 37q-20 -18 -40 -27t-46 -9q-51 0 -78 54t-27 160z" horiz-adv-x="450"/>
<glyph glyph-name="uni06F6" unicode="۶" d="M356 314q-27 -49 -54.5 -100.5t-56.5 -102.5q-14 -27 -30 -56t-30 -55h-85l164 303q-41 4 -69.5 17.5t-46.5 34.5t-26 46.5t-8 53.5q0 33 11.5 61t32.5 48t50 31t65 11h82v-77h-86q-34 0 -54 -21t-20 -52q0 -40 25 -58t84 -18h52v-66z" horiz-adv-x="450"/>
<glyph glyph-name="uni06F7" unicode="۷" d="M223 128l138 472h84l-181 -600h-81l-182 600h83z" horiz-adv-x="450"/>
<glyph glyph-name="uni06F8" unicode="۸" d="M227 472l-138 -472h-84l181 600h81l182 -600h-83z" horiz-adv-x="450"/>
<glyph glyph-name="uni06F9" unicode="۹" d="M133 452q0 -39 21.5 -58.5t58.5 -19.5h70v154h-70q-38 0 -59 -19.5t-21 -56.5zM361 606v-606h-78v297h-63q-36 0 -66 9.5t-52 28.5t-34.5 47.5t-12.5 66.5q0 75 42.5 116t121.5 41h142z" horiz-adv-x="450"/>
<glyph glyph-name="uni2002" unicode=" " horiz-adv-x="500"/>
<glyph glyph-name="uni2003" unicode=" " horiz-adv-x="1000"/>
<glyph glyph-name="uni2009" unicode=" " horiz-adv-x="100"/>
<glyph glyph-name="uni200A" unicode=" " horiz-adv-x="20"/>
<glyph glyph-name="uni200C" unicode="‌" d="M33 2h-33v1319h33v-1319z" horiz-adv-x="33"/>
<glyph glyph-name="uni200D" unicode="‍" d="M78 1227l-45 46v-1273h-33v1276l-49 -49l-17 18l63 63l-63 64l17 17l64 -63l63 63l18 -17l-63 -63v-1l63 -63z" horiz-adv-x="33"/>
<glyph glyph-name="uni200E" unicode="‎" d="M109 1227v61h-77v-1286h-32v1319h109v68l81 -81z" horiz-adv-x="32"/>
<glyph glyph-name="uni200F" unicode="‏" d="M33 1321v-1319h-33v1286h-77v-61l-81 81l81 81v-68h110z" horiz-adv-x="33"/>
<glyph glyph-name="endash" unicode="–" d="M0 318h500v-80h-500v80z" horiz-adv-x="500"/>
<glyph glyph-name="emdash" unicode="—" d="M130 318h740v-80h-740v80z" horiz-adv-x="1000"/>
<glyph glyph-name="quoteleft" unicode="‘" d="M195 456h-111v111q0 30 6.5 56.5t20 46.5t34 32t49.5 12v-50q-17 0 -28 -8.5t-18 -22.5t-9.5 -31.5t-2.5 -34.5h59v-111z" horiz-adv-x="278"/>
<glyph glyph-name="quoteright" unicode="’" d="M83 714h111v-111q0 -30 -6.5 -56.5t-20 -46.5t-34 -32t-49.5 -12v50q17 0 28 8.5t18 22.5t9.5 31.5t2.5 34.5h-59v111z" horiz-adv-x="278"/>
<glyph glyph-name="quotesinglbase" unicode="‚" d="M83 111h111v-111q0 -30 -6.5 -56.5t-20 -46.5t-34 -32t-49.5 -12v50q17 0 28 8.5t18 22.5t9.5 31.5t2.5 34.5h-59v111z" horiz-adv-x="278"/>
<glyph glyph-name="quotedblleft" unicode="“" d="M177 456h-111v111q0 30 6.5 56.5t20 46.5t34 32t49.5 12v-50q-17 0 -28 -8.5t-18 -22.5t-9.5 -31.5t-2.5 -34.5h59v-111zM360 456h-111v111q0 30 6.5 56.5t20 46.5t34 32t49.5 12v-50q-17 0 -28 -8.5t-18 -22.5t-9.5 -31.5t-2.5 -34.5h59v-111z" horiz-adv-x="426"/>
<glyph glyph-name="quotedblright" unicode="”" d="M66 714h111v-111q0 -30 -6.5 -56.5t-20 -46.5t-34 -32t-49.5 -12v50q17 0 28 8.5t18 22.5t9.5 31.5t2.5 34.5h-59v111zM249 714h111v-111q0 -30 -6.5 -56.5t-20 -46.5t-34 -32t-49.5 -12v50q17 0 28 8.5t18 22.5t9.5 31.5t2.5 34.5h-59v111z" horiz-adv-x="426"/>
<glyph glyph-name="quotedblbase" unicode="„" d="M249 111h111v-111q0 -30 -6.5 -56.5t-20 -46.5t-34 -32t-49.5 -12v50q17 0 28 8.5t18 22.5t9.5 31.5t2.5 34.5h-59v111zM66 111h111v-111q0 -30 -6.5 -56.5t-20 -46.5t-34 -32t-49.5 -12v50q17 0 28 8.5t18 22.5t9.5 31.5t2.5 34.5h-59v111z" horiz-adv-x="426"/>
<glyph glyph-name="dagger" unicode="†" d="M236 442h-194v75h194v197h80v-197h198v-75h-198v-597h-80v597z"/>
<glyph glyph-name="daggerdbl" unicode="‡" d="M236 42h-194v75h194v325h-194v75h194v197h80v-197h198v-75h-198v-325h198v-75h-198v-197h-80v197z"/>
<glyph glyph-name="bullet" unicode="•" d="M72 357q0 37 14 69.5t38 56.5t56.5 38t69.5 14t69.5 -14t57 -38t38.5 -56.5t14 -69.5t-14 -69.5t-38.5 -57t-57 -38.5t-69.5 -14t-69.5 14t-56.5 38.5t-38 57t-14 69.5z" horiz-adv-x="500"/>
<glyph glyph-name="ellipsis" unicode="…" d="M777 111h111v-111h-111v111zM444 111h111v-111h-111v111zM111 111h111v-111h-111v111z" horiz-adv-x="1000"/>
<glyph glyph-name="uni202A" unicode="‪" horiz-adv-x="500"/>
<glyph glyph-name="uni202B" unicode="‫" horiz-adv-x="500"/>
<glyph glyph-name="uni202C" unicode="‬" horiz-adv-x="500"/>
<glyph glyph-name="uni202D" unicode="‭" horiz-adv-x="500"/>
<glyph glyph-name="uni202E" unicode="‮" horiz-adv-x="500"/>
<glyph glyph-name="perthousand" unicode="‰" d="M857 158q0 -20 2.5 -40t10 -37t22 -27.5t37.5 -10.5q22 0 36 11t22 27.5t11 37t3 38.5q0 16 -2.5 36.5t-10 38.5t-21 30t-34.5 12q-23 0 -37.5 -11t-23 -28t-12 -37.5t-3.5 -39.5zM782 155q0 36 8 68t25.5 55.5t45.5 37t69 13.5q40 0 67.5 -13t45 -35.5t25.5 -53.5t8 -67 q0 -34 -9 -67t-31 -60q-20 -25 -48.5 -35t-59.5 -10q-39 0 -66.5 12.5t-45.5 35t-26 53t-8 66.5zM512 158q0 -20 2.5 -40t10 -37t22 -27.5t37.5 -10.5q22 0 36 11t22 27.5t11 37t3 38.5q0 16 -2.5 36.5t-10 38.5t-21 30t-34.5 12q-23 0 -37.5 -11t-23 -28t-12 -37.5 t-3.5 -39.5zM437 155q0 36 8 68t25.5 55.5t45.5 37t69 13.5q40 0 67.5 -13t45 -35.5t25.5 -53.5t8 -67q0 -34 -9 -67t-31 -60q-20 -25 -48.5 -35t-59.5 -10q-39 0 -66.5 12.5t-45.5 35t-26 53t-8 66.5zM628 722h85l-537 -744h-86zM147 538q0 -20 2.5 -40t10 -37t22 -27.5 t37.5 -10.5q22 0 36 11t22 27.5t11 37t3 38.5q0 16 -2.5 36.5t-10 38.5t-21 30t-34.5 12q-23 0 -37.5 -11t-23 -28t-12 -37.5t-3.5 -39.5zM72 535q0 36 8 68t25.5 55.5t45.5 37t69 13.5q40 0 67.5 -13t45 -35.5t25.5 -53.5t8 -67q0 -34 -9 -67t-31 -60q-20 -25 -48.5 -35 t-59.5 -10q-39 0 -66.5 12.5t-45.5 35t-26 53t-8 66.5z" horiz-adv-x="1148"/>
<glyph glyph-name="guilsinglleft" unicode="‹" d="M50 234v88l152 120v-86l-100 -78l100 -78v-86z" horiz-adv-x="259"/>
<glyph glyph-name="guilsinglright" unicode="›" d="M209 322v-88l-152 -120v86l100 78l-100 78v86z" horiz-adv-x="259"/>
<glyph glyph-name="fraction" unicode="⁄" d="M269 725h64l-435 -753h-64z" horiz-adv-x="167"/>
<glyph glyph-name="Euro" unicode="€" d="M512 579q-71 69 -143 69q-75 0 -124 -64q-39 -51 -56 -134h283l-27 -61h-263q-1 -8 -1 -16v-15v-11t1 -10h249l-26 -61h-218q33 -215 190 -215q48 0 85 19q27 14 69 53v-105q-68 -44 -154 -44q-245 0 -287 292h-77l27 61h46q-1 5 -1 10v10v17t1 15h-73l26 61h54 q24 123 91 194q75 81 193 81q91 0 181 -63z"/>
<glyph glyph-name="afii61289" unicode="ℓ" d="M374 599q0 41 -18 68.5t-46 27.5q-29 0 -48.5 -29t-19.5 -86v-247q69 75 100.5 143t31.5 123zM445 37q-33 -25 -70.5 -38.5t-75.5 -13.5q-68 0 -106.5 35.5t-38.5 98.5v111l-74 -69q-9 14 -14 21t-12 17l99 87v272q0 41 12 75t33.5 58.5t50 38t61.5 13.5q59 0 93.5 -36.5 t34.5 -99.5q0 -78 -49 -157t-147 -170v-143q0 -28 7.5 -46.5t20 -29.5t28 -15.5t31.5 -4.5q44 0 90 33z" horiz-adv-x="508"/>
<glyph glyph-name="trademark" unicode="™" d="M927 302h-68v344h-2l-135 -344h-43l-135 344h-2v-344h-68v412h105l123 -313l121 313h104v-412zM390 659h-129v-357h-68v357h-129v55h326v-55z" horiz-adv-x="990"/>
<glyph glyph-name="estimated" unicode="℮" d="M556 371v181q-78 75 -183 75q-107 0 -180 -75v-181h363zM193 326v-228q72 -74 181 -74q78 0 135.5 35.5t105.5 114.5l44 -26q-29 -45 -58.5 -77t-63.5 -52.5t-74 -30t-89 -9.5q-74 0 -133.5 27t-101.5 74t-65 110.5t-23 135.5q0 73 23 136t65 109.5t101.5 73t133.5 26.5 q72 0 131.5 -25.5t102 -71.5t66 -109t24.5 -139h-505z" horiz-adv-x="750"/>
<glyph glyph-name="partialdiff" unicode="∂" d="M386 278q-27 36 -67 63.5t-88 27.5q-34 0 -59.5 -13t-43 -35t-26 -51t-8.5 -60q0 -30 8.5 -60t26 -54.5t43 -39.5t59.5 -15q43 0 72 24t47 60t26 77.5t10 75.5zM455 363q0 -55 -8 -120.5t-32 -122t-68.5 -94.5t-116.5 -38q-47 0 -84 18.5t-62.5 49.5t-39 71.5t-13.5 84.5 q0 43 13 82t38 68t61 46t82 17q49 0 92 -23t74 -61q0 13 0.5 26t0.5 26q0 42 -8.5 89.5t-29 88.5t-55 68t-86.5 27q-35 0 -60.5 -13t-51.5 -33l-36 43q32 28 67 43t78 15q48 0 85 -15.5t64 -42.5t45.5 -62.5t29.5 -75.5t16 -81.5t5 -80.5z" horiz-adv-x="496"/>
<glyph glyph-name="uni2206" unicode="∆" d="M332 645l-226 -583h455zM15 0l281 712h74l287 -712h-642z" horiz-adv-x="670"/>
<glyph glyph-name="product" unicode="∏" d="M575 -214v938h-438v-938h-66v1000h570v-1000h-66z" horiz-adv-x="711"/>
<glyph glyph-name="summation" unicode="∑" d="M25 -214v55l329 448l-315 441v56h527v-62h-442l309 -435l-328 -442h473v-61h-553z" horiz-adv-x="604"/>
<glyph glyph-name="minus" unicode="−" d="M48 287h504v-68h-504v68z" horiz-adv-x="600"/>
<glyph glyph-name="radical" unicode="√" d="M292 -214h-66l-164 340l-46 -22l-24 50l100 48l158 -332l189 916h63z" horiz-adv-x="493"/>
<glyph glyph-name="infinity" unicode="∞" d="M333 249q-15 13 -33 28.5t-38.5 29.5t-41.5 23.5t-42 9.5q-19 0 -34 -7.5t-25 -20t-15.5 -28.5t-5.5 -34q0 -38 22 -63t62 -25q20 0 41 8.5t41 21.5t37.5 28.5t31.5 28.5zM643 249q0 38 -21 65t-62 27q-21 0 -41.5 -9.5t-40 -23.5t-37 -30.5t-32.5 -29.5q16 -14 33.5 -29 t37 -28t40 -21t43.5 -8q38 0 59 25t21 62zM700 252q0 -31 -10 -58t-28 -47t-44 -31.5t-58 -11.5q-29 0 -55 9.5t-49 25t-44.5 34.5t-40.5 38q-22 -18 -43 -37t-43.5 -34.5t-48 -25.5t-55.5 -10q-32 0 -57.5 11t-44 30.5t-28.5 46t-10 57.5q0 30 9.5 57t27.5 47.5t43.5 32 t57.5 11.5q29 0 55.5 -10.5t50 -27t45 -36t41.5 -38.5q20 19 40.5 39t43 36.5t48 27t55.5 10.5q32 0 58 -11t45 -30.5t29 -46.5t10 -58z" horiz-adv-x="741"/>
<glyph glyph-name="integral" unicode="∫" d="M406 736q0 -17 -10.5 -25.5t-26.5 -8.5q-14 0 -21 6t-11.5 13.5t-8.5 14t-11 6.5q-12 0 -19 -13t-10.5 -32.5t-5 -39.5t-1.5 -37q0 -5 0.5 -18.5t1 -29.5t0.5 -21v-504q0 -32 -1 -76.5t-12 -85.5t-36 -69.5t-73 -28.5q-21 0 -40.5 11t-19.5 36q0 14 9.5 23t23.5 9 q13 0 20 -6t11.5 -13t8.5 -13t10 -6q13 0 20 22.5t9.5 51t2.5 54v31.5l1 21v495q0 23 -0.5 44t-0.5 33q0 18 1 43.5t6.5 55.5t19 54t36 38.5t57.5 14.5q11 0 23.5 -2.5t23 -8.5t17 -15.5t6.5 -23.5z" horiz-adv-x="543"/>
<glyph glyph-name="approxequal" unicode="≈" d="M559 232q-3 -26 -11.5 -51t-23.5 -44.5t-37 -31t-52 -11.5q-33 0 -70 11.5t-74 25t-71.5 25t-61.5 11.5q-34 0 -54 -24.5t-25 -55.5h-45q4 26 12 51t22.5 45t36.5 32t52 12q33 0 70 -11.5t74 -25t72 -25t64 -11.5q35 0 53 23t25 55h44zM559 402q-3 -26 -11.5 -51 t-23.5 -44t-36.5 -30.5t-51.5 -11.5q-33 0 -70 11.5t-74.5 25t-72 25t-61.5 11.5q-34 0 -54 -24.5t-25 -55.5h-45q3 26 11.5 51t23.5 44.5t37 31.5t52 12q33 0 69.5 -11.5t73.5 -25t72 -25t64 -11.5q36 0 54 23t25 55h43z" horiz-adv-x="593"/>
<glyph glyph-name="notequal" unicode="≠" d="M260 120l-76 -144l-52 27l62 117h-149v60h181l68 130h-249v60h282l77 147l52 -28l-63 -119h154v-60h-186l-69 -130h255v-60h-287z" horiz-adv-x="593"/>
<glyph glyph-name="lessequal" unicode="≤" d="M45 -27v59h502v-59h-502zM45 263v65l502 189v-65l-419 -157l419 -155v-65z" horiz-adv-x="593"/>
<glyph glyph-name="greaterequal" unicode="≥" d="M45 -27v59h502v-59h-502zM45 75v65l420 155l-420 157v65l502 -189v-65z" horiz-adv-x="593"/>
<glyph glyph-name="lozenge" unicode="◊" d="M296 681l-136 -325l136 -325l137 325zM327 -35h-63l-169 391l169 391h63l171 -391z" horiz-adv-x="593"/>
<glyph glyph-name="uni25CC" unicode="◌" d="M361 646q0 -12 -8.5 -20t-19.5 -8q-12 0 -20 8t-8 20q0 11 8 19.5t20 8.5q11 0 19.5 -8.5t8.5 -19.5zM253 573q0 -11 -8 -19.5t-20 -8.5t-20 8.5t-8 19.5q0 12 8 20.5t20 8.5t20 -8.5t8 -20.5zM182 471q0 -12 -8 -20t-20 -8q-11 0 -19.5 8t-8.5 20q0 11 8.5 19.5 t19.5 8.5q12 0 20 -8.5t8 -19.5zM156 344q0 -12 -8 -20t-20 -8t-20 8t-8 20q0 11 8 19.5t20 8.5t20 -8.5t8 -19.5zM181 220q0 -12 -8.5 -20t-19.5 -8q-12 0 -20 8t-8 20q0 11 8 19.5t20 8.5q11 0 19.5 -8.5t8.5 -19.5zM253 112q0 -11 -8 -19.5t-20 -8.5t-20 8.5t-8 19.5 t8 19.5t20 8.5t20 -8.5t8 -19.5zM358 42q0 -12 -8.5 -20t-19.5 -8q-12 0 -20 8t-8 20q0 11 8 19.5t20 8.5q11 0 19.5 -8.5t8.5 -19.5zM484 17q0 -12 -8 -20.5t-20 -8.5q-11 0 -19.5 8.5t-8.5 20.5q0 11 8.5 19.5t19.5 8.5q12 0 20 -8.5t8 -19.5zM608 40q0 -11 -8 -19.5 t-20 -8.5q-11 0 -19.5 8.5t-8.5 19.5q0 12 8.5 20t19.5 8q12 0 20 -8t8 -20zM716 112q0 -11 -8 -19.5t-20 -8.5t-20 8.5t-8 19.5t8 19.5t20 8.5t20 -8.5t8 -19.5zM786 217q0 -12 -8 -20t-20 -8q-11 0 -19.5 8t-8.5 20q0 11 8.5 19.5t19.5 8.5q12 0 20 -8.5t8 -19.5zM811 344 q0 -12 -8 -20t-20 -8q-11 0 -19.5 8t-8.5 20q0 11 8.5 19.5t19.5 8.5q12 0 20 -8.5t8 -19.5zM786 467q0 -11 -8 -19.5t-20 -8.5q-11 0 -19.5 8.5t-8.5 19.5q0 12 8.5 20t19.5 8q12 0 20 -8t8 -20zM716 573q0 -11 -8 -19.5t-20 -8.5t-20 8.5t-8 19.5q0 12 8 20.5t20 8.5 t20 -8.5t8 -20.5zM611 644q0 -11 -8 -19.5t-20 -8.5q-11 0 -19.5 8.5t-8.5 19.5q0 12 8.5 20t19.5 8q12 0 20 -8t8 -20zM484 671q0 -12 -8 -20t-20 -8q-11 0 -19.5 8t-8.5 20q0 11 8.5 19.5t19.5 8.5q12 0 20 -8.5t8 -19.5z" horiz-adv-x="911"/>
<glyph glyph-name="uni274A" unicode="❊" d="M257 508l-37 -27l-54 87l-52 -87l-37 27l66 78l-100 23l14 43l95 -38l-9 102h46l-8 -102l95 40l14 -44l-100 -24z" horiz-adv-x="322"/>
<glyph glyph-name="fi" unicode="ﬁ" d="M365 0v517h85v-517h-85zM365 610v104h85v-104h-85zM99 442h-87v75h87v77q0 63 36.5 95.5t106.5 32.5q12 0 27.5 -2t27.5 -6v-74q-11 4 -24 5.5t-24 1.5q-31 0 -48 -12t-17 -46v-72h100v-75h-100v-442h-85v442z" horiz-adv-x="518"/>
<glyph glyph-name="fl" unicode="ﬂ" d="M365 714h85v-714h-85v714zM99 442h-87v75h87v77q0 63 36.5 95.5t106.5 32.5q12 0 27.5 -2t27.5 -6v-74q-11 4 -24 5.5t-24 1.5q-31 0 -48 -12t-17 -46v-72h100v-75h-100v-442h-85v442z" horiz-adv-x="518"/>
<glyph glyph-name="uniFD3E" unicode="﴾" d="M370 435l-64 -12q5 27 12 53t24 63v47q-15 -15 -27.5 -36t-23 -43t-18.5 -43.5t-12 -39.5l-69 16l52 -74v32h24l19 33h2v-33h23v-29l61 63zM217 327q13 0 13 11q0 7 -9 18l-62 86q-6 9 -6 15q0 11 12 11q4 0 6 -1l73 -13q8 31 27.5 66.5t45 69.5t53.5 65t54 55t47 38 t31 14q7 0 8 -5q0 -1 0.5 -2t0.5 -2q0 -6 -6 -13q-68 -73 -113.5 -146.5t-52.5 -140.5l50 7q2 0 6 0.5t5 0.5q11 0 11 -10q0 -4 -6 -13l-68 -77q-12 -14 -12 -21q0 -9 11 -9q6 0 16 5l80 60q13 10 19 10q7 0 9 -14v-61q8 -3 19 -8t21.5 -12t17.5 -16t7 -18q0 -26 -65 -55 v-57q0 -21 -9 -21q-6 0 -15 8l-84 64q-8 6 -17 6q-11 0 -11 -10q0 -7 12 -20l68 -77q6 -9 6 -13q0 -10 -11 -10q-1 0 -5 0.5t-6 0.5l-50 7q7 -67 52.5 -140t113.5 -147q6 -6 6 -13q0 -1 -0.5 -2t-0.5 -2q-1 -5 -8 -5q-10 0 -31 14t-47 38t-54 55t-53.5 65t-45 69.5 t-27.5 66.5l-73 -13q-2 -1 -6 -1q-12 0 -12 11q0 6 6 15l62 86q9 12 9 17q0 13 -11 13q-8 0 -22 -13l-72 -62q-13 -10 -19 -10q-14 0 -14 25v56q-64 24 -64 53q0 24 64 55v62q0 20 14 20q5 0 16 -9l80 -69q11 -8 16 -8zM372 121l-61 63v-29h-23v-33h-2l-19 33h-24v32 l-52 -74l69 16q4 -18 12 -39.5t18.5 -43.5t23 -43t27.5 -36v47q-17 37 -24 63t-12 53l64 -12zM195 241v2h-47v22q-14 3 -31 12q12 9 31 12v20h47v2l-77 60v-58q-65 -21 -65 -35q0 -20 65 -37v-56zM330 279q0 22 -15 37.5t-37 15.5t-37 -15t-15 -37t15 -37q15 -16 37 -16 t37 15.5t15 36.5zM499 277q0 10 -20 20q-10 5 -20.5 9.5t-23.5 6.5v57l-76 -57l1 -2h43v-21q21 -3 34 -13q-14 -9 -34 -12v-20h-44l-3 -2l79 -58v57q64 18 64 35z" horiz-adv-x="611"/>
<glyph glyph-name="uniFD3F" unicode="﴿" d="M236 432l61 -63v29h23v33h2l19 -33h24v-32l52 74l-69 -16q-5 18 -12.5 39.5t-18 43.5t-23 43t-27.5 36v-47q17 -37 24 -63t12 -53l-64 12zM392 327q5 0 16 8l80 69q10 9 16 9q14 0 14 -20v-62q64 -31 64 -55q0 -29 -64 -53v-56q0 -25 -14 -25q-6 0 -19 10l-72 62 q-14 13 -22 13q-11 0 -11 -13q0 -5 9 -17l62 -86q6 -9 6 -15q0 -11 -12 -11q-4 0 -6 1l-73 13q-8 -32 -27.5 -67t-45 -69t-54 -65t-54.5 -55t-46.5 -38t-30.5 -14q-7 0 -8 5q0 1 -0.5 2t-0.5 2q0 7 6 13q68 74 113.5 147t52.5 140l-50 -7q-2 0 -3.5 -0.5t-3.5 -0.5h-4 q-11 0 -11 10q0 4 6 13l68 77q12 13 12 20q0 10 -11 10q-10 0 -17 -6l-84 -64q-9 -8 -15 -8q-9 0 -9 21v57q-65 28 -65 55q0 9 7 18t17 16t21.5 12t19.5 8v61q2 14 9 14q5 0 19 -10l80 -60q10 -5 16 -5q11 0 11 9q0 7 -12 21l-68 77q-6 9 -6 13q0 10 11 10q2 -1 4 -1h7 l50 -7q-7 67 -52.5 140.5t-113.5 146.5q-6 7 -6 13q0 1 0.5 2t0.5 2q1 5 8 5q10 0 30.5 -14t46.5 -38t54.5 -55t54 -65t45 -69.5t27.5 -66.5l73 13q2 1 6 1q12 0 12 -11q0 -6 -6 -15l-62 -86q-9 -11 -9 -18q0 -11 13 -11zM240 118l64 12q-5 -27 -12 -53t-24 -63v-47 q15 15 27.5 36t23 43t18 43.5t12.5 39.5l69 -16l-52 74v-32h-24l-19 -33h-2v33h-23v29l-61 -63zM491 185v56q65 17 65 37q0 14 -65 35v58l-77 -60v-2h47v-20q19 -3 31 -12q-17 -9 -31 -12v-22h-47v-2zM279 279q0 -21 15 -36.5t37 -15.5q21 0 37 16q15 15 15 37t-15 37 t-37 15t-37 -15.5t-15 -37.5zM110 277q0 -17 64 -35v-57l79 58l-3 2h-44v20q-20 3 -34 12q13 10 34 13v21h43l1 2l-76 57v-57q-13 -2 -23.5 -6.5t-21.5 -9.5q-19 -10 -19 -20z" horiz-adv-x="611"/>
<glyph glyph-name="uni00B5" d="M492 0h-80v82h-2q-27 -48 -69.5 -71t-98.5 -23q-32 0 -55 9t-36 29h-2v-224h-85v715h85v-350q0 -48 28 -76t77 -28q39 0 67.5 12t47.5 34t28.5 51.5t9.5 64.5v292h85v-517z"/>
<glyph glyph-name="uni2126" d="M434 0v181q45 8 79.5 28.5t58 51.5t35 70t11.5 84q0 54 -19.5 99t-53.5 77.5t-80 50.5t-99 18t-99 -18.5t-80 -51t-53.5 -77.5t-19.5 -98q0 -44 11.5 -83.5t35 -70.5t58 -52t79.5 -28v-181h-251v58h197v82q-47 13 -83.5 40t-62 63.5t-38.5 80.5t-13 92q0 67 25.5 123 t69.5 96.5t102 63t123 22.5t122.5 -22.5t101 -63t69 -96.5t25.5 -122q0 -48 -13 -92.5t-38 -81t-61.5 -63.5t-84.5 -40v-82h197v-58h-251z" horiz-adv-x="744"/>
<glyph glyph-name="uniFBA5" d="M187 82q-24 0 -55.5 7t-60 25.5t-48.5 52t-20 87.5t19 90.5t49 59.5t66.5 33t72.5 10h159v-287q0 -42 13 -59.5t58 -17.5h24q40 0 40 -40q0 -25 -9.5 -34t-30.5 -9h-34q-26 0 -49.5 4.5t-42 16t-31.5 30.5t-17 49q-22 -8 -49.5 -13t-53.5 -5zM83 261q0 -42 26.5 -68 t84.5 -26q22 0 47.5 5t45.5 13v178h-88q-48 0 -82 -24.5t-34 -77.5zM293 548h-183v45h45q-14 23 -14 51q0 22 7 38.5t19 27.5t27.5 17t31.5 6q17 0 29.5 -2t18.5 -7v-46q-20 9 -43 9q-24 0 -35 -14t-11 -31q0 -20 13 -34.5t39 -14.5h56v-45z" horiz-adv-x="464"/>
<glyph glyph-name="uni0640.narrow" d="M0 0q-40 0 -40 40q0 25 9.5 34t30.5 9h116q40 0 40 -40q0 -25 -9.5 -34t-30.5 -9h-116z" horiz-adv-x="115"/>
<glyph glyph-name="uni0640.long" d="M0 0q-40 0 -40 40q0 25 9.5 34t30.5 9h197q40 0 40 -40q0 -25 -9.5 -34t-30.5 -9h-197z" horiz-adv-x="196"/>
<glyph glyph-name="uni0615" d="M67 569q39 53 94 53q37 0 58 -23.5t21 -65.5v-68h-260v42h47v207h40v-145zM201 507v19q0 21 -9.5 37t-36.5 16q-28 0 -51.5 -21.5t-34.5 -50.5h132z" horiz-adv-x="0"/>
<glyph glyph-name="uni064C0651" d="M5 724q-12 -20 -30 -25t-29 -5q-71 0 -71 81v68h46v-62q0 -42 29 -42q11 0 21 7.5t10 33.5v45h46v-44q0 -26 10 -33t20 -7q18 0 23 9.5t5 27.5v65h46v-68q0 -42 -16.5 -61.5t-51.5 -19.5q-15 0 -30.5 6.5t-27.5 23.5zM96 981q-15 -8 -37 -8q-32 0 -51.5 18.5t-19.5 49.5 q0 34 22 56.5t54 22.5t54.5 -22t22.5 -71q0 -37 -9.5 -62t-25.5 -40t-37.5 -21.5t-45.5 -6.5q-42 0 -67.5 18.5t-41.5 44.5l-61 -34l-20 38l95 54q17 -36 39 -58t59 -22q30 0 47.5 13t22.5 30zM68 1012q12 0 20 2.5t13 4.5v8q0 26 -10.5 39.5t-26.5 13.5q-18 0 -27 -12 t-9 -25q0 -9 4.5 -15t10.5 -9.5t13 -5t12 -1.5z" horiz-adv-x="123"/>
<glyph glyph-name="uni064D0651" d="M-9 907q-12 -20 -30 -25t-29 -5q-71 0 -71 81v68h46v-62q0 -42 29 -42q11 0 21 7.5t10 33.5v45h46v-44q0 -26 10 -33t20 -7q18 0 23 9.5t5 27.5v65h46v-68q0 -42 -16.5 -61.5t-51.5 -19.5q-15 0 -30.5 6.5t-27.5 23.5zM118 798l-240 -34v45l240 34v-45zM116 706l-240 -34 v45l240 34v-45z" horiz-adv-x="123"/>
<glyph glyph-name="uni064B0651" d="M5 724q-12 -20 -30 -25t-29 -5q-71 0 -71 81v68h46v-62q0 -42 29 -42q11 0 21 7.5t10 33.5v45h46v-44q0 -26 10 -33t20 -7q18 0 23 9.5t5 27.5v65h46v-68q0 -42 -16.5 -61.5t-51.5 -19.5q-15 0 -30.5 6.5t-27.5 23.5zM120 921l-240 -34v45l240 34v-45zM120 998l-240 -34 v45l240 34v-45z" horiz-adv-x="123"/>
<glyph glyph-name="uni064E0651" d="M5 724q-12 -20 -30 -25t-29 -5q-71 0 -71 81v68h46v-62q0 -42 29 -42q11 0 21 7.5t10 33.5v45h46v-44q0 -26 10 -33t20 -7q18 0 23 9.5t5 27.5v65h46v-68q0 -42 -16.5 -61.5t-51.5 -19.5q-15 0 -30.5 6.5t-27.5 23.5zM117 921l-240 -34v45l240 34v-45z" horiz-adv-x="123"/>
<glyph glyph-name="uni064F0651" d="M5 724q-12 -20 -30 -25t-29 -5q-71 0 -71 81v68h46v-62q0 -42 29 -42q11 0 21 7.5t10 33.5v45h46v-44q0 -26 10 -33t20 -7q18 0 23 9.5t5 27.5v65h46v-68q0 -42 -16.5 -61.5t-51.5 -19.5q-15 0 -30.5 6.5t-27.5 23.5zM40 975q-15 -8 -37 -8q-32 0 -51.5 18.5t-19.5 49.5 q0 34 22 56.5t54 22.5t54.5 -22t22.5 -71q0 -37 -9.5 -61.5t-26 -39.5t-40 -21.5t-50.5 -6.5q-28 0 -46 5v40q11 -2 25 -3.5t21 -1.5q38 0 57 13t24 30zM12 1006q12 0 20 2.5t13 4.5v8q0 26 -10.5 39.5t-26.5 13.5q-18 0 -27 -12t-9 -25q0 -9 4.5 -15t10.5 -9.5t13 -5 t12 -1.5z" horiz-adv-x="123"/>
<glyph glyph-name="uni06500651" d="M-1 844q-12 -20 -30 -25t-29 -5q-71 0 -71 81v68h46v-62q0 -42 29 -42q11 0 21 7.5t10 33.5v45h46v-44q0 -26 10 -33t20 -7q18 0 23 9.5t5 27.5v65h46v-68q0 -42 -16.5 -61.5t-51.5 -19.5q-15 0 -30.5 6.5t-27.5 23.5zM120 721l-240 -34v45l240 34v-45z" horiz-adv-x="123"/>
<glyph glyph-name="uni06510670" d="M5 724q-12 -20 -30 -25t-29 -5q-71 0 -71 81v68h46v-62q0 -42 29 -42q11 0 21 7.5t10 33.5v45h46v-44q0 -26 10 -33t20 -7q18 0 23 9.5t5 27.5v65h46v-68q0 -42 -16.5 -61.5t-51.5 -19.5q-15 0 -30.5 6.5t-27.5 23.5zM-20 1081h47v-201h-47v201z" horiz-adv-x="123"/>
<glyph glyph-name="uni06540651" d="M78 739h-183v45h45q-14 23 -14 51q0 22 7 38.5t19 27.5t27.5 17t31.5 6q17 0 29.5 -2t18.5 -7v-46q-20 9 -43 9q-24 0 -35 -14t-11 -31q0 -20 13 -34.5t39 -14.5h56v-45zM118 1001l-240 -34v45l240 34v-45zM118 1078l-240 -34v45l240 34v-45z" horiz-adv-x="352"/>
<glyph glyph-name="uni0654064E" d="M78 739h-183v45h45q-14 23 -14 51q0 22 7 38.5t19 27.5t27.5 17t31.5 6q17 0 29.5 -2t18.5 -7v-46q-20 9 -43 9q-24 0 -35 -14t-11 -31q0 -20 13 -34.5t39 -14.5h56v-45zM120 1001l-240 -34v45l240 34v-45z" horiz-adv-x="352"/>
<glyph glyph-name="uni0654064C" d="M78 739h-183v45h45q-14 23 -14 51q0 22 7 38.5t19 27.5t27.5 17t31.5 6q17 0 29.5 -2t18.5 -7v-46q-20 9 -43 9q-24 0 -35 -14t-11 -31q0 -20 13 -34.5t39 -14.5h56v-45zM85 1065q-15 -8 -37 -8q-32 0 -51.5 18.5t-19.5 49.5q0 34 22 56.5t54 22.5t54.5 -22t22.5 -71 q0 -37 -9.5 -62t-25.5 -40t-37.5 -21.5t-45.5 -6.5q-42 0 -67.5 18.5t-41.5 44.5l-61 -34l-20 38l95 54q17 -36 39 -58t59 -22q30 0 47.5 13t22.5 30zM57 1096q12 0 20 2.5t13 4.5v8q0 26 -10.5 39.5t-26.5 13.5q-18 0 -27 -12t-9 -25q0 -9 4.5 -15t10.5 -9.5t13 -5t12 -1.5 z" horiz-adv-x="352"/>
<glyph glyph-name="uni0654064F" d="M78 739h-183v45h45q-14 23 -14 51q0 22 7 38.5t19 27.5t27.5 17t31.5 6q17 0 29.5 -2t18.5 -7v-46q-20 9 -43 9q-24 0 -35 -14t-11 -31q0 -20 13 -34.5t39 -14.5h56v-45zM40 1065q-15 -8 -37 -8q-32 0 -51.5 18.5t-19.5 49.5q0 34 22 56.5t54 22.5t54.5 -22t22.5 -71 q0 -37 -9.5 -61.5t-26 -39.5t-40 -21.5t-50.5 -6.5q-28 0 -46 5v40q11 -2 25 -3.5t21 -1.5q38 0 57 13t24 30zM12 1096q12 0 20 2.5t13 4.5v8q0 26 -10.5 39.5t-26.5 13.5q-18 0 -27 -12t-9 -25q0 -9 4.5 -15t10.5 -9.5t13 -5t12 -1.5z" horiz-adv-x="352"/>
<glyph glyph-name="uni06540652" d="M78 739h-183v45h45q-14 23 -14 51q0 22 7 38.5t19 27.5t27.5 17t31.5 6q17 0 29.5 -2t18.5 -7v-46q-20 9 -43 9q-24 0 -35 -14t-11 -31q0 -20 13 -34.5t39 -14.5h56v-45zM-44 1062q0 -18 13 -31t31 -13t31 13t13 31t-13 31t-31 13t-31 -13t-13 -31zM-80 1061 q0 33 23 56.5t56 23.5t56.5 -23.5t23.5 -56.5t-23.5 -56t-56.5 -23t-56 23t-23 56z" horiz-adv-x="352"/>
<glyph glyph-name="uni06550650" d="M78 -249h-183v46h45q-14 23 -14 50q0 22 7 39t19 28t27.5 17t31.5 6q17 0 29.5 -2t18.5 -7v-47q-20 9 -43 9q-24 0 -35 -14t-11 -31q0 -20 13 -34t39 -14h56v-46zM120 -349l-240 -34v45l240 34v-45z" horiz-adv-x="352"/>
<glyph glyph-name="uni0655064D" d="M78 -249h-183v46h45q-14 23 -14 50q0 22 7 39t19 28t27.5 17t31.5 6q17 0 29.5 -2t18.5 -7v-47q-20 9 -43 9q-24 0 -35 -14t-11 -31q0 -20 13 -34t39 -14h56v-46zM121 -425l-240 -34v45l240 34v-45zM121 -348l-240 -34v45l240 34v-45z" horiz-adv-x="352"/>
<glyph glyph-name="uni064406440647" d="M82 233q0 -17 7 -31.5t23 -25.5t42 -17t64 -6q10 0 31 1.5t37 4.5v196q-46 -2 -83.5 -10.5t-64.5 -24t-41.5 -37.5t-14.5 -50zM429 0q-51 0 -87 17.5t-50 65.5q-22 -3 -48 -4.5t-43 -1.5q-92 0 -146.5 40t-54.5 108q0 51 24.5 89t64.5 63.5t91.5 38.5t105.5 13v58h82 v-327q0 -42 13 -59.5t58 -17.5h97q18 0 32 2t23.5 9.5t15 22t5.5 39.5v558h82v-521q0 -50 19.5 -80t61.5 -30h162v631h82v-714h-244q-37 0 -59 19t-30 46q-18 -41 -57.5 -53t-101.5 -12h-98z" horiz-adv-x="1089"/>
<glyph glyph-name="uniFDFA.Farsi" d="M134 -59q0 -7 1.5 -15t4 -15t7.5 -12t12 -5t14 4zM116 204l-35 -30q15 -3 26 -3q6 0 12.5 1.5t11.5 2.5zM115 539q-6 -10 -17 -20t-19 -15q2 -2 8.5 -3t14 -1t16 1t15.5 2zM562 247q-6 -12 -21 -24.5t-33 -21.5v-2q20 -1 39 -1t39 3zM393 285q-4 -3 -7.5 -6t-9 -7 t-14 -8.5t-21.5 -11.5l-52 -28l10 25q8 3 23 11t31.5 17.5t32 18.5t23.5 15zM169 675q7 0 7 7q0 4 -2.5 8.5t-2.5 7.5q0 4 1 6.5t4 2.5t4 -1.5t2 -4.5q4 -15 9 -19t13 -3q-1 1 -2 3.5t-2 5.5t-2 5.5t-1 3.5q0 4 2 8t6 7q6 -8 9.5 -17t3.5 -16q0 -10 -3.5 -14t-8 -5t-10 0.5 t-8.5 3.5q-3 -6 -9.5 -8.5t-14 0t-13 9t-5.5 18.5q0 9 2 12.5t7 3.5q0 -13 4 -18.5t10 -5.5zM990 379l-12 -22q-2 -5 -15 -11l-134 -61l11 25zM615 -143q4 0 6 -1.5t4.5 -4t4.5 -4t5 -1.5q6 0 9.5 2.5t6 6t4 6t2.5 2.5q2 0 3 -2t1.5 -4.5t2 -4.5t5.5 -2l4 1q0 11 7 14 q3 -3 3 -10q0 -9 -3.5 -14t-8.5 -7t-10 -0.5t-8 5.5q-3 -5 -9 -8t-14 -3q-4 0 -6.5 1.5t-4 4t-3.5 4t-6 1.5t-10.5 -5t-17.5 -11q-10 -7 -24.5 -12t-34.5 -5q-14 0 -22 1.5t-8 3.5q0 1 2.5 2t6.5 1q20 0 38.5 6.5t33.5 15t26 15t15 6.5zM971 92q6 3 13.5 7t10.5 6 q-1 -9 -7 -19.5t-14 -13.5l-135 -64l9 27zM910 494q-10 0 -21 -3.5t-20.5 -9.5t-17.5 -12.5t-12 -12.5h34q18 0 36 0.5t33.5 1.5t27.5 3q-2 4 -9 9.5t-15.5 11t-18 9t-17.5 3.5zM172 392q10 0 23 5.5t26 11.5t23 11.5t13 5.5q8 0 14.5 -5t6.5 -11q0 -5 -2.5 -9.5t-4.5 -7.5 q-3 4 -7 5.5t-9 1.5q-6 0 -14.5 -5.5t-18.5 -11.5t-20.5 -11.5t-21.5 -5.5q0 -17 -1.5 -24t-4.5 -8q-1 7 -4.5 14t-8.5 13t-11.5 11t-12.5 7q-4 13 -3 19t5 6q2 0 5.5 -2t8 -4t9.5 -4t10 -2zM683 104l41 -21l14 28l40 -24l-22 -38l-35 19l-17 -26l-40 19zM574 636 q20 7 46 17.5t53.5 22.5t54 24.5t47.5 23.5q-9 -26 -42 -41l-181 -83zM377 5l154 61q23 10 42 20t32 17q6 4 8 2t-1 -6l-12 -16q-6 -5 -16.5 -11.5t-24 -13.5t-29 -14.5t-31.5 -14.5l-104 -43q6 -9 4 -18t-7.5 -16t-13.5 -12t-12 -5q5 7 7 14t1.5 13t-3.5 9.5t-9 4.5 q-4 0 -4.5 3t1.5 5zM938 666q-20 -12 -47 -25.5t-55.5 -26.5t-55.5 -25t-48 -21q8 -6 7 -16.5t-7 -21t-13.5 -18t-11.5 -8.5h-5l-1 2q0 3 2 6.5t4 7.5l4 9q2 5 2 9q0 6 -3.5 8.5t-8 2.5t-8 0.5t-3.5 2.5q0 3 3.5 8.5t17.5 16.5l19 15l225 99zM984 -83q0 -23 -6 -37.5 t-14.5 -23t-17 -11.5t-13.5 -3q-10 0 -22.5 1.5t-23 2.5t-18.5 2.5t-9 2.5q-5 1 -5 3q0 1 1.5 2t3.5 1q18 2 37 8t34.5 13.5t25 16t9.5 16.5q0 3 -3.5 7t-6.5 5q-5 -1 -12.5 -1.5t-14.5 1t-12 5t-5 12.5t2.5 18.5t6 17t8.5 12.5t12 5q6 0 13.5 -4.5t14 -14t11 -24t4.5 -33.5 zM441 181q0 -23 -6 -37.5t-14.5 -23t-17 -11.5t-14.5 -3q-13 0 -26 0.5t-23.5 1.5t-16.5 2t-6 2q0 3 5 4.5t16 4.5q9 1 23 7.5t28 14.5t24 17t10 15q0 3 -3 6.5t-7 5.5q-5 -2 -13 -2.5t-15 1t-12 6t-5 12.5q0 3 1.5 12t5.5 18.5t9.5 16.5t13.5 7q6 0 13.5 -5t14 -14.5 t11 -24t4.5 -33.5zM251 270q13 -25 21.5 -43.5t13.5 -33t7 -25.5t2 -20q0 -4 -1 -10t-2 -13t-2.5 -13.5t-2.5 -9.5q-3 -8 -7 -8l-2 1v8q0 16 -2 29.5t-7 24.5l-47 93q-3 7 -6 15t-6 15t-4.5 13.5t-1.5 8.5q0 3 1.5 10t4 13.5t6 11.5t5.5 5q3 0 7 -9q2 -5 7 -12t11 -14.5 t12 -14.5t10 -9q8 -5 10.5 -8t2.5 -5q0 -3 -3 -3.5t-7 -0.5q-3 0 -8.5 1.5t-9.5 4.5zM401 417l-2 12q-1 6 -3.5 13t-6.5 18t-11 26t-17 37q-25 52 -36 77.5t-11 34.5q0 22 6 36t9 14q4 0 7 -8q1 -2 5.5 -8t11 -13.5t13 -14.5t12.5 -11q12 -9 12 -12t-8 -3t-25 2 q15 -32 25.5 -56t16.5 -43t8 -34.5t2 -30.5q0 -8 -0.5 -16t-4.5 -18zM96 236q3 3 5 9.5t3 11.5t2 9t3 4q3 0 5 -2.5t5 -9.5l33 -67q7 -14 16 -23t27 -9q5 0 9 0.5t4 3.5q0 4 -5 14t-12.5 23t-16 27.5t-15.5 27.5t-12 23.5t-5 16.5q0 4 1.5 10t4 12.5t5 11t4.5 4.5q5 0 8 -7 q1 -3 4.5 -8.5t8 -11.5t10 -12.5t10.5 -11.5q7 -6 9 -9t2 -4q0 -4 -4 -5.5t-14 -1.5q12 -22 20 -36.5t11.5 -25t5 -18t1.5 -16.5q0 -55 -37 -55q-22 0 -34.5 10t-19.5 33q-14 -9 -26 -13t-23 -4q-17 0 -23.5 3.5t-6.5 9.5q0 7 1.5 17t4.5 14q2 3 6.5 7.5t10 9.5t12 10 t13.5 9zM739 390q2 6 3 8.5t3 2.5t5 -3.5t5 -7.5l65 -150q7 -18 20.5 -32t28.5 -14q0 12 3.5 25.5t10.5 25t16.5 19.5t21.5 8q10 0 19.5 -6.5t16.5 -15.5t11.5 -17t4.5 -11q0 -5 -3 -5t-7 3l-10 7q-6 5 -14 8t-19 3t-19 -4.5t-8 -13.5q0 -6 4 -11t9 -8.5t10 -6t7 -2.5l53 3 q13 0 13 -8q0 -4 -2.5 -11.5t-8.5 -19.5q-6 -1 -22 -3t-33.5 -4t-33 -3t-21.5 -1q-9 0 -17.5 1.5t-16 7t-14.5 15.5t-13 25h-2q-8 -29 -19 -39.5t-21 -10.5q-17 0 -28.5 9.5t-12.5 20.5h-2q-4 -18 -18 -26t-36 -8q-11 0 -22.5 3t-21.5 8.5t-18 13t-12 17.5 q-22 -14 -42.5 -20t-37.5 -6q-16 1 -25.5 6.5t-9.5 15.5q0 2 1.5 8t3.5 12.5t5 12t6 7.5l57 42l-15 25l6 28q1 4 2.5 7.5t5.5 3.5q5 0 10 -10l48 -91q7 -14 22 -22t29 -10.5t23 -2.5q8 0 19 2t17 10l5 28q1 10 5 10q5 0 5 -9q0 -8 5.5 -17t14.5 -14.5t18.5 -6t16.5 8.5 q0 13 -2 26.5t-8 31.5t-17.5 42.5t-29.5 58.5zM174 89q2 7 4 11t3 4q2 0 6.5 -6t11.5 -23l45 -99q7 -16 18 -27.5t29 -18.5t44.5 -10.5t64.5 -3.5q63 0 110 3.5t80.5 8.5t55.5 11.5t35.5 11.5t19 8.5t7.5 3.5q3 0 8.5 -4.5t12.5 -10t15 -10t17 -4.5l13 2q0 24 2.5 34.5 t6.5 10.5t4 -7t3.5 -14.5t9.5 -13.5t14 -10t20 -4l-18 26q2 13 5.5 22t7.5 9t9.5 -5.5t10 -14t7.5 -18t3 -16.5q0 -21 -7 -32.5t-17.5 -15.5t-22.5 -0.5t-21 13.5q-9 -12 -20.5 -14.5t-23 0.5t-22 11.5t-17.5 18.5q-17 -10 -50.5 -19t-75.5 -16t-89.5 -11t-93.5 -4 q-42 0 -71 3.5t-48.5 11.5t-31.5 21t-19 32h-2q-4 -14 -13 -25.5t-22 -11.5q-8 -25 -17.5 -36.5t-23.5 -11.5q-11 0 -21 9t-12 34h-2q-6 -12 -18.5 -21.5t-26 -16.5t-24.5 -10.5t-16 -3.5t-5 2t2.5 4t9.5 5q5 2 17.5 12.5t25.5 25.5t22.5 32t10.5 33q5 3 9.5 12.5t4.5 18.5 t6 11q4 0 11.5 -7t20.5 -26q8 -12 14.5 -16t14.5 -4t13.5 4.5t5.5 11.5q0 8 -4.5 21t-11 28.5t-14.5 31t-15 26.5zM441 437q20 7 31.5 11.5t17.5 9.5t8 11t2 16q0 12 -5 29t-13.5 36.5t-19 40t-20.5 37.5l9 35q1 4 2.5 6t3.5 2t5 -4t6 -10l62 -131q9 -20 17 -32.5t19 -19.5 t29.5 -9.5t49.5 -2.5q25 0 41.5 2.5t27.5 5.5t17.5 7.5t9.5 8.5q2 3 2.5 7.5t-1.5 9.5q-1 3 0.5 5t3.5 2q5 0 10 -8t12 -17.5t17.5 -17t27.5 -7.5q27 33 54.5 51.5t53.5 18.5q10 0 19 -2t16.5 -8t14.5 -16t14 -26q4 -8 6.5 -12.5t7.5 -6.5l-10 -33q-2 -8 -9.5 -9.5 t-16.5 -2.5l-109 -5h-12q-7 0 -14 0.5t-14 0.5t-10 1q-14 -21 -20.5 -29.5t-10.5 -8.5t-2 8.5t14 33.5q-9 7 -20.5 21t-16.5 33h-2q-3 -14 -8.5 -24t-18 -16.5t-35 -10t-59.5 -3.5q-25 0 -42.5 2.5t-29.5 9t-19.5 18t-12.5 29.5h-2q-3 -12 -11 -23t-15 -16v-2q6 0 13.5 -1.5 t14.5 -4.5t11.5 -6.5t4.5 -6.5l-10 -36q-34 -27 -70.5 -43t-69.5 -16q-24 0 -43 7t-31.5 22.5t-17.5 36.5t-5 45v17q-12 3 -23 14t-22 30q-6 -24 -18 -37t-27 -13q-22 0 -35 10.5t-24 33.5q-21 -15 -38 -20t-28.5 -3t-18 7.5t-6.5 10.5q0 16 6.5 29t14.5 18q11 7 17.5 10.5 t9.5 6.5t4 5.5t1 4.5q0 3 -2.5 8t-10.5 13l6 29q1 5 2 8t4 3t7.5 -4t10.5 -14t14.5 -27.5t20.5 -44.5q7 -16 19.5 -24t24.5 -9t21 3.5t9 12.5q0 5 -4.5 16t-11 23.5t-14.5 26t-15 23.5l8 25q2 6 3.5 8.5t5.5 2.5q2 0 7 -8t11.5 -19.5t14 -26t13.5 -26.5q9 -18 16.5 -29.5 t15 -18t14.5 -9t14 -2.5l19 3q-29 35 -45.5 56.5t-25 34.5t-10.5 20.5t-2 13.5t1.5 12.5t4 13t5.5 10.5t6 4q4 0 10 -12q1 -3 4.5 -8.5t8 -11.5t10.5 -11t11 -9q12 -10 12 -13q0 -7 -20 -7q13 -18 23 -32.5t17 -28t10 -27t3 -30.5q0 -9 -4.5 -15t-11.5 -9.5t-15.5 -3.5 t-15.5 2q1 -19 11.5 -33.5t25 -25t30 -15t27.5 -4.5h5q22 1 47 6.5t50 16.5v4q-35 3 -51 7t-20 7z" horiz-adv-x="1057"/>
<glyph glyph-name="uni0660.pnum" d="M162 107l-89 89l89 86l88 -87z" horiz-adv-x="309"/>
<glyph glyph-name="uni0661.pnum" d="M99 606h79v-606h-79v606z" horiz-adv-x="270"/>
<glyph glyph-name="uni0662.pnum" d="M173 0h-79v606h81v-87q15 -11 38.5 -17t57.5 -6q48 0 66.5 19.5t18.5 54.5v36h78v-27q0 -81 -41 -119.5t-111 -38.5q-39 0 -64 7t-45 16v-444z" horiz-adv-x="463"/>
<glyph glyph-name="uni0663.pnum" d="M177 0h-79v606h81v-90q11 -8 28 -14t34 -6q29 0 38 19.5t9 54.5v36h78v-27q0 -40 -9 -68q11 -6 25.5 -10.5t28.5 -4.5q29 0 38 19.5t9 54.5v36h78v-27q0 -81 -33.5 -119.5t-83.5 -38.5q-28 0 -49 11t-40 24v1q-16 -19 -36.5 -27.5t-44.5 -8.5q-28 0 -45.5 8.5t-26.5 14.5 v-444z" horiz-adv-x="549"/>
<glyph glyph-name="uni0664.pnum" d="M230 270q-44 0 -73.5 -25t-29.5 -71q0 -45 26.5 -69.5t71.5 -24.5h148v-80h-145q-39 0 -72 8.5t-57.5 27t-38.5 48t-14 72.5q0 22 6 45t19 44t32 37.5t46 25.5q-22 11 -36.5 27t-23 34t-12 36.5t-3.5 34.5q0 82 48 123.5t137 41.5h75v-80h-77q-42 0 -72 -19t-30 -67 q0 -47 30 -67.5t72 -20.5h76v-81h-103z" horiz-adv-x="409"/>
<glyph glyph-name="uni0665.pnum" d="M273 92q23 0 43.5 5.5t35.5 21t23.5 42.5t8.5 70q0 75 -9 131t-24.5 92.5t-35.5 55t-42 18.5q-21 0 -41 -18.5t-35.5 -55t-25 -92.5t-9.5 -131q0 -43 9 -70t24 -42.5t35 -21t43 -5.5zM272 0q-35 0 -68.5 10.5t-60 36t-42.5 68.5t-16 107q0 109 15.5 182.5t41 118.5 t59.5 64.5t72 19.5q37 0 71.5 -19t60.5 -64t41.5 -119t15.5 -183q0 -64 -16.5 -107t-43 -68.5t-60.5 -36t-70 -10.5z" horiz-adv-x="532"/>
<glyph glyph-name="uni0666.pnum" d="M342 0h-79v522h-230v84h309v-606z" horiz-adv-x="432"/>
<glyph glyph-name="uni0667.pnum" d="M254 128l138 472h84l-181 -600h-81l-182 600h83z" horiz-adv-x="505"/>
<glyph glyph-name="uni0668.pnum" d="M254 472l-138 -472h-84l181 600h81l182 -600h-83z" horiz-adv-x="505"/>
<glyph glyph-name="uni0669.pnum" d="M112 452q0 -39 21.5 -58.5t58.5 -19.5h70v154h-70q-38 0 -59 -19.5t-21 -56.5zM340 606v-606h-78v297h-63q-36 0 -66 9.5t-52 28.5t-34.5 47.5t-12.5 66.5q0 75 42.5 116t121.5 41h142z" horiz-adv-x="430"/>
<glyph glyph-name="uni06F0.pnum" d="M162 107l-89 89l89 86l88 -87z" horiz-adv-x="309"/>
<glyph glyph-name="uni06F1.pnum" d="M99 606h79v-606h-79v606z" horiz-adv-x="270"/>
<glyph glyph-name="uni06F2.pnum" d="M173 0h-79v606h81v-87q15 -11 38.5 -17t57.5 -6q48 0 66.5 19.5t18.5 54.5v36h78v-27q0 -81 -41 -119.5t-111 -38.5q-39 0 -64 7t-45 16v-444z" horiz-adv-x="463"/>
<glyph glyph-name="uni06F3.pnum" d="M177 0h-79v606h81v-90q11 -8 28 -14t34 -6q29 0 38 19.5t9 54.5v36h78v-27q0 -40 -9 -68q11 -6 25.5 -10.5t28.5 -4.5q29 0 38 19.5t9 54.5v36h78v-27q0 -81 -33.5 -119.5t-83.5 -38.5q-28 0 -49 11t-40 24v1q-16 -19 -36.5 -27.5t-44.5 -8.5q-28 0 -45.5 8.5t-26.5 14.5 v-444z" horiz-adv-x="549"/>
<glyph glyph-name="uni06F4.pnum" d="M174 0h-79v606h81v-127q15 -6 38.5 -12t50.5 -9q-8 19 -12 45t-4 40q0 57 29 82.5t82 25.5h15v-67q-35 -1 -46.5 -14t-11.5 -44q2 -8 5 -28t14 -42q17 1 31.5 4.5t25.5 12.5t17.5 24.5t6.5 41.5h78q0 -51 -16.5 -82t-43 -48t-59.5 -22.5t-66 -5.5q-39 0 -77.5 7t-58.5 16 v-404z" horiz-adv-x="505"/>
<glyph glyph-name="uni06F5.pnum" d="M347 224q0 74 -9 130.5t-24 94t-34.5 56.5t-40.5 19t-40.5 -19t-34.5 -56.5t-24 -94t-9 -130.5q0 -69 13.5 -101.5t41.5 -32.5q9 0 17 4t14.5 9t12 9t9.5 4t9 -4t11 -9t15 -9t21 -4q25 0 38.5 32.5t13.5 101.5zM50 215q0 109 15.5 183.5t41.5 120.5t60 66.5t72 20.5 q37 0 71.5 -20t60.5 -66t41.5 -121t15.5 -184q0 -45 -6.5 -84t-19.5 -68t-32 -46t-43 -17q-43 0 -86 37q-20 -18 -40 -27t-46 -9q-51 0 -78 54t-27 160z" horiz-adv-x="478"/>
<glyph glyph-name="uni06F6.pnum" d="M291 314q-27 -49 -54.5 -100.5t-56.5 -102.5q-14 -27 -30 -56t-30 -55h-85l164 303q-41 4 -69.5 17.5t-46.5 34.5t-26 46.5t-8 53.5q0 33 11.5 61t32.5 48t50 31t65 11h82v-77h-86q-34 0 -54 -21t-20 -52q0 -40 25 -58t84 -18h52v-66z" horiz-adv-x="330"/>
<glyph glyph-name="uni06F7.pnum" d="M254 128l138 472h84l-181 -600h-81l-182 600h83z" horiz-adv-x="505"/>
<glyph glyph-name="uni06F8.pnum" d="M254 472l-138 -472h-84l181 600h81l182 -600h-83z" horiz-adv-x="505"/>
<glyph glyph-name="uni06F9.pnum" d="M112 452q0 -39 21.5 -58.5t58.5 -19.5h70v154h-70q-38 0 -59 -19.5t-21 -56.5zM340 606v-606h-78v297h-63q-36 0 -66 9.5t-52 28.5t-34.5 47.5t-12.5 66.5q0 75 42.5 116t121.5 41h142z" horiz-adv-x="430"/>
<glyph glyph-name="uni06F4.Urdu" d="M126 0h-82v481q0 27 9 51t25.5 42t40 28.5t52.5 10.5q26 0 46 -8t34.5 -20t25 -27t18.5 -29q20 21 45 40t57 35l40 -63q-26 -13 -47 -25t-39.5 -25t-36.5 -27t-37 -30q-22 54 -53 78.5t-54 24.5q-20 0 -32 -15t-12 -35v-487z" horiz-adv-x="450"/>
<glyph glyph-name="uni06F7.Urdu" d="M49 76q25 53 50.5 106t52.5 106l152 318h75l-250 -529h251v-77h-332z" horiz-adv-x="450"/>
<glyph glyph-name="uni06F4.Urdupnum" d="M177 0h-82v481q0 27 9 51t25.5 42t40 28.5t52.5 10.5q26 0 46 -8t34.5 -20t25 -27t18.5 -29q20 21 45 40t57 35l40 -63q-26 -13 -47 -25t-39.5 -25t-36.5 -27t-37 -30q-22 54 -53 78.5t-54 24.5q-20 0 -32 -15t-12 -35v-487z" horiz-adv-x="498"/>
<glyph glyph-name="uni06F7.Urdupnum" d="M34 76q25 53 50.5 106t52.5 106l152 318h75l-250 -529h251v-77h-332z" horiz-adv-x="394"/>
<glyph glyph-name="glyph541" d="M808 0h-606q-58 0 -96.5 8t-62 25.5t-33.5 45t-10 67.5v155h82v-125q0 -31 7.5 -49.5t25.5 -28t49 -12.5t79 -3h483v302h82v-385z" horiz-adv-x="878"/>
<glyph glyph-name="glyph542" d="M895 0q-39 0 -63 18.5t-32 46.5q-9 -21 -24 -33.5t-37.5 -19.5t-54.5 -9.5t-75 -2.5h-407q-58 0 -96.5 8t-62 25.5t-33.5 45t-10 67.5v155h82v-125q0 -31 7.5 -49.5t25.5 -28t49 -12.5t79 -3h365q33 0 56 2t36.5 9.5t19.5 22t6 39.5v229h82v-192q0 -25 3.5 -45.5 t13.5 -34.5t27 -22t43 -8q40 0 40 -40q0 -25 -9.5 -34t-30.5 -9z" horiz-adv-x="895"/>
<glyph glyph-name="glyph543" d="M590 83q-11 21 -19 46.5t-8 58.5q0 39 13 77t38 67.5t61.5 48t84.5 18.5q55 0 90 -20t55.5 -51t28.5 -68.5t8 -73.5v-186h-740q-58 0 -96.5 8t-62 25.5t-33.5 45t-10 67.5v155h82v-125q0 -31 7.5 -49.5t25.5 -28t49 -12.5t79 -3h347zM641 201q0 -61 36 -89.5t88 -28.5h96 v100q0 24 -4.5 48.5t-16.5 44t-33 32t-53 12.5q-53 0 -83 -35t-30 -84z" horiz-adv-x="1002"/>
<glyph glyph-name="glyph544" d="M0 0q-40 0 -40 40q0 25 9.5 34t30.5 9h114q-11 21 -19 46.5t-8 58.5q0 39 13 77t38 67.5t61.5 48t84.5 18.5q55 0 90 -20t55.5 -51t28.5 -68.5t8 -73.5v-186h-466zM165 201q0 -61 36 -89.5t88 -28.5h96v100q0 24 -4.5 48.5t-16.5 44t-33 32t-53 12.5q-53 0 -83 -35 t-30 -84z" horiz-adv-x="526"/>
<glyph glyph-name="glyph545" d="M165 201q0 -61 36 -89.5t88 -28.5h96v100q0 24 -4.5 48.5t-16.5 44t-33 32t-53 12.5q-53 0 -83 -35t-30 -84zM0 0q-40 0 -40 40q0 25 9.5 34t30.5 9h114q-11 21 -19 46.5t-8 58.5q0 39 13 77t38 67.5t61.5 48t84.5 18.5q55 0 90 -20t55.5 -51t28.5 -68.5t8 -73.5v-103h76 q40 0 40 -40q0 -25 -9.5 -34t-30.5 -9h-542z" horiz-adv-x="542"/>
<glyph glyph-name="glyph546" d="M641 201q0 -61 36 -89.5t88 -28.5h96v100q0 24 -4.5 48.5t-16.5 44t-33 32t-53 12.5q-53 0 -83 -35t-30 -84zM202 0q-58 0 -96.5 8t-62 25.5t-33.5 45t-10 67.5v155h82v-125q0 -31 7.5 -49.5t25.5 -28t49 -12.5t79 -3h347q-11 21 -19 46.5t-8 58.5q0 39 13 77t38 67.5 t61.5 48t84.5 18.5q55 0 90 -20t55.5 -51t28.5 -68.5t8 -73.5v-103h76q40 0 40 -40q0 -25 -9.5 -34t-30.5 -9h-816z" horiz-adv-x="1018"/>
<glyph glyph-name="glyph547" d="M359 186q0 -57 31 -81.5t81 -24.5q38 0 67 10t44 22v37q0 34 -5.5 64t-18.5 51.5t-34 34t-51 12.5q-31 0 -52.5 -12t-35 -30t-20 -40t-6.5 -43zM0 158h81v-131q0 -89 62.5 -134.5t190.5 -45.5q48 0 93 7t79.5 26t55 51t20.5 82v16q-18 -11 -47 -20t-72 -9q-39 0 -72.5 9 t-58 29.5t-39 54.5t-14.5 84q0 40 13 78.5t38 68.5t62 48t85 18q53 0 89.5 -19.5t58.5 -54t31.5 -82t9.5 -104.5v-84q0 -73 -23 -126t-66 -87.5t-104.5 -51t-138.5 -16.5q-93 0 -157 18.5t-103 51t-56.5 77t-17.5 97.5v149z" horiz-adv-x="727"/>
<glyph glyph-name="glyph548" d="M359 182q0 -51 29.5 -75t86.5 -24h107v66q0 74 -25 118t-86 44q-29 0 -50 -11.5t-34.5 -30t-20.5 -41.5t-7 -46zM663 0q-7 -61 -33 -105t-68 -73t-99.5 -43t-128.5 -14q-93 0 -157 18.5t-103 51t-56.5 77t-17.5 97.5v149h81v-131q0 -89 62.5 -134.5t190.5 -45.5 q48 0 93 7.5t79.5 25.5t55 47t20.5 73h-113q-41 0 -75.5 9t-60 29.5t-40 53.5t-14.5 82q0 41 13.5 80t39 69t62 48.5t83.5 18.5q52 0 88 -18.5t58.5 -52.5t32.5 -82t10 -107v-47h77q40 0 40 -40q0 -25 -9.5 -34t-30.5 -9h-80z" horiz-adv-x="743"/>
</font>
</defs>
</svg>
